<svg xmlns="http://www.w3.org/2000/svg" width="318" height="145" fill="none"><path fill="#700A4B" d="m273.592 15.97 25.114 17.53 9.5 18.5 8.708 6.163-15.379 15.79L296.207 66l-20.5-7.836-17.494-26.404 15.379-15.79Z" style="fill:#700a4b;fill:color(display-p3 .4392 .0392 .2941);fill-opacity:1"/><path fill="#700A4B" fill-rule="evenodd" d="M253.839 15.179a3.555 3.555 0 0 1 3.862-3.219c1.007.092 1.854.394 2.366.584l.372.139c.337.126.469.175.63.213 1.169.273 2.35.474 3.656.697l.475.082c1.452.249 3.044.533 4.65.964a237.878 237.878 0 0 1 12.293 3.674c.637.208 1.298.417 1.978.631 3.357 1.06 7.164 2.26 10.591 4.205 2.908 1.649 5.759 3.677 8.168 6.338.312.343.627.67.986 1.04l.172.177c.412.426.879.913 1.331 1.44.923 1.078 1.869 2.416 2.477 4.18a34.57 34.57 0 0 1 1.83 9.118c.034.551.017 1.146.004 1.583l-.005.137c-.013.435-.024.796-.018 1.146.005.336.025.557.046.694a3.554 3.554 0 0 1-5.872 3.996c-.659-.88-.947-1.832-1.09-2.546a11.39 11.39 0 0 1-.194-2.037c-.008-.523.009-1.05.021-1.462l.005-.141c.014-.49.017-.759.006-.93a27.43 27.43 0 0 0-1.456-7.243c-.215-.626-.571-1.189-1.152-1.867-.3-.35-.636-.704-1.044-1.125l-.159-.164c-.353-.365-.76-.785-1.157-1.224-1.747-1.928-3.923-3.517-6.407-4.926-2.714-1.54-5.661-2.475-8.995-3.532-.739-.235-1.496-.475-2.274-.73a231.24 231.24 0 0 0-11.926-3.565c-1.259-.337-2.564-.575-4.012-.824l-.472-.08c-1.279-.219-2.68-.457-4.072-.782-.662-.155-1.322-.406-1.693-.547a12.25 12.25 0 0 0-.162-.061 5.424 5.424 0 0 0-.427-.145.86.86 0 0 0-.114-.026 3.555 3.555 0 0 1-3.218-3.862Zm55.887 33.931-.005-.015.005.015Z" clip-rule="evenodd" style="fill:#700a4b;fill:color(display-p3 .4392 .0392 .2941);fill-opacity:1"/><path fill="#700A4B" fill-rule="evenodd" d="M255.851 15.287c.921-.891 2.057-1.197 3.029-1.197a3.555 3.555 0 0 1 2.935 5.562c.095.318.211.66.335 1.009l.135.373.014.038.115.32v.002c.065.18.181.505.257.805a582.261 582.261 0 0 0 3.065 11.55c.411 1.489 1.02 2.914 1.764 4.461.239.497.51 1.041.795 1.613a93.442 93.442 0 0 1 1.618 3.364c.275.616.543 1.223.805 1.819 1.998 4.536 3.72 8.448 6.758 11.037 1.911 1.63 3.736 2.943 5.646 3.699 2.394.947 4.64.787 8.001.547.508-.036 1.043-.074 1.607-.11a3.555 3.555 0 0 1 .458 7.094c-.447.03-.912.066-1.394.103-3.257.256-7.264.57-11.289-1.023-3.01-1.192-5.547-3.113-7.642-4.9-4.381-3.734-6.801-9.304-8.693-13.66-.258-.592-.506-1.163-.747-1.703a73.288 73.288 0 0 0-1.384-2.876c-.3-.602-.613-1.229-.947-1.923-.813-1.692-1.632-3.56-2.209-5.649a585.183 585.183 0 0 1-3.092-11.649l-.073-.21a5.099 5.099 0 0 1-.046-.128l-.22-.608a22.586 22.586 0 0 1-.673-2.178c-.168-.69-.418-1.9-.205-3.113.116-.661.424-1.643 1.277-2.47Zm5.75 3.427v.012-.012Z" clip-rule="evenodd" style="fill:#700a4b;fill:color(display-p3 .4392 .0392 .2941);fill-opacity:1"/><path fill="#700A4B" fill-rule="evenodd" d="M308.257 49.835a3.556 3.556 0 0 0-4.63-.983l-.01.005c-.09.05-.671.37-1.143.94a3.617 3.617 0 0 0-.825 2.57 3.604 3.604 0 0 0 1.269 2.486c.362.307.707.473.801.518l.003.002.137.063c.346.214.635.462 1.107.866.209.18.454.39.756.642.399.332.812.687 1.239 1.055 1.062.913 2.218 1.907 3.492 2.84l-.169.14-.086.07c-.47.388-1.136.936-1.746 1.593a24.42 24.42 0 0 0-1.339 1.616l-.201.257c-.415.528-.705.864-1 1.125-.471.419-1.09.922-1.705 1.32a6.006 6.006 0 0 1-.758.427c-1.473-1.153-2.904-2.51-4.431-3.956l-.352-.333a10.504 10.504 0 0 0-.364-.326l-.146-.125a1.645 1.645 0 0 1-.042-.036 3.556 3.556 0 0 0-6.889.039c-.587 2.348.899 4.023 1.329 4.485.313.337.633.617.84.795l.24.205c.077.066.109.093.144.126l.404.383c1.584 1.502 3.397 3.222 5.325 4.68 1.466 1.11 3.071 1.4 4.622 1.206 1.585-.199 3.014-1 3.942-1.602a21.955 21.955 0 0 0 2.561-1.97c.795-.706 1.409-1.462 1.869-2.048l.298-.38c.34-.436.581-.745.866-1.052.265-.286.587-.555 1.143-1.014l.029-.024c.491-.405 1.191-.982 1.832-1.696.452-.504.969-1.105 1.356-1.736.386-.629.946-1.767.742-3.21-.203-1.444-1.056-2.375-1.576-2.854-.518-.477-1.145-.895-1.639-1.218-1.339-.875-2.397-1.784-3.684-2.89-.489-.42-1.011-.869-1.594-1.354-.098-.082-.215-.184-.35-.3a24.215 24.215 0 0 0-1.667-1.347ZM297.76 62.293a.114.114 0 0 1 .002.002l-.002-.002Zm6.219-6.805-.015-.007.015.007Zm2.724-6.568.01.004-.01-.004Z" clip-rule="evenodd" style="fill:#700a4b;fill:color(display-p3 .4392 .0392 .2941);fill-opacity:1"/><path fill="#FF50BF" fill-rule="evenodd" d="M284.898 37.807a3.555 3.555 0 0 0-5.027.583c-2.462 3.151-1.474 6.55-.634 8.515.489 1.144 1.203 2.34 2.446 3.244 1.208.877 2.542 1.201 3.702 1.367l.072.01c.536.078 1.544.223 2.578.111 1.231-.132 2.717-.644 3.862-2.039.369-.448 1.29-1.583 1.843-2.877.271-.635.633-1.71.475-2.958-.19-1.507-1.078-2.792-2.456-3.531-.686-.368-1.473-.695-2.018-.922a30.087 30.087 0 0 1-.402-.169c-.614-.267-.937-.451-1.176-.65a3.55 3.55 0 0 0-3.265-.684Zm2.316 6.087-.012.032a.185.185 0 0 1 .012-.032Z" clip-rule="evenodd" style="fill:#ff50bf;fill:color(display-p3 1 .3137 .749);fill-opacity:1"/><path fill="#FF50BF" fill-rule="evenodd" d="m258.214 11.281.007.004c.464.218.859.524 1.175.889l.319.31.469.448.885.849c.504.486 1.043 1.01 1.475 1.448.212.215.426.438.606.637.088.098.197.223.303.358l.007.008a4.1 4.1 0 0 1 .535.881c.109.249.354.627.844 1.2a31.278 31.278 0 0 0 .85.943c.255.277.546.593.817.905 4.963 5.714 9.964 11.055 15.838 15.142a3.556 3.556 0 0 1-4.061 5.836c-6.645-4.623-12.129-10.54-17.145-16.317a38.26 38.26 0 0 0-.69-.761l-.062-.067c-.286-.31-.62-.674-.949-1.06-.546-.637-1.203-1.473-1.714-2.464a14.545 14.545 0 0 0-.241-.248 80.91 80.91 0 0 0-1.346-1.32l-.842-.809-.506-.484a35.61 35.61 0 0 1-.463-.45c-.049-.049-.138-.137-.221-.229a3.973 3.973 0 0 1-.108-.122c-.029-.035-.13-.155-.241-.32a3.57 3.57 0 0 1-.532-1.26 3.558 3.558 0 0 1 3.874-4.26 3.56 3.56 0 0 1 1.117.313Zm-2.754 6.55a3.556 3.556 0 0 1-.267-.113c.003 0 .005.002.008.003.036.018.126.06.259.11Z" clip-rule="evenodd" style="fill:#ff50bf;fill:color(display-p3 1 .3137 .749);fill-opacity:1"/><path fill="#FF50BF" fill-rule="evenodd" d="M285.103 40.616c.098.017.209.038.335.066.568.124 1.187.313 1.791.51l.477.16.359.12c.213.07.555.182.863.255a3.555 3.555 0 1 0 1.647-6.917s-.073-.022-.278-.09a74.63 74.63 0 0 1-.267-.088l-.585-.195a25.774 25.774 0 0 0-2.486-.7c-.862-.19-2.071-.387-3.272-.24-1.233.15-3.307.825-4.144 3.126a3.555 3.555 0 0 0 5.56 3.993Z" clip-rule="evenodd" style="fill:#ff50bf;fill:color(display-p3 1 .3137 .749);fill-opacity:1"/><path fill="#FF50BF" fill-rule="evenodd" d="M285.07 36.248a3.555 3.555 0 0 1 4.93-.986c.694.462 1.372.958 2.056 1.544a3.555 3.555 0 1 1-4.627 5.399 13.93 13.93 0 0 0-1.373-1.028 3.555 3.555 0 0 1-.986-4.93Z" clip-rule="evenodd" style="fill:#ff50bf;fill:color(display-p3 1 .3137 .749);fill-opacity:1"/><path fill="#FF50BF" fill-rule="evenodd" d="M289.709 35.7c2.291 0 2.291-.698 4.484 2.274 0 0 .307.526.707 1.793.6 4.232-.735 7.692-2.4 8.732-1.665 1.041-2.589-3.3-3.629-4.964-.728-1.164-1.103-2.323-1.372-3.153l-.064-.198a3.555 3.555 0 0 1 2.274-4.484Z" clip-rule="evenodd" style="fill:#ff50bf;fill:color(display-p3 1 .3137 .749);fill-opacity:1"/><path fill="#700A4B" fill-rule="evenodd" d="M55.082 7.875 6.332 37.227l23.43 6.334 13.666 20.564 11.654-56.25Zm-5.324 7.502-8.152 39.346-9.535-14.348-16.447-4.446 34.134-20.552Z" clip-rule="evenodd" style="fill:#700a4b;fill:color(display-p3 .4392 .0392 .2941);fill-opacity:1"/><path fill="#700A4B" d="M32.136 39.441c.721-.15.747.28.686.826.504 2.017 1.793 3.952 2.677 5.82 2.105 4.442 4.78 8.621 6.638 13.164.204.5.435 1.63.885.73.543-1.086 1.074-1.999 1.305-3.23.249-1.326.505-2.613.841-3.939.853-3.368 1.233-6.782 1.836-10.2a90.265 90.265 0 0 1 2.545-10.597c1.22-4.027 1.948-8.12 2.788-12.236.137-.673 2.461-9.661 1.99-9.779-6.785 4.89-15.761 9.309-22.821 13.799-5.735 3.647-11.62 7.25-17.126 11.24-1.37.992-2.773 2.658-4.37 3.296-.865.346-1.605.395-2.356.996-.036.029.746.022.786.022 1.017 0 2.035-.006 3.053 0 3.939.023 7.841.519 11.77.708 2.93.14 5.998-.02 8.873-.62Z" style="fill:#700a4b;fill:color(display-p3 .4392 .0392 .2941);fill-opacity:1"/><path fill="#700A4B" fill-rule="evenodd" d="m53.588 6.148-1.339.965c-3.228 2.327-7.025 4.574-10.997 6.85l-2.26 1.289c-3.208 1.827-6.465 3.682-9.394 5.545a1304.66 1304.66 0 0 1-3.082 1.95c-4.731 2.988-9.611 6.07-14.221 9.41-.635.46-1.353 1.098-1.884 1.57-.172.153-.325.288-.448.394-.686.59-1.059.825-1.273.911a4.693 4.693 0 0 1-.463.154c-.151.046-.379.115-.574.18a7.07 7.07 0 0 0-2.22 1.186 3.558 3.558 0 0 0 1.734 6.304h.002c.19.028.357.036.407.038h.003c.144.008.3.01.405.011.216.002.485 0 .456 0h1.044c.67-.002 1.323-.004 1.988 0 2.317.014 4.414.183 6.644.362 1.554.125 3.173.256 4.977.342a41.49 41.49 0 0 0 7.054-.242c.23.534.475 1.03.706 1.482.26.51.48.92.68 1.29.271.508.505.943.753 1.467.913 1.928 1.934 3.817 2.9 5.608l.592 1.097c1.154 2.149 2.209 4.185 3.061 6.266l.018.05c.01.027.059.173.09.259l.004.012c.058.164.22.623.487 1.068.135.226.431.682.947 1.092.575.457 1.576.96 2.849.775a3.795 3.795 0 0 0 2.249-1.204c.36-.393.586-.796.718-1.06l-3.18-1.59 3.18 1.59c.056-.112.119-.234.187-.365.452-.878 1.132-2.194 1.433-3.8.245-1.306.485-2.506.793-3.72.625-2.468 1.032-5.077 1.409-7.488.161-1.035.317-2.033.482-2.968a86.734 86.734 0 0 1 2.445-10.184c1.062-3.502 1.773-7.07 2.449-10.46.14-.707.28-1.407.42-2.096 0 0 .03-.13.115-.477l.138-.56.153-.624c.23-.944.524-2.154.8-3.351.272-1.185.54-2.413.71-3.376.082-.463.16-.972.193-1.418.014-.194.036-.57-.015-.991a3.839 3.839 0 0 0-.319-1.14c-.216-.471-.884-1.622-2.404-2.002l-1.602-.4ZM29.292 39.837l-.001.012.001-.012Zm19.9-22.18a79.232 79.232 0 0 0-.339 1.41c-.154.757-.303 1.502-.45 2.237-.674 3.377-1.305 6.539-2.257 9.677a93.84 93.84 0 0 0-2.643 11.011c-.219 1.24-.399 2.4-.572 3.516-.288 1.85-.556 3.575-.948 5.33-.191-.356-.38-.708-.568-1.055-.965-1.787-1.878-3.478-2.703-5.22-.3-.632-.704-1.392-1.052-2.046a59.727 59.727 0 0 1-.477-.905c-.357-.698-.617-1.274-.786-1.781l-.004-.105a4.195 4.195 0 0 0-.528-1.888 3.89 3.89 0 0 0-2.385-1.843c-.856-.23-1.613-.131-2.07-.036-2.52.525-5.28.678-7.976.549a150.72 150.72 0 0 1-4.269-.294l-.267-.02c3.672-2.544 7.483-4.952 11.345-7.391 1.054-.666 2.11-1.333 3.17-2.007 2.768-1.76 5.833-3.506 9.029-5.326.774-.441 1.557-.887 2.344-1.338a264.662 264.662 0 0 0 4.433-2.587l-.028.112Zm1.645-7.49Zm-5.16 48.422Zm230.738 26.649c1.109.568 1.627 1.523 1.789 1.827a3.558 3.558 0 0 1-.756 4.304c-.04.269-.093.613-.141.828-.088.401-.198.844-.297 1.24l-.082.328c-.125.506-.231.96-.309 1.388-.078.43-.115.77-.119 1.036a2.07 2.07 0 0 0 .011.291.672.672 0 0 0 .016.095 3.555 3.555 0 1 1-6.802 2.07c-.534-1.754-.324-3.534-.102-4.76.137-.754.388-1.772.565-2.49.074-.297.135-.543.169-.698l.026-.161.025-.167.057-.379c.063-.41.159-1 .297-1.554.068-.275.166-.628.31-.987.107-.264.399-.965 1.037-1.574a3.782 3.782 0 0 1 1.833-.971 3.73 3.73 0 0 1 2.473.334Z" clip-rule="evenodd" style="fill:#700a4b;fill:color(display-p3 .4392 .0392 .2941);fill-opacity:1"/><path fill="#700A4B" fill-rule="evenodd" d="M306.327 98.643a44.436 44.436 0 0 1-1.233-.223 617.999 617.999 0 0 0-5.597-1.087l-.077-.015c-1.85-.353-3.717-.71-5.584-1.084-6.356-1.271-12.679-2.6-19.034-4.189a3.556 3.556 0 1 1 1.725-6.897c6.19 1.548 12.383 2.85 18.704 4.115 1.836.367 3.677.719 5.537 1.074l.063.012c1.875.358 3.769.72 5.662 1.1a35.752 35.752 0 0 0 1.146.205c.42.071.909.156 1.405.261.973.207 2.202.539 3.377 1.217a3.554 3.554 0 1 1-3.553 6.158c-.223-.129-.605-.272-1.302-.42a28.912 28.912 0 0 0-1.239-.227Z" clip-rule="evenodd" style="fill:#700a4b;fill:color(display-p3 .4392 .0392 .2941);fill-opacity:1"/><path fill="#700A4B" fill-rule="evenodd" d="M311.103 94.41a3.555 3.555 0 0 1 1.872 4.666c-1.133 2.652-1.856 5.336-2.625 8.412a3.556 3.556 0 0 1-6.898-1.726c.775-3.096 1.611-6.262 2.985-9.479a3.555 3.555 0 0 1 4.666-1.872Zm-23.435.98a4063.543 4063.543 0 0 1-5.937 24.624c-.489 1.994-.845 3.996-1.178 5.868l-.022.128c-.346 1.948-.671 3.757-1.112 5.518a3.556 3.556 0 0 0 6.898 1.725c.51-2.037.874-4.086 1.214-5.999l.005-.027c.345-1.942.666-3.749 1.1-5.514a4109.548 4109.548 0 0 0 4.584-18.949 1274.89 1274.89 0 0 0 1.694-7.13c.076-.33.137-.597.176-.774a6.18 6.18 0 0 0 .093-.517c.005-.042.02-.171.023-.336a6.272 6.272 0 0 0-.02-.47c-.038-.26-.283-1.055-.555-1.556-.885-.932-3.371-1.593-4.645-1.2-.505.325-1.126.94-1.288 1.162a3.597 3.597 0 0 0-.33.616l-.002.004c-.058.141-.096.26-.105.286l-.001.003c-.077.242-.253.94-.492 1.894a3.532 3.532 0 0 0-.1.645Z" clip-rule="evenodd" style="fill:#700a4b;fill:color(display-p3 .4392 .0392 .2941);fill-opacity:1"/><path fill="#700A4B" fill-rule="evenodd" d="M277.267 138.155c-1.133-.221-2.277-.443-3.438-.675a3.556 3.556 0 0 1 1.395-6.972c1.075.215 2.164.427 3.265.641 3.499.68 7.104 1.381 10.652 2.268a3.555 3.555 0 0 1-1.725 6.898c-3.348-.838-6.694-1.488-10.149-2.16Z" clip-rule="evenodd" style="fill:#700a4b;fill:color(display-p3 .4392 .0392 .2941);fill-opacity:1"/><path fill="#700A4B" d="M3.976 86.51c0-.374-.39-3.808-.23-3.827.2-.202.118-.239.115-.404 0-.362-.03-.737.003-1.097.038-.418.082-.89.173-1.298.078-.352.157-.823.34-1.128.093-.156.135-.352.208-.52.085-.193.218-.294.337-.458.18-.25.402-.483.554-.75.363-.635 1.036-.733 1.59-1.103.387-.258.828-.288 1.28-.346.874-.113 1.754-.159 2.635-.257.904-.1 1.808-.17 2.712-.282 1.021-.125 2.077.084 3.103.084 1.272 0 2.475.31 3.712.544.82.156 1.662.298 2.453.58.352.126.706.284 1.038.46.238.124.342.408.577.538.49.27 1.063.789 1.225 1.34.144.491.275 1.076.275 1.615 0 .389.058.768.058 1.154 0 .356.116.682.116 1.039 0 .811.253 1.572.39 2.366.142.817.014 1.767.014 2.596v2.078c0 .766-.289 1.466-.289 2.237 0 .692-.404 1.344-.404 2.036 0 .728-.134 1.586-.433 2.25a4.263 4.263 0 0 1-1.154 1.466c-.404.314-1.02.35-1.471.576-.23.116-.614.148-.869.148-.298 0-.518.08-.805.112-.32.036-.66.003-.984.003-.379 0-.759.116-1.15.116h-4.841c-.414 0-.8-.116-1.218-.116-.415 0-.793.18-1.225.103-.884-.157-1.83.029-2.686-.276-.643-.228-1.334-.292-1.975-.577a2.22 2.22 0 0 1-.705-.506c-.202-.202-.486-.307-.654-.545-.468-.664-.926-1.348-1.122-2.135-.143-.57-.163-1.152-.289-1.718-.135-.607-.025-1.24-.173-1.834-.158-.633-.02-1.328-.07-1.975-.06-.765-.16-1.52-.16-2.289Zm28 30c0-.374-.39-3.807-.23-3.827.2-.202.118-.239.115-.404 0-.362-.03-.737.003-1.097.038-.418.082-.89.173-1.298.078-.352.157-.823.34-1.128.093-.156.135-.352.208-.52.085-.193.218-.294.337-.458.18-.251.402-.483.555-.75.362-.635 1.035-.733 1.59-1.103.386-.258.827-.288 1.279-.346.874-.113 1.754-.159 2.635-.257.904-.1 1.808-.171 2.712-.282 1.021-.125 2.077.083 3.103.083 1.272 0 2.475.311 3.712.545.82.156 1.662.298 2.453.581a8.12 8.12 0 0 1 1.038.458c.238.125.342.409.577.539.49.269 1.063.789 1.225 1.34.144.491.275 1.076.275 1.615 0 .389.058.768.058 1.154 0 .356.116.682.116 1.039 0 .811.253 1.572.39 2.366.142.817.014 1.767.014 2.596v2.078c0 .766-.289 1.466-.289 2.237 0 .692-.404 1.344-.404 2.036 0 .728-.134 1.586-.433 2.25a4.258 4.258 0 0 1-1.154 1.465c-.404.315-1.02.352-1.471.577-.23.116-.614.148-.869.148-.298 0-.518.08-.805.112-.32.036-.66.003-.984.003-.379 0-.759.116-1.15.116h-4.841c-.414 0-.8-.116-1.218-.116-.415 0-.793.18-1.225.103-.884-.157-1.83.029-2.686-.276-.643-.228-1.334-.292-1.975-.577a2.226 2.226 0 0 1-.705-.506c-.202-.202-.486-.307-.654-.545-.468-.664-.925-1.348-1.122-2.135-.143-.569-.163-1.152-.289-1.719-.135-.606-.025-1.239-.173-1.833-.158-.633-.02-1.328-.07-1.975-.06-.765-.16-1.519-.16-2.289Zm-23.382-6.564c.234-.234 2.137-2.626 2.25-2.538.251 0 .223-.075.324-.181.227-.226.443-.479.688-.684.285-.237.609-.505.92-.704.27-.171.613-.416.919-.493.155-.039.305-.135.455-.194.173-.068.32-.048.497-.076.27-.044.554-.051.816-.123.624-.17 1.107.189 1.685.305.403.081.697.337 1.016.583.618.477 1.197.999 1.81 1.488.628.503 1.237 1.024 1.872 1.52.717.561 1.247 1.352 1.889 1.993.796.796 1.354 1.743 1.98 2.663.417.611.854 1.226 1.172 1.897.142.299.265.619.363.936.07.227-.042.47.024.698.138.475.17 1.159-.072 1.604-.217.398-.501.846-.839 1.183-.242.243-.444.517-.685.758-.223.223-.354.499-.578.722-.507.508-.824 1.142-1.235 1.725-.423.599-1.097 1.113-1.616 1.632l-1.3 1.299c-.479.479-1.097.737-1.58 1.219-.432.433-1.093.588-1.525 1.021-.456.455-1.076.908-1.679 1.137a3.754 3.754 0 0 1-1.638.194c-.449-.056-.857-.418-1.281-.559-.216-.072-.476-.292-.636-.451-.186-.187-.374-.274-.573-.433-.223-.179-.416-.412-.618-.614-.237-.237-.547-.403-.792-.648L7.6 123.798c-.259-.259-.428-.573-.69-.834-.26-.26-.608-.384-.83-.702-.454-.651-1.162-1.127-1.508-1.853-.259-.545-.651-1.017-.874-1.596a1.965 1.965 0 0 1-.124-.758c0-.253-.112-.496-.068-.75.123-.708.264-1.422.633-2.037.267-.445.619-.822.895-1.255.294-.464.76-.791 1.038-1.256.297-.494.818-.843 1.191-1.279.442-.516.85-1.051 1.332-1.532Z" style="fill:#700a4b;fill:color(display-p3 .4392 .0392 .2941);fill-opacity:1"/><path fill="#700A4B" fill-rule="evenodd" d="M23.403 109.758c.228.265.441.514.673.746.67.67 1.187 1.45 1.675 2.189.122.184.243.366.363.543l.126.183c.374.547.78 1.138 1.083 1.779l-.436.207.436-.207c.152.321.283.662.388 1.001.064.208.045.411.034.519l-.001.017c-.006.063-.01.099-.01.132a.13.13 0 0 0 .003.037c.082.283.132.62.126.956-.006.331-.066.698-.238 1.014-.225.413-.535.907-.92 1.293a6.56 6.56 0 0 0-.32.353l-.005.006a6.932 6.932 0 0 1-.361.399 2.268 2.268 0 0 0-.236.299l-.008.01a3.105 3.105 0 0 1-.334.413 4.749 4.749 0 0 0-.592.758l-.194.302c-.125.197-.26.408-.396.601-.24.342-.544.647-.836.921-.116.109-.227.209-.334.306-.176.161-.34.31-.499.469l-1.3 1.299c-.272.272-.579.479-.844.657l-.016.011c-.28.188-.517.348-.72.551-.266.267-.594.443-.852.582l-.023.012c-.285.153-.493.269-.65.427-.488.488-1.165.987-1.849 1.247a4.258 4.258 0 0 1-1.869.222c-.323-.041-.609-.187-.821-.303l-.132-.073a2.623 2.623 0 0 0-.42-.205 1.74 1.74 0 0 1-.476-.264 3.357 3.357 0 0 1-.349-.303 1.39 1.39 0 0 0-.213-.17l-.051-.035a3.963 3.963 0 0 1-.27-.193c-.179-.143-.36-.337-.506-.492a6.998 6.998 0 0 0-.151-.157 2.932 2.932 0 0 0-.338-.274l-.008-.006a3.804 3.804 0 0 1-.446-.368l-3.028-3.028c-.154-.153-.278-.32-.38-.457l-.009-.011a3.397 3.397 0 0 0-.3-.366c-.074-.073-.153-.127-.27-.209l-.095-.066a1.994 1.994 0 0 1-.52-.492c-.163-.233-.361-.438-.59-.675l-.159-.166c-.28-.296-.591-.643-.8-1.08-.099-.21-.22-.406-.357-.63a17.457 17.457 0 0 1-.069-.111 5.46 5.46 0 0 1-.462-.889 2.448 2.448 0 0 1-.157-.932c0-.057-.01-.11-.028-.21-.004-.023-.01-.049-.014-.078a1.525 1.525 0 0 1-.019-.544c.123-.702.274-1.501.696-2.203a7.377 7.377 0 0 1 .503-.715c.148-.194.281-.368.398-.551.169-.266.381-.489.557-.674l.025-.026c.193-.203.342-.365.45-.544.184-.307.429-.555.648-.763l.16-.151c.163-.152.304-.284.43-.431.119-.139.239-.284.362-.433.31-.374.638-.769.995-1.127l.003-.003.01-.01a4.814 4.814 0 0 1 2.134-2.467c.037-.033.088-.077.144-.113a.605.605 0 0 1 .152-.069.482.482 0 0 1 .095-.017.631.631 0 0 1 .03-.033l.006-.007c.055-.054.116-.118.182-.187.16-.17.35-.368.538-.526.281-.234.628-.522.97-.74l.112-.072c.104-.068.23-.149.35-.22.169-.099.379-.207.599-.262l.115.461-.115-.461a.795.795 0 0 0 .137-.057l.037-.018c.06-.029.143-.07.222-.101.148-.058.28-.075.381-.084l.105-.008c.042-.003.07-.005.11-.011a6.21 6.21 0 0 1 .332-.042 6.33 6.33 0 0 0 .1-.012c.132-.015.24-.032.335-.058.437-.119.816-.046 1.127.05.106.032.218.072.317.107l.106.037c.13.046.244.081.355.103.482.097.85.386 1.123.601l.094.074c.318.245.624.5.922.752l.117.098c.26.219.515.434.776.643.28.224.547.444.81.66.35.288.694.571 1.059.857.397.31.734.677 1.04 1.03.076.086.149.172.22.256Zm-.948.376c-.3-.344-.586-.652-.906-.902a53.358 53.358 0 0 1-1.099-.889 71.023 71.023 0 0 0-.778-.634 42.273 42.273 0 0 1-.796-.66l-.116-.097a26.75 26.75 0 0 0-.89-.726l-.086-.067c-.304-.235-.487-.377-.73-.425a3.798 3.798 0 0 1-.484-.138l-.135-.048a5.874 5.874 0 0 0-.254-.086c-.23-.07-.404-.092-.59-.041a3.214 3.214 0 0 1-.476.086l-.13.014c-.094.011-.176.02-.26.033a1.894 1.894 0 0 1-.169.02l-.06.004a1.41 1.41 0 0 0-.057.004.371.371 0 0 0-.113.022 1.2 1.2 0 0 0-.125.057l-.067.033c-.08.038-.193.091-.322.123-.085.021-.2.074-.346.159-.1.059-.191.118-.287.181l-.143.092a9.04 9.04 0 0 0-.87.667c-.147.122-.268.25-.407.397-.074.077-.152.16-.242.251a.505.505 0 0 0-.014.018l-.002.004c-.014.02-.058.083-.124.139a.695.695 0 0 1-.372.158 6.622 6.622 0 0 0-.172.18c-.19.208-.44.499-.7.807-.19.225-.382.456-.555.665l-.18.215c-.202.243-.384.461-.463.54-.323.323-.605.663-.903 1.023-.13.156-.262.317-.403.481a6.692 6.692 0 0 1-.529.532l-.13.122c-.209.199-.372.372-.485.56-.17.284-.393.518-.576.711l-.001.001c-.196.206-.35.369-.468.554-.14.22-.297.425-.44.612l-.034.045a6.408 6.408 0 0 0-.414.588c-.317.528-.448 1.158-.572 1.871a.623.623 0 0 0 .017.207l.009.046c.02.101.05.258.05.414 0 .241.02.4.092.585l-.45.173.45-.173c.094.245.227.476.384.732l.063.103c.137.221.288.467.412.727.137.289.354.542.627.829l.137.143c.23.238.493.51.704.812.06.086.144.157.282.254l.064.044c.122.083.288.197.43.339.155.156.28.323.384.461l.007.009c.11.148.197.263.298.364l3.028 3.028c.093.093.202.175.345.28l.013.01c.13.095.29.214.434.358.091.09.166.171.234.244.12.127.218.233.344.334.061.049.117.086.188.134l.075.05c.103.071.226.16.35.284.067.067.155.146.245.214a.844.844 0 0 0 .202.121c.222.074.443.197.615.293l.095.053c.21.114.353.177.479.192a3.282 3.282 0 0 0 1.407-.167c.52-.197 1.086-.604 1.509-1.027.267-.267.594-.442.852-.581l.023-.013c.285-.153.493-.269.65-.426.276-.275.584-.483.85-.661l.014-.009c.28-.189.515-.348.716-.549l1.3-1.3c.171-.171.369-.351.559-.524.103-.094.203-.185.296-.272.28-.263.526-.514.708-.773.125-.178.234-.35.35-.532l.222-.345c.2-.305.428-.622.716-.91.079-.079.145-.171.237-.3l.008-.011c.084-.118.193-.271.333-.411a6.48 6.48 0 0 0 .317-.352l.005-.005a6.81 6.81 0 0 1 .363-.401c.29-.289.547-.69.756-1.073.071-.13.116-.327.12-.568a2.353 2.353 0 0 0-.087-.671c-.06-.204-.04-.403-.03-.509l.002-.019a1.38 1.38 0 0 0 .008-.128c0-.024-.002-.033-.002-.034a6.625 6.625 0 0 0-.338-.872c-.27-.568-.63-1.095-1.01-1.65l-.124-.181a56.535 56.535 0 0 1-.397-.594c-.483-.728-.931-1.405-1.526-2a14.41 14.41 0 0 1-.74-.82c-.068-.079-.134-.157-.2-.232Zm12.921-18.121c-.153.02-.309.03-.468.03-.32 0-.56 0-.695-.003l-.164-.005h-.002a3.653 3.653 0 0 1-.523-.064 6.398 6.398 0 0 1-.655-.197c-.497-.249-1.917-1.871-2.209-3.465.389-1.451 1.756-2.895 2.205-3.117a6.41 6.41 0 0 1 .613-.188c.068-.014.182-.034.229-.041a4.062 4.062 0 0 1 .47-.038c.247-.008.862-.019 1.664-.03 1.643-.023 4.267-.054 6.885-.084h.006c2.624-.031 5.24-.062 6.874-.085l.565-.008c.153-.02.31-.03.468-.03.321 0 .56 0 .696.003l.163.005h.002c.019.001.14.007.286.026.048.006.167.025.238.038.115.025.444.118.654.196.497.25 1.918 1.872 2.21 3.466-.39 1.45-1.756 2.895-2.206 3.117a6.44 6.44 0 0 1-.613.188 3.625 3.625 0 0 1-.42.063 5.936 5.936 0 0 1-.278.016 130.1 130.1 0 0 1-1.665.03c-1.643.023-4.268.053-6.886.084h-.005c-2.624.03-5.24.062-6.874.084l-.565.009Z" clip-rule="evenodd" style="fill:#700a4b;fill:color(display-p3 .4392 .0392 .2941);fill-opacity:1"/><path fill="#700A4B" fill-rule="evenodd" d="M39.128 80.966a3.59 3.59 0 0 1-.03-.468c0-.32 0-.56.003-.695a5.123 5.123 0 0 1 .005-.166c.001-.019.007-.14.025-.286a6.6 6.6 0 0 1 .039-.237 6.45 6.45 0 0 1 .196-.655c.25-.497 1.872-1.917 3.465-2.209 1.452.389 2.896 1.755 3.118 2.205.073.196.163.504.188.613a3.674 3.674 0 0 1 .063.42 6.718 6.718 0 0 1 .016.278c.008.248.018.863.03 1.665.023 1.643.053 4.267.084 6.885v.006a3489.9 3489.9 0 0 0 .093 7.439c.02.153.03.31.03.468 0 .32 0 .56-.003.695 0 .03-.002.094-.006.164v.002c0 .019-.006.14-.025.286a6.364 6.364 0 0 1-.038.237 6.458 6.458 0 0 1-.197.655c-.25.497-1.872 1.917-3.465 2.209-1.451-.389-2.895-1.755-3.117-2.205a6.448 6.448 0 0 1-.189-.613 3.638 3.638 0 0 1-.079-.699c-.008-.247-.018-.862-.029-1.664-.023-1.643-.054-4.268-.084-6.886v-.005c-.031-2.624-.062-5.24-.085-6.874l-.008-.565Z" clip-rule="evenodd" style="fill:#700a4b;fill:color(display-p3 .4392 .0392 .2941);fill-opacity:1"/><path fill="#FF9CE8" d="M78.501 51.999 232.5 14.5l15 65L94 116.999l-15.499-65Z" style="fill:#ff9ce8;fill:color(display-p3 1 .6118 .9098);fill-opacity:1"/><path fill="#700A4B" d="M213.917 79.638c-10.387 2.402-18.519-5.025-21.997-20.068-3.438-14.864.649-24.927 11.036-27.33 10.267-2.374 18.239 4.901 21.676 19.765 3.479 15.043-.447 25.258-10.715 27.633Zm-9.76-22.898c2.002 8.656 4.64 13.265 7.266 12.658 2.627-.608 2.973-5.907.972-14.563-1.961-8.476-4.557-12.907-7.184-12.3-2.626.608-3.014 5.729-1.054 14.205Zm-23.536 30.6c-10.028 2.318-18.013-5.017-21.395-19.642-3.493-15.102.631-25.552 11.077-27.968 8.894-2.056 16.213 3.483 19.405 14.568l-11.819 2.733c-1.578-4.918-3.379-7.268-5.349-6.813-2.686.621-3.341 5.678-1.27 14.632 1.891 8.178 4.603 12.834 7.588 12.143 1.97-.455 2.804-3.1 2.343-7.27l-5.134 1.187-2.36-10.208 16.535-3.824c1.754 8.399 4.639 20.875 5.973 26.1l-7.462 1.726-.924-2.365c-1.62 2.513-4.044 4.268-7.208 5Zm-33.102 7.653C137.132 97.395 129 89.97 125.521 74.926c-3.437-14.864.65-24.928 11.037-27.33 10.267-2.374 18.238 4.9 21.676 19.765 3.478 15.042-.448 25.258-10.715 27.632Zm-9.761-22.897c2.002 8.655 4.64 13.265 7.267 12.657 2.626-.607 2.973-5.907.971-14.562-1.96-8.477-4.557-12.907-7.183-12.3-2.627.608-3.015 5.728-1.055 14.205Zm-27.646-17.817 8.159 35.28 10.864-2.513 2.512 10.864-22.444 5.191-10.672-46.144 11.581-2.678Z" style="fill:#700a4b;fill:color(display-p3 .4392 .0392 .2941);fill-opacity:1"/><path fill="#700A4B" fill-rule="evenodd" d="M157.314 36.575c-21.975 5.321-43.971 10.647-66.03 15.749a3.555 3.555 0 1 1-1.603-6.927c22.022-5.093 43.985-10.411 65.969-15.735l.009-.002c21.974-5.321 43.97-10.647 66.03-15.749a3.554 3.554 0 1 1 1.602 6.927c-22.021 5.093-43.984 10.411-65.968 15.735l-.009.002Zm15.094 65.277c-21.975 5.321-43.971 10.648-66.031 15.749a3.554 3.554 0 1 1-1.602-6.927c22.021-5.093 43.985-10.411 65.968-15.734l.009-.002c21.975-5.322 43.971-10.648 66.031-15.75a3.554 3.554 0 1 1 1.602 6.928c-22.021 5.092-43.984 10.41-65.968 15.734l-.009.002ZM80.712 54.587c.357.155.684.343.958.514a3.555 3.555 0 0 1 1.08 4.98c1.072 6.819 2.697 13.52 4.357 20.366.61 2.518 1.226 5.055 1.82 7.625.691 2.987 1.392 5.982 2.094 8.982 1.41 6.021 2.823 12.064 4.17 18.104.026.113.069.287.123.504.17.686.446 1.797.588 2.731.104.68.184 1.498.129 2.343-.054.828-.252 1.914-.895 2.944a3.555 3.555 0 0 1-6.198-3.468 4.532 4.532 0 0 0-.064-.746c-.06-.397-.156-.833-.271-1.313a71.568 71.568 0 0 0-.118-.478 46.622 46.622 0 0 1-.233-.968c-1.34-6.006-2.739-11.985-4.142-17.984-.704-3.009-1.41-6.023-2.11-9.049a700.364 700.364 0 0 0-1.742-7.295c-1.75-7.216-3.55-14.636-4.67-22.088a8.335 8.335 0 0 0-.132-.635l-.017-.07a10.234 10.234 0 0 1-.01-.044c-.052-.22-.204-.865-.203-1.493a3.933 3.933 0 0 1 .647-2.179c.805-1.204 2.065-1.649 3.09-1.657a4.324 4.324 0 0 1 1.75.374Zm8.218 65.741ZM236.599 18.537c.357.154.684.342.958.513a3.555 3.555 0 0 1 1.08 4.98c1.071 6.819 2.697 13.52 4.357 20.366a716.732 716.732 0 0 1 1.82 7.625c.691 2.987 1.392 5.982 2.094 8.983 1.409 6.02 2.823 12.063 4.17 18.104.026.112.069.287.123.503.17.686.445 1.797.588 2.731.104.68.183 1.498.128 2.343-.053.828-.251 1.914-.894 2.944a3.555 3.555 0 0 1-6.198-3.468 4.6 4.6 0 0 0-.065-.746 16.12 16.12 0 0 0-.27-1.313l-.118-.478c-.081-.33-.171-.691-.233-.968-1.34-6.006-2.739-11.985-4.143-17.983a3800.35 3800.35 0 0 1-2.109-9.05 712.52 712.52 0 0 0-1.742-7.295c-1.751-7.216-3.551-14.636-4.67-22.088a8.028 8.028 0 0 0-.133-.635l-.016-.07-.01-.044c-.052-.22-.204-.865-.203-1.493a3.924 3.924 0 0 1 .647-2.179c.805-1.204 2.065-1.649 3.09-1.657a4.32 4.32 0 0 1 1.749.375Zm8.218 65.74.002-.014a.134.134 0 0 1-.002.014ZM85.425 40.9a3.555 3.555 0 0 1-1.29 4.859c-.52.302-1.339.69-2.095 1.047l-.39.185c-.96.457-1.986.955-2.923 1.478-.888.496-1.536.926-1.93 1.26a3.556 3.556 0 0 1-6.998-.026c-.455-2.584 1.307-4.403 2.079-5.113 1-.918 2.267-1.706 3.384-2.33 1.155-.644 2.36-1.226 3.332-1.689l.454-.215c.802-.382 1.278-.608 1.518-.747a3.555 3.555 0 0 1 4.86 1.29Zm-8.94 9.142c-.005 0 .014-.028.071-.087a.367.367 0 0 1-.072.087Z" clip-rule="evenodd" style="fill:#700a4b;fill:color(display-p3 .4392 .0392 .2941);fill-opacity:1"/><path fill="#700A4B" fill-rule="evenodd" d="m88.134 43.62-6.927 1.603 1.077 4.657a3.555 3.555 0 1 0 6.927-1.602l-1.077-4.657Z" clip-rule="evenodd" style="fill:#700a4b;fill:color(display-p3 .4392 .0392 .2941);fill-opacity:1"/><path fill="#700A4B" fill-rule="evenodd" d="m81.359 45.318.099.3.024.072c.267.809.714 2.165 1.06 2.929a3.555 3.555 0 0 0 6.478-2.93c-.16-.354-.485-1.313-.81-2.3l-.04-.122c-.123-.37-.252-.762-.337-.994l-.001-.002a4.94 4.94 0 0 0-.152-.37 3.604 3.604 0 0 0-1.207-1.443 3.557 3.557 0 0 0-5.586 3.083v.003a3.694 3.694 0 0 0 .068.565c.02.112.046.225.067.316.074.32.188.618.337.893Zm-.2-.591.002.004c-.007-.017-.007-.02-.001-.004Zm-.518 18.386c-2.482.495-4.41 1.089-5.745 1.956a3.555 3.555 0 1 1-3.873-5.963c2.527-1.641 5.58-2.438 8.23-2.966 1.172-.233 2.36-.43 3.457-.613l.499-.083c1.265-.21 2.385-.406 3.384-.637a3.555 3.555 0 0 1 1.602 6.927c-1.239.287-2.559.514-3.816.724l-.517.085c-1.105.184-2.17.36-3.22.57Z" clip-rule="evenodd" style="fill:#700a4b;fill:color(display-p3 .4392 .0392 .2941);fill-opacity:1"/><path fill="#700A4B" fill-rule="evenodd" d="M69.068 45.568c.555.17 1.023.43 1.362.642a3.556 3.556 0 0 1 1.328 4.542c.178.468.366.927.569 1.424.136.334.28.686.433 1.07.446 1.12.92 2.399 1.247 3.811a3.555 3.555 0 1 1-6.927 1.602c-.204-.88-.52-1.763-.925-2.782-.104-.261-.22-.544-.341-.842a58.258 58.258 0 0 1-.982-2.517c-.031-.087-.07-.193-.132-.355l-.005-.014a28.495 28.495 0 0 1-.202-.55c-.122-.346-.333-.963-.425-1.604a4.515 4.515 0 0 1 .043-1.601c.166-.767.701-2.008 2.114-2.662 1.23-.57 2.355-.313 2.843-.164Zm-2.432 6.656Z" clip-rule="evenodd" style="fill:#700a4b;fill:color(display-p3 .4392 .0392 .2941);fill-opacity:1"/><path fill="#700A4B" fill-rule="evenodd" d="M69.846 54.847a3.555 3.555 0 0 1 4.265 2.663l.42 1.818a3.555 3.555 0 1 1-6.927 1.601l-.42-1.817a3.555 3.555 0 0 1 2.662-4.265Zm5.542-7.24c-2.382.52-4.033 1.164-5.037 2.035a3.555 3.555 0 1 1-4.657-5.373c2.415-2.093 5.552-3.035 8.177-3.608 1.319-.288 2.651-.51 3.844-.708l.097-.017c1.259-.21 2.337-.391 3.284-.61a3.555 3.555 0 1 1 1.602 6.927c-1.2.278-2.503.495-3.713.696l-.028.005c-1.244.207-2.426.404-3.569.653Z" clip-rule="evenodd" style="fill:#700a4b;fill:color(display-p3 .4392 .0392 .2941);fill-opacity:1"/><path fill="#700A4B" fill-rule="evenodd" d="M63.483 43.875a3.555 3.555 0 0 1 4.265 2.662c1.001 4.33 2.422 8.666 4.27 12.608a3.555 3.555 0 0 1-6.437 3.018c-2.095-4.468-3.666-9.29-4.76-14.024a3.555 3.555 0 0 1 2.662-4.264Z" clip-rule="evenodd" style="fill:#700a4b;fill:color(display-p3 .4392 .0392 .2941);fill-opacity:1"/><path fill="#700A4B" fill-rule="evenodd" d="M87.596 57.922c.6 1.869-.43 3.87-2.3 4.47a733.113 733.113 0 0 0-14.155 4.703 3.555 3.555 0 0 1-2.31-6.724 739.83 739.83 0 0 1 14.294-4.749c1.87-.6 3.87.43 4.47 2.3Z" clip-rule="evenodd" style="fill:#700a4b;fill:color(display-p3 .4392 .0392 .2941);fill-opacity:1"/><path fill="#700A4B" fill-rule="evenodd" d="M87.428 42.988c.537.708.827 1.54 1.002 2.093.739 2.328 1.44 5.09 1.551 7.894a3.606 3.606 0 0 1 .31 2.621 3.619 3.619 0 0 1-2.096 2.41c-.452.19-.917.28-1.37.286-.139.076-.31.179-.516.313-.58.377-1.182.826-1.89 1.353-.254.19-.523.39-.809.6-.952.7-2.173 1.574-3.375 2.133-.912.424-3.489 1.465-5.755-.326-.724-.572-1.163-1.289-1.4-1.72a11.472 11.472 0 0 1-.681-1.522c-.368-.988-.674-2.107-.91-3.106a37.255 37.255 0 0 1-.543-2.738c-.055-.36-.105-.734-.129-1.054a4.908 4.908 0 0 1-.002-.753v-.01c.009-.104.05-.655.336-1.262a3.58 3.58 0 0 1 1.134-1.372 3.55 3.55 0 0 1 1.964-2.568c.642-.307 1.255-.59 1.843-.863 1.834-.848 3.425-1.584 4.892-2.566.062-.041.097-.07.214-.166a41.308 41.308 0 0 1 .223-.182c.128-.11.892-.76 1.914-1.005a3.892 3.892 0 0 1 2.47.216 4.1 4.1 0 0 1 1.623 1.294Zm-9.43 9.365a31.108 31.108 0 0 0 .66 3.01c.226-.158.47-.335.738-.531.196-.144.406-.301.626-.465.754-.563 1.623-1.21 2.414-1.724.123-.08.25-.16.38-.24a19.707 19.707 0 0 0-.356-2.197c-1.27.675-2.555 1.267-3.709 1.799l-.752.348Zm3.558-5.398.002.004a.086.086 0 0 1-.002-.004Zm-4.564 9.384a.411.411 0 0 1 .109-.035c-.077.03-.112.039-.11.035Zm2.322.888Zm7.87.89Zm2.814-4.366Z" clip-rule="evenodd" style="fill:#700a4b;fill:color(display-p3 .4392 .0392 .2941);fill-opacity:1"/><path fill="#700A4B" fill-rule="evenodd" d="M73.845 49.456c.269-.17.855-.517 1.57-.683a3.556 3.556 0 0 1 3.764 1.498c.043.034.085.07.127.108.346.354.918 1.29 1.102 1.866.083.599-.026 1.68-.18 2.142-.354.86-.947 1.328-1.075 1.43l-.007.004a3.565 3.565 0 0 1-1.116.597 3.062 3.062 0 0 1-.27.077l-.275.068c-.199.047-.467.107-.726.16l-.01.002c-.171.035-.605.124-.991.148a4.53 4.53 0 0 1-1.544-.155c-.66-.19-1.981-.795-2.514-2.39-.472-1.412.052-2.558.258-2.947.25-.475.555-.816.736-1.003.383-.396.81-.708 1.151-.922Z" clip-rule="evenodd" style="fill:#700a4b;fill:color(display-p3 .4392 .0392 .2941);fill-opacity:1"/><path fill="#700A4B" fill-rule="evenodd" d="M76.767 48.78c.269-.169.855-.517 1.57-.682a3.556 3.556 0 0 1 3.764 1.497c.043.035.085.07.127.108.345.354.918 1.29 1.102 1.867.083.598-.026 1.68-.18 2.141a3.556 3.556 0 0 1-1.075 1.43l-.007.004a3.555 3.555 0 0 1-.868.506c-.122.05-.22.082-.248.09v.001a4.757 4.757 0 0 1-.27.077l-.275.068c-.2.047-.467.108-.726.16l-.01.003a7.67 7.67 0 0 1-.991.147 4.53 4.53 0 0 1-1.544-.154c-.66-.191-1.982-.796-2.514-2.39-.472-1.413.052-2.56.257-2.948.252-.475.555-.815.737-1.003a6.29 6.29 0 0 1 1.151-.922Zm142.357-38.8a3.554 3.554 0 0 0 3.293 3.8c.6.042 1.505.031 2.342.02l.432-.004c1.062-.011 2.203-.014 3.275.045 1.015.055 1.786.157 2.287.285a3.556 3.556 0 0 0 6.275-3.097c-.725-2.521-3.107-3.382-4.112-3.68-1.301-.387-2.786-.538-4.063-.608-1.32-.072-2.659-.066-3.736-.055l-.502.005c-.888.01-1.415.016-1.692-.004a3.555 3.555 0 0 0-3.799 3.293Zm12.047 4.29c.004-.002-.026-.02-.103-.048.06.034.099.049.103.047Z" clip-rule="evenodd" style="fill:#700a4b;fill:color(display-p3 .4392 .0392 .2941);fill-opacity:1"/><path fill="#700A4B" fill-rule="evenodd" d="m217.889 13.614 6.927-1.602 1.077 4.657a3.554 3.554 0 1 1-6.927 1.602l-1.077-4.657Z" clip-rule="evenodd" style="fill:#700a4b;fill:color(display-p3 .4392 .0392 .2941);fill-opacity:1"/><path fill="#700A4B" fill-rule="evenodd" d="m224.721 12.168.042.313.011.075c.115.844.309 2.259.334 3.097a3.556 3.556 0 0 1-7.107.212c-.012-.388-.141-1.392-.282-2.422a43.928 43.928 0 0 1-.018-.128c-.052-.385-.108-.794-.134-1.04v-.003a4.971 4.971 0 0 1-.026-.399 3.694 3.694 0 0 1 .101-.93 3.558 3.558 0 0 1 6.722-.579l.002.003a3.94 3.94 0 0 1 .187.538c.031.11.057.222.079.313.073.32.102.638.089.95Zm-.081-.618.001.004c-.002-.019-.002-.022-.001-.004Zm8.537 16.29c2.448-.646 4.441-.959 6.021-.766a3.555 3.555 0 0 0 .861-7.058c-2.991-.365-6.082.26-8.695.949-1.156.304-2.31.649-3.376.967l-.485.145c-1.229.365-2.321.682-3.32.913a3.555 3.555 0 0 0 1.602 6.927c1.239-.287 2.525-.662 3.747-1.026l.501-.15c1.074-.32 2.108-.628 3.144-.902Z" clip-rule="evenodd" style="fill:#700a4b;fill:color(display-p3 .4392 .0392 .2941);fill-opacity:1"/><path fill="#700A4B" fill-rule="evenodd" d="M235.869 6.996a5.793 5.793 0 0 0-.942 1.174 3.555 3.555 0 0 0 .801 4.664c.045.499.078.993.114 1.529.024.36.049.74.08 1.151.091 1.203.227 2.56.554 3.972a3.554 3.554 0 1 0 6.927-1.602c-.204-.88-.308-1.811-.391-2.906-.021-.28-.041-.584-.063-.906a58.596 58.596 0 0 0-.223-2.692 26.35 26.35 0 0 1-.037-.376l-.002-.015c-.016-.165-.035-.372-.06-.585-.042-.363-.124-1.01-.322-1.627-.094-.29-.3-.86-.741-1.42-.487-.615-1.513-1.495-3.069-1.462-1.356.029-2.253.752-2.626 1.1Zm5.107 4.912-.01.015a.126.126 0 0 0 .01-.015Z" clip-rule="evenodd" style="fill:#700a4b;fill:color(display-p3 .4392 .0392 .2941);fill-opacity:1"/><path fill="#700A4B" fill-rule="evenodd" d="M239.247 15.676a3.554 3.554 0 0 0-2.662 4.265l.42 1.817a3.555 3.555 0 0 0 6.927-1.602l-.42-1.817a3.555 3.555 0 0 0-4.265-2.663Zm-8.16-4.076c2.368-.579 4.134-.725 5.419-.384a3.555 3.555 0 1 0 1.825-6.871c-3.089-.82-6.32-.29-8.931.348-1.311.32-2.606.706-3.765 1.051l-.094.028c-1.223.365-2.271.674-3.219.894a3.555 3.555 0 0 0 1.602 6.927c1.201-.278 2.466-.655 3.642-1.005l.027-.008c1.209-.36 2.357-.703 3.494-.98Z" clip-rule="evenodd" style="fill:#700a4b;fill:color(display-p3 .4392 .0392 .2941);fill-opacity:1"/><path fill="#700A4B" fill-rule="evenodd" d="M240.15 3.02a3.555 3.555 0 0 0-2.663 4.264c1.001 4.33 1.628 8.85 1.698 13.203a3.555 3.555 0 0 0 7.109-.115c-.079-4.934-.785-9.956-1.88-14.69a3.554 3.554 0 0 0-4.264-2.662Z" clip-rule="evenodd" style="fill:#700a4b;fill:color(display-p3 .4392 .0392 .2941);fill-opacity:1"/><path fill="#700A4B" fill-rule="evenodd" d="M224.647 26.228a3.555 3.555 0 0 0 4.029 3.007 732.955 732.955 0 0 1 14.782-1.99 3.554 3.554 0 1 0-.877-7.055 739.464 739.464 0 0 0-14.927 2.009 3.555 3.555 0 0 0-3.007 4.029Z" clip-rule="evenodd" style="fill:#700a4b;fill:color(display-p3 .4392 .0392 .2941);fill-opacity:1"/><path fill="#700A4B" fill-rule="evenodd" d="M218.241 12.738c-.172.873-.067 1.748.018 2.321.359 2.416.942 5.205 2.073 7.774a3.591 3.591 0 0 0 .872 2.49 3.618 3.618 0 0 0 2.94 1.245c.49-.027.948-.15 1.358-.345.157.009.356.026.6.056.687.084 1.425.223 2.292.386l.991.184c1.163.211 2.643.46 3.968.434 1.006-.02 3.779-.215 5.028-2.82.399-.83.48-1.668.503-2.16a11.382 11.382 0 0 0-.056-1.666c-.104-1.05-.32-2.19-.547-3.19a37.153 37.153 0 0 0-.714-2.698 14.086 14.086 0 0 0-.347-1.004 4.88 4.88 0 0 0-.328-.677l-.006-.01a3.588 3.588 0 0 0-2.476-1.722 3.55 3.55 0 0 0-2.892-1.444c-.712.006-1.387.02-2.035.034-2.02.044-3.773.081-5.522-.157a2.302 2.302 0 0 1-.265-.056l-.26-.061a.587.587 0 0 1-.02-.005c-.163-.042-1.135-.291-2.161-.062a3.89 3.89 0 0 0-2.125 1.279 4.1 4.1 0 0 0-.889 1.874Zm12.583 4.275a31.003 31.003 0 0 1 .729 2.994 36.14 36.14 0 0 1-.896-.154c-.239-.043-.497-.092-.767-.142-.924-.174-1.989-.375-2.925-.49a18.552 18.552 0 0 0-.448-.049c-.248-.67-.46-1.383-.644-2.13 1.438.05 2.852.017 4.122-.011l.829-.018Zm-5.566-3.288v.004-.004Zm8.221 6.427a.414.414 0 0 0-.114.016.373.373 0 0 0 .114-.016Zm-1.697 1.817Zm-6.68 4.256Zm-4.445-2.688Z" clip-rule="evenodd" style="fill:#700a4b;fill:color(display-p3 .4392 .0392 .2941);fill-opacity:1"/><path fill="#700A4B" fill-rule="evenodd" d="M233.287 12.588c-.315-.034-.995-.09-1.71.076a3.558 3.558 0 0 0-2.725 2.998c-.023.05-.045.1-.066.153-.155.469-.258 1.56-.17 2.16.187.574.76 1.498 1.101 1.845.696.618 1.434.778 1.594.813l.008.001a3.556 3.556 0 0 0 1.002.074 3.468 3.468 0 0 0 .54-.077l.276-.06c.2-.045.467-.108.723-.174l.009-.003c.17-.044.598-.154.956-.302a4.539 4.539 0 0 0 1.32-.817c.508-.461 1.43-1.585 1.209-3.252-.196-1.475-1.17-2.275-1.526-2.535a4.41 4.41 0 0 0-1.102-.577 6.288 6.288 0 0 0-1.439-.323Z" clip-rule="evenodd" style="fill:#700a4b;fill:color(display-p3 .4392 .0392 .2941);fill-opacity:1"/><path fill="#700A4B" fill-rule="evenodd" d="M230.365 13.264c-.315-.034-.994-.09-1.71.076a3.555 3.555 0 0 0-2.724 2.998c-.023.05-.046.1-.067.152-.155.47-.258 1.562-.17 2.161.188.574.76 1.498 1.101 1.845a3.551 3.551 0 0 0 1.594.812l.008.002a3.554 3.554 0 0 0 1.002.073 3.275 3.275 0 0 0 .54-.077 24.203 24.203 0 0 0 .999-.234l.009-.002c.17-.044.598-.154.956-.303a4.528 4.528 0 0 0 1.32-.816c.508-.462 1.431-1.585 1.209-3.252-.196-1.476-1.17-2.276-1.526-2.535a4.406 4.406 0 0 0-1.102-.578 6.277 6.277 0 0 0-1.439-.322Z" clip-rule="evenodd" style="fill:#700a4b;fill:color(display-p3 .4392 .0392 .2941);fill-opacity:1"/><path fill="#FF9CE8" d="M223.453 18.542c-.069-.296-1.012-2.941-.887-2.987.125-.197.052-.21.019-.341-.066-.287-.158-.578-.198-.869a8.402 8.402 0 0 1-.098-1.06c-.002-.293-.025-.68.067-.956.046-.14.044-.304.072-.45.033-.168.122-.273.187-.426.1-.232.235-.457.309-.697.176-.57.699-.773 1.078-1.169.264-.276.613-.381.966-.512.683-.252 1.383-.452 2.074-.693.71-.248 1.424-.472 2.131-.728.8-.29 1.687-.321 2.513-.512 1.024-.237 2.049-.215 3.088-.26.688-.03 1.391-.073 2.08.003.306.034.62.093.919.17.215.055.351.26.563.319.444.122 1 .427 1.231.833.207.362.419.8.518 1.227.071.308.187.598.258.903.065.282.217.518.283.8.148.643.492 1.198.748 1.801.263.62.334 1.397.485 2.053l.381 1.645c.14.606.036 1.214.177 1.825.127.547-.079 1.139.048 1.686.133.577.182 1.281.063 1.862a3.463 3.463 0 0 1-.66 1.375c-.268.324-.757.468-1.079.73-.164.135-.467.232-.672.279-.24.055-.402.16-.627.239-.252.088-.532.125-.792.185-.305.07-.59.233-.905.306l-3.896.9c-.333.078-.665.058-1.001.136-.334.078-.606.29-.967.31-.74.04-1.468.363-2.213.281-.559-.061-1.127.017-1.695-.09a1.837 1.837 0 0 1-.66-.269c-.2-.122-.447-.152-.626-.31-.498-.438-.992-.894-1.294-1.48-.219-.425-.342-.882-.547-1.307-.219-.455-.247-.977-.475-1.42-.243-.471-.259-1.047-.418-1.55-.188-.594-.407-1.173-.548-1.782Z" style="fill:#ff9ce8;fill:color(display-p3 1 .6118 .9098);fill-opacity:1"/><path fill="#700A4B" fill-rule="evenodd" d="M230.561 6.088c.314-.048.577-.088.845-.15.946-.22 1.918-.247 2.748-.271.197-.006.386-.012.564-.02l.207-.009c.61-.028 1.341-.061 2.063.019l-.136 1.228.136-1.228c.367.04.738.11 1.091.2.204.053.365.135.48.205.101.061.189.127.229.157h.001c.3.095.615.238.904.422.32.204.695.513.946.954l-1.074.611 1.074-.611c.228.4.509.96.648 1.56.023.101.056.206.104.362l.005.015c.044.14.103.327.149.527.005.021.016.055.077.2l.008.018c.05.12.141.335.198.582a3.5 3.5 0 0 0 .251.674l.121.255c.099.205.218.451.309.667.184.432.287.884.36 1.258.034.171.06.317.084.448.035.198.066.366.109.552l.38 1.644c.098.424.11.833.118 1.117l.001.035c.01.322.02.506.058.673.106.458.074.906.056 1.165a7.108 7.108 0 0 1-.003.042c-.022.32-.02.417-.005.48.16.694.235 1.585.07 2.388l-1.211-.248 1.211.248a4.693 4.693 0 0 1-.918 1.914c-.296.357-.671.57-.87.68l-.167.093a1.54 1.54 0 0 0-.214.128 2.407 2.407 0 0 1-.658.367c-.186.072-.37.124-.517.158a.652.652 0 0 0-.104.04l-.036.015a4.638 4.638 0 0 1-.357.146c-.264.092-.633.165-.82.202l-.101.021c-.048.011-.11.033-.275.098l-.019.007a4.296 4.296 0 0 1-.611.2l-3.896.902a4.591 4.591 0 0 1-.649.092l-.022.002a2.484 2.484 0 0 0-.331.041s-.015.004-.062.022l-.097.041a6.318 6.318 0 0 1-.113.048c-.18.076-.502.206-.906.228a4.48 4.48 0 0 0-.683.113l-.239.05c-.382.079-.913.177-1.492.113a5.844 5.844 0 0 0-.588-.02h-.128a5.914 5.914 0 0 1-1.072-.082 3.041 3.041 0 0 1-1.06-.42l-.004-.001a6.27 6.27 0 0 1-.137-.053h-.001a2.192 2.192 0 0 1-.674-.394l.817-.927-.817.927c-.486-.428-1.153-1.022-1.575-1.841l1.098-.567-1.098.566a7.267 7.267 0 0 1-.336-.78l-.011-.028a6.676 6.676 0 0 0-.215-.527 4.773 4.773 0 0 1-.306-.9l-.011-.042c-.067-.26-.102-.369-.143-.448a4.112 4.112 0 0 1-.353-1.083l-.048-.239c-.036-.183-.059-.3-.097-.423-.043-.134-.093-.283-.146-.441a16.223 16.223 0 0 1-.427-1.427s-.009-.034-.038-.123a20.879 20.879 0 0 0-.117-.36l-.079-.238c-.079-.238-.169-.507-.254-.77a25.16 25.16 0 0 1-.31-1.007 4.888 4.888 0 0 1-.102-.426 1.772 1.772 0 0 1-.031-.308c0-.044.001-.138.024-.257a7.631 7.631 0 0 1-.18-.827l-.002-.01a9.57 9.57 0 0 1-.108-1.21l-.001-.09a9.233 9.233 0 0 1 0-.442 3 3 0 0 1 .117-.778l.002-.017.006-.05.007-.07a2.026 2.026 0 0 1 .266-.825l.022-.04.009-.018c.05-.115.113-.242.155-.329l.03-.062c.05-.103.069-.151.077-.179.187-.605.56-.984.84-1.224.093-.08.204-.167.283-.228l.063-.05c.093-.074.144-.12.18-.157.455-.476 1.054-.685 1.344-.786l.087-.031c.368-.136.736-.256 1.083-.368l.137-.044c.303-.098.59-.19.875-.29.342-.119.651-.222.952-.322.387-.13.759-.253 1.165-.4.516-.187 1.034-.282 1.473-.352l.338-.052Zm-9.083 4.877Zm-.01 4.798.004.01-.001-.005a.055.055 0 0 1-.003-.005Zm17.031-6.932a.606.606 0 0 0-.133-.105 1.402 1.402 0 0 0-.359-.16 1.798 1.798 0 0 1-.468-.207 2.668 2.668 0 0 1-.201-.138 5.41 5.41 0 0 0-.623-.108c-.518-.057-1.052-.033-1.692-.005l-.198.009c-.252.01-.49.018-.717.025-.8.025-1.461.046-2.145.204-.368.085-.759.144-1.092.195l-.258.04c-.412.066-.737.132-1.021.234-.407.148-.857.298-1.288.443-.302.1-.594.199-.856.29-.316.11-.635.213-.936.31l-.133.043c-.346.111-.67.217-.985.333l-.127.047a8.274 8.274 0 0 0-.128.047 2.477 2.477 0 0 0-.164.067.416.416 0 0 0-.082.046c-.153.16-.309.289-.427.383l-.124.098c-.061.047-.103.08-.153.123a.73.73 0 0 0-.089.086 3.873 3.873 0 0 1-.209.513l-.064.132c-.033.067-.055.11-.078.165l-1.136-.488 1.136.488a2.877 2.877 0 0 1-.117.236v.004l-.001.005-.006.06c-.01.086-.031.264-.094.457l-.002.014a1.216 1.216 0 0 0-.008.123c-.002.058-.002.12-.002.196l.002.078.002.165c.001.245.039.547.087.9.017.13.042.221.079.36.022.084.048.185.081.322a1.378 1.378 0 0 1 .066.826c.065.23.164.544.274.886.083.255.169.512.247.748l.082.247.005.016c.082.248.178.537.211.68.086.37.196.7.326 1.088.061.183.127.38.196.6.086.27.145.574.185.783l.025.128c.051.25.09.37.129.445l-1.099.566 1.099-.566c.181.35.274.712.333.94l.005.022c.07.27.104.39.151.487.12.248.216.502.291.7l.02.052c.085.223.148.382.221.525l-.749.386.749-.386c.175.338.476.644.949 1.064l.04.015.036.014.114.045c.085.035.203.088.329.165l-.64 1.044.64-1.044c.079.049.123.07.151.083.025.01.05.018.09.026l-.227 1.215.227-1.215c.166.03.353.039.63.04h.105c.238 0 .555.001.868.035.166.019.371-.004.724-.077.048-.01.1-.02.156-.033.295-.063.705-.152 1.111-.176.012-.004.043-.014.101-.039l.045-.019c.056-.024.143-.062.21-.088a2.88 2.88 0 0 1 .419-.134c.255-.059.498-.08.653-.093l.021-.002c.18-.016.26-.025.328-.04l3.896-.901c.054-.013.121-.037.283-.1l.023-.01c.135-.053.356-.14.599-.196a8.6 8.6 0 0 1 .395-.082 1.403 1.403 0 0 0 .387-.115l.103-.046a3 3 0 0 1 .534-.181 1.497 1.497 0 0 0 .213-.068 3.4 3.4 0 0 1 .382-.254c.075-.044.17-.096.241-.135l.072-.04c.125-.07.17-.103.179-.109a2.28 2.28 0 0 0 .392-.822c.073-.36.049-.877-.057-1.335-.106-.459-.074-.907-.056-1.165l.003-.043c.022-.32.02-.416.005-.48a5.578 5.578 0 0 1-.119-1.122l-.001-.032c-.01-.324-.019-.505-.057-.67l-.381-1.645c-.054-.233-.105-.516-.15-.76a16.711 16.711 0 0 0-.059-.32 4.031 4.031 0 0 0-.21-.768 9.025 9.025 0 0 0-.218-.47 24.68 24.68 0 0 1-.18-.379 5.923 5.923 0 0 1-.416-1.156 1.524 1.524 0 0 0-.085-.22 3.5 3.5 0 0 1-.198-.58 5.094 5.094 0 0 0-.104-.36l-.005-.014a6.885 6.885 0 0 1-.149-.53c-.058-.25-.199-.56-.38-.881Zm-14.719 6.633v.003Zm-.031-.655.002.006-.002-.005Zm.345-3.67.004-.006-.004.006Z" clip-rule="evenodd" style="fill:#700a4b;fill:color(display-p3 .4392 .0392 .2941);fill-opacity:1"/><path fill="#FF9CE8" d="M85.644 50.412c-.068-.296-.382-3.087-.515-3.073-.198-.122-.139-.166-.166-.298-.067-.287-.111-.589-.204-.868a8.573 8.573 0 0 0-.377-.995c-.127-.265-.276-.623-.48-.83-.103-.106-.173-.254-.263-.373-.103-.136-.229-.192-.354-.3-.192-.164-.412-.308-.584-.49-.408-.435-.967-.388-1.482-.578-.358-.132-.718-.074-1.093-.035-.724.073-1.44.2-2.167.287-.747.089-1.487.201-2.235.281-.845.091-1.656.453-2.482.644-1.024.237-1.935.707-2.888 1.122-.632.276-1.283.545-1.867.916a6.72 6.72 0 0 0-.753.556c-.168.144-.2.388-.365.534-.345.305-.711.823-.74 1.289-.027.416-.026.903.073 1.33.071.308.094.619.165.925.065.281.032.56.097.843.149.642.084 1.292.119 1.946.035.673.313 1.401.465 2.058l.38 1.644c.14.607.5 1.107.642 1.718.127.547.571.989.698 1.536.133.576.398 1.231.76 1.701.282.366.767.75 1.197.945.383.173.885.088 1.29.183.207.048.52.002.726-.045.24-.056.432-.033.668-.061.265-.032.533-.12.793-.18.305-.071.632-.05.947-.123l3.896-.902c.334-.077.623-.24.96-.318.334-.077.67-.005 1.004-.146.682-.29 1.478-.318 2.112-.719.475-.3 1.02-.48 1.483-.824a1.83 1.83 0 0 0 .475-.532c.126-.198.335-.333.427-.553.254-.613.498-1.24.512-1.9.01-.476-.08-.941-.082-1.413-.003-.505-.208-.986-.197-1.484.012-.53-.227-1.055-.305-1.576-.092-.617-.149-1.233-.29-1.842Z" style="fill:#ff9ce8;fill:color(display-p3 1 .6118 .9098);fill-opacity:1"/><path fill="#700A4B" fill-rule="evenodd" d="M73.789 42.342c-.304.095-.558.174-.825.236-.947.219-1.832.62-2.589.963a39.98 39.98 0 0 1-.705.313c-.56.243-1.231.533-1.845.922l.662 1.044-.662-1.044a7.954 7.954 0 0 0-.892.66c-.16.136-.269.281-.342.394-.064.1-.114.197-.137.242a3.895 3.895 0 0 0-.628.777c-.197.323-.399.766-.43 1.272l1.233.078-1.234-.078c-.029.459-.035 1.086.103 1.687.024.1.04.208.065.37l.003.016c.022.145.051.339.097.538.005.022.01.057.019.213l.001.02c.007.131.02.364.077.61.046.198.065.422.07.716l.004.282c0 .228.002.502.015.736.025.468.13.92.229 1.288.045.169.085.31.122.44.054.193.101.357.144.542l.38 1.645c.098.423.267.796.384 1.055l.015.032c.132.294.204.463.243.63.106.459.331.847.462 1.071l.02.037c.161.278.201.366.216.429.16.694.485 1.527.985 2.176l.98-.754-.98.754a4.699 4.699 0 0 0 1.666 1.317c.422.191.852.217 1.08.23l.19.009c.153.008.2.01.249.021.29.068.573.057.752.042.2-.018.387-.052.534-.086a.618.618 0 0 1 .112-.01l.038-.002c.082-.002.236-.008.385-.026a6.66 6.66 0 0 0 .825-.178l.1-.025a2.23 2.23 0 0 1 .29-.033l.02-.002c.149-.012.389-.03.638-.088l3.896-.901c.253-.059.479-.146.624-.202l.02-.008c.168-.065.245-.092.315-.108 0 0 .016-.004.066-.008l.105-.006.122-.006c.196-.01.542-.035.915-.193.185-.078.373-.126.662-.198l.238-.06c.377-.098.898-.243 1.39-.554.145-.091.297-.166.52-.276l.114-.056c.259-.129.598-.3.927-.545.36-.267.583-.554.768-.842l.003-.003.04-.044.06-.065c.09-.097.299-.322.434-.649l-1.141-.474 1.141.474c.249-.598.587-1.425.607-2.346l-1.236-.027 1.236.027a7.417 7.417 0 0 0-.042-.85l-.002-.03c-.022-.236-.038-.403-.038-.567-.002-.372-.074-.72-.12-.943l-.009-.043c-.053-.262-.07-.375-.068-.465.01-.446-.086-.848-.158-1.127l-.062-.236c-.048-.18-.079-.295-.098-.423-.021-.14-.042-.295-.064-.46-.06-.455-.13-.986-.244-1.477l.001.007-.02-.127a35.952 35.952 0 0 1-.052-.375l-.033-.249-.11-.804a26.326 26.326 0 0 0-.164-1.04 4.999 4.999 0 0 0-.095-.428 1.784 1.784 0 0 0-.108-.29 1.337 1.337 0 0 0-.133-.22 7.837 7.837 0 0 0-.202-.823l-.003-.008a9.64 9.64 0 0 0-.434-1.136l-.039-.082c-.05-.105-.124-.264-.194-.396a2.983 2.983 0 0 0-.446-.647 1.796 1.796 0 0 1-.01-.015l-.026-.042a5.23 5.23 0 0 0-.154-.227 2.01 2.01 0 0 0-.485-.457l-.038-.028-.016-.011a6.397 6.397 0 0 0-.283-.227 8.117 8.117 0 0 1-.055-.043 1.417 1.417 0 0 1-.148-.127c-.433-.462-.934-.638-1.291-.731a8.658 8.658 0 0 0-.434-.098 1.838 1.838 0 0 1-.23-.062c-.618-.228-1.247-.153-1.553-.116l-.092.01c-.39.04-.773.093-1.134.145l-.143.02c-.315.046-.612.09-.912.125-.36.043-.683.086-.997.128-.405.054-.794.105-1.224.152-.544.058-1.052.201-1.477.33l-.326.102Zm10.302.394Zm2.115 4.307a.23.23 0 0 1 0 .005v-.005ZM67.86 48.291a.775.775 0 0 1 .073-.152c.072-.117.17-.229.253-.302.155-.137.26-.28.33-.39.052-.083.095-.165.12-.213.164-.134.338-.26.511-.37.44-.28.93-.492 1.519-.748l.181-.079c.232-.1.449-.198.655-.292.73-.329 1.333-.6 2.018-.759.367-.085.745-.203 1.066-.304l.25-.077c.398-.122.72-.205 1.02-.238.43-.046.9-.108 1.351-.168.316-.042.621-.082.897-.115.333-.04.663-.087.976-.132l.139-.02c.36-.052.697-.099 1.031-.133l.135-.014c.045-.005.084-.01.136-.014a2.31 2.31 0 0 1 .176-.011.41.41 0 0 1 .094.005c.209.077.405.124.552.156l.154.034c.075.016.128.027.192.043a.731.731 0 0 1 .117.038c.15.158.304.283.414.37l.115.09c.06.045.098.075.143.114l.806-.937-.806.937a2.643 2.643 0 0 0 .208.161l.002.003.003.005c.01.014.02.033.033.051a2.342 2.342 0 0 0 .292.381c.015.022.035.056.062.107a4.547 4.547 0 0 1 .12.245l.07.15c.107.221.206.509.317.846.041.125.06.218.088.36.017.084.037.186.068.323a1.377 1.377 0 0 0 .303.772c.043.235.092.56.142.916.038.266.074.535.108.781l.034.258.003.017c.035.258.076.56.109.702.085.372.131.716.185 1.121.025.192.052.398.087.626.041.28.122.579.178.785l.033.126c.064.246.082.37.08.455l1.235.027-1.235-.027c-.009.395.066.76.113.991l.005.022c.055.273.078.396.078.504.001.276.026.547.046.757l.005.055c.022.238.035.41.032.57l.842.017-.842-.018c-.009.381-.145.788-.386 1.373a8.13 8.13 0 0 1-.028.03l-.027.03a2.345 2.345 0 0 0-.305.384l1.033.656-1.033-.657c-.05.078-.08.117-.1.14a.412.412 0 0 1-.07.063l.737.992-.737-.992c-.135.101-.3.19-.548.313l-.094.046a8.162 8.162 0 0 0-.764.413c-.141.089-.335.159-.685.249l-.155.038c-.293.073-.7.174-1.075.33a1.355 1.355 0 0 1-.108.01c-.01 0-.027 0-.048.002a9.05 9.05 0 0 0-.228.013 2.89 2.89 0 0 0-.436.064 4.609 4.609 0 0 0-.627.202l-.02.008a2.481 2.481 0 0 1-.312.108l-3.896.9a2.23 2.23 0 0 1-.298.035l-.024.002c-.145.011-.383.03-.625.086-.19.044-.305.076-.391.1-.107.029-.168.046-.27.058-.04.005-.066.006-.13.008l-.111.005c-.134.006-.33.018-.56.071a1.472 1.472 0 0 1-.22.033 3.398 3.398 0 0 0-.456-.06 11.459 11.459 0 0 0-.357-.02 1.77 1.77 0 0 1-.21-.02 2.271 2.271 0 0 1-.712-.566c-.224-.29-.43-.767-.535-1.225-.106-.459-.331-.847-.462-1.071l-.02-.037c-.161-.278-.201-.365-.216-.428a5.644 5.644 0 0 0-.399-1.091c-.133-.295-.205-.462-.243-.627l-.38-1.645c-.054-.233-.132-.51-.2-.75l-.086-.312a4 4 0 0 1-.149-.783c-.01-.184-.01-.338-.01-.518-.001-.121-.002-.255-.005-.419a5.904 5.904 0 0 0-.133-1.221 1.501 1.501 0 0 1-.02-.236 3.54 3.54 0 0 0-.078-.608c-.023-.1-.04-.206-.064-.369l-.002-.014c-.023-.146-.052-.34-.099-.541-.057-.25-.068-.592-.045-.96Zm16.137-.502c-.002-.006-.002-.004 0 .003Zm-.26-.602Zm-1.921-3.146-.006-.003a.024.024 0 0 0 .005.003Zm174.535 24.3a3.554 3.554 0 0 1-1.29 4.86c-.521.301-1.339.689-2.095 1.046l-.391.186c-.959.456-1.985.955-2.922 1.478-.888.495-1.536.925-1.93 1.26a3.556 3.556 0 0 1-6.998-.027c-.456-2.583 1.306-4.403 2.079-5.112.999-.918 2.267-1.707 3.384-2.33 1.154-.644 2.36-1.227 3.332-1.69l.454-.215c.802-.381 1.278-.607 1.518-.747a3.555 3.555 0 0 1 4.859 1.291Zm-8.941 9.143c-.004 0 .015-.029.072-.088a.35.35 0 0 1-.072.088Z" clip-rule="evenodd" style="fill:#700a4b;fill:color(display-p3 .4392 .0392 .2941);fill-opacity:1"/><path fill="#700A4B" fill-rule="evenodd" d="m259.06 71.062-6.927 1.602 1.077 4.657a3.554 3.554 0 1 0 6.927-1.602l-1.077-4.657Z" clip-rule="evenodd" style="fill:#700a4b;fill:color(display-p3 .4392 .0392 .2941);fill-opacity:1"/><path fill="#700A4B" fill-rule="evenodd" d="M252.285 72.759a25.008 25.008 0 0 0 .123.373c.266.808.714 2.164 1.059 2.928a3.555 3.555 0 0 0 6.479-2.93c-.161-.354-.485-1.313-.811-2.3l-.04-.122c-.122-.37-.251-.762-.336-.993l-.001-.003a4.88 4.88 0 0 0-.152-.37 3.692 3.692 0 0 0-.119-.234 3.553 3.553 0 0 0-3.541-1.82 3.557 3.557 0 0 0-3.133 3.694v.004c.006.131.018.237.025.295.015.12.033.218.042.27.022.112.047.224.068.316.074.319.188.617.337.892Zm-.199-.59.001.003c-.007-.017-.008-.02-.001-.004Zm-.519 18.385c-2.482.495-4.41 1.09-5.745 1.956a3.555 3.555 0 0 1-3.873-5.963c2.527-1.64 5.579-2.438 8.229-2.965 1.172-.234 2.36-.431 3.458-.613l.499-.083c1.265-.211 2.385-.407 3.384-.638a3.556 3.556 0 0 1 1.602 6.928c-1.239.286-2.559.513-3.817.723l-.516.086c-1.105.183-2.17.36-3.221.57Z" clip-rule="evenodd" style="fill:#700a4b;fill:color(display-p3 .4392 .0392 .2941);fill-opacity:1"/><path fill="#700A4B" fill-rule="evenodd" d="M239.994 73.01c.554.17 1.023.43 1.361.641a3.557 3.557 0 0 1 1.329 4.542c.178.468.365.927.568 1.424.137.334.281.686.434 1.07.446 1.12.92 2.4 1.247 3.811a3.555 3.555 0 0 1-6.928 1.602c-.203-.88-.518-1.762-.925-2.782-.103-.26-.219-.544-.341-.842-.317-.778-.677-1.66-.981-2.516a17.425 17.425 0 0 0-.132-.355l-.005-.014c-.058-.155-.131-.35-.203-.551-.122-.345-.332-.963-.424-1.604a4.506 4.506 0 0 1 .042-1.6c.167-.768.702-2.009 2.115-2.663 1.231-.569 2.355-.313 2.843-.163Zm-2.432 6.656Z" clip-rule="evenodd" style="fill:#700a4b;fill:color(display-p3 .4392 .0392 .2941);fill-opacity:1"/><path fill="#700A4B" fill-rule="evenodd" d="M240.772 82.289a3.556 3.556 0 0 1 4.265 2.662l.42 1.818a3.555 3.555 0 0 1-6.927 1.602l-.42-1.818a3.554 3.554 0 0 1 2.662-4.264Zm5.542-7.24c-2.382.52-4.033 1.164-5.037 2.034a3.555 3.555 0 0 1-4.657-5.372c2.415-2.093 5.551-3.035 8.177-3.609 1.318-.288 2.651-.51 3.844-.708l.097-.016c1.259-.21 2.337-.392 3.284-.61a3.556 3.556 0 0 1 1.602 6.927c-1.201.277-2.503.494-3.714.696l-.027.004c-1.245.207-2.427.404-3.569.654Z" clip-rule="evenodd" style="fill:#700a4b;fill:color(display-p3 .4392 .0392 .2941);fill-opacity:1"/><path fill="#700A4B" fill-rule="evenodd" d="M234.409 71.316a3.554 3.554 0 0 1 4.264 2.663c1.002 4.33 2.423 8.665 4.271 12.607a3.555 3.555 0 0 1-6.438 3.018c-2.094-4.468-3.665-9.29-4.76-14.023a3.555 3.555 0 0 1 2.663-4.265Z" clip-rule="evenodd" style="fill:#700a4b;fill:color(display-p3 .4392 .0392 .2941);fill-opacity:1"/><path fill="#700A4B" fill-rule="evenodd" d="M258.521 85.363a3.554 3.554 0 0 1-2.299 4.47 733.762 733.762 0 0 0-14.155 4.704 3.555 3.555 0 1 1-2.309-6.725 738.6 738.6 0 0 1 14.292-4.748c1.87-.6 3.872.43 4.471 2.299Z" clip-rule="evenodd" style="fill:#700a4b;fill:color(display-p3 .4392 .0392 .2941);fill-opacity:1"/><path fill="#700A4B" fill-rule="evenodd" d="M258.353 70.43c.537.708.828 1.54 1.003 2.092.738 2.328 1.439 5.09 1.551 7.895a3.597 3.597 0 0 1 .31 2.62 3.62 3.62 0 0 1-2.096 2.41c-.452.19-.917.28-1.371.286a9.4 9.4 0 0 0-.515.314c-.58.377-1.183.825-1.89 1.352-.255.19-.523.39-.809.6-.952.701-2.173 1.574-3.375 2.133-.912.425-3.489 1.465-5.755-.325-.724-.572-1.163-1.29-1.401-1.721a11.467 11.467 0 0 1-.681-1.522c-.367-.988-.673-2.107-.909-3.106a37.215 37.215 0 0 1-.543-2.738c-.055-.36-.105-.733-.129-1.053a4.942 4.942 0 0 1-.001-.764 3.594 3.594 0 0 1 1.469-2.634 3.548 3.548 0 0 1 1.964-2.568c.642-.307 1.255-.59 1.843-.862 1.834-.848 3.425-1.584 4.892-2.566.062-.042.097-.07.214-.167l.207-.169.015-.013c.129-.11.893-.76 1.915-1.005a3.891 3.891 0 0 1 2.47.216 4.09 4.09 0 0 1 1.622 1.294Zm-9.429 9.364a31.922 31.922 0 0 0 .66 3.01c.225-.157.471-.334.738-.53l.626-.466c.754-.562 1.623-1.21 2.414-1.724.123-.08.25-.16.38-.24a19.8 19.8 0 0 0-.356-2.196c-1.271.675-2.555 1.267-3.709 1.798l-.753.348Zm3.558-5.397.002.003c-.004-.008-.004-.009-.002-.003Zm-4.565 9.383a.423.423 0 0 1 .11-.035c-.078.031-.112.04-.11.035Zm2.323.888Zm7.871.89a.076.076 0 0 1-.02.008.12.12 0 0 1 .02-.007Zm2.813-4.366-.001-.02.001.02Z" clip-rule="evenodd" style="fill:#700a4b;fill:color(display-p3 .4392 .0392 .2941);fill-opacity:1"/><path fill="#700A4B" fill-rule="evenodd" d="M244.771 76.897c.268-.169.855-.517 1.57-.682a3.556 3.556 0 0 1 3.764 1.498c.043.034.085.07.127.107.345.354.917 1.29 1.102 1.867.083.598-.026 1.68-.18 2.141-.354.86-.947 1.328-1.075 1.43l-.007.005a3.565 3.565 0 0 1-.868.506c-.122.05-.221.081-.248.09h-.001a3.364 3.364 0 0 1-.27.078 24.27 24.27 0 0 1-1 .228l-.009.002c-.173.035-.606.123-.992.147-.318.02-.898.033-1.544-.154-.659-.191-1.982-.796-2.514-2.39-.472-1.412.052-2.559.257-2.948.252-.475.555-.815.737-1.003a6.29 6.29 0 0 1 1.151-.922Z" clip-rule="evenodd" style="fill:#700a4b;fill:color(display-p3 .4392 .0392 .2941);fill-opacity:1"/><path fill="#700A4B" fill-rule="evenodd" d="M247.693 76.221c.268-.169.854-.516 1.57-.682a3.556 3.556 0 0 1 3.764 1.498c.042.034.085.07.127.107.345.354.917 1.29 1.101 1.867.084.598-.025 1.68-.179 2.141a3.55 3.55 0 0 1-1.076 1.43l-.006.005a3.565 3.565 0 0 1-.868.506c-.122.05-.221.081-.248.09h-.001a4.98 4.98 0 0 1-.27.077 24.342 24.342 0 0 1-1 .228l-.01.003a7.665 7.665 0 0 1-.991.148c-.318.02-.898.032-1.545-.155-.658-.191-1.981-.795-2.513-2.39-.472-1.412.052-2.559.257-2.948.252-.475.555-.815.737-1.002.383-.397.81-.708 1.151-.923ZM77.948 109.598a3.555 3.555 0 0 0 3.293 3.799c.6.042 1.505.031 2.342.021l.433-.005c1.062-.011 2.202-.014 3.274.045 1.015.055 1.786.157 2.287.285a3.557 3.557 0 0 0 6.275-3.097c-.724-2.521-3.106-3.382-4.111-3.68-1.302-.387-2.787-.538-4.064-.608-1.32-.072-2.659-.066-3.736-.055l-.502.006c-.888.01-1.415.015-1.692-.004a3.554 3.554 0 0 0-3.799 3.293Zm12.047 4.288c.004-.001-.026-.019-.103-.047.06.035.099.049.103.047Z" clip-rule="evenodd" style="fill:#700a4b;fill:color(display-p3 .4392 .0392 .2941);fill-opacity:1"/><path fill="#700A4B" fill-rule="evenodd" d="m76.71 113.231 6.927-1.602 1.077 4.657a3.554 3.554 0 1 1-6.927 1.602l-1.077-4.657Z" clip-rule="evenodd" style="fill:#700a4b;fill:color(display-p3 .4392 .0392 .2941);fill-opacity:1"/><path fill="#700A4B" fill-rule="evenodd" d="m83.541 111.785.043.313.01.076c.116.843.309 2.258.334 3.096a3.555 3.555 0 0 1-7.107.213c-.011-.389-.141-1.393-.282-2.423l-.017-.128a37.31 37.31 0 0 1-.134-1.04v-.003a3.831 3.831 0 0 1-.022-.662 3.612 3.612 0 0 1 .447-1.563 3.557 3.557 0 0 1 6.372.317l.001.004a3.65 3.65 0 0 1 .188.537c.03.11.057.222.078.314.074.318.102.637.09.949Zm-.08-.618v.004c-.001-.019-.002-.022 0-.004Zm8.537 16.29c2.447-.646 4.44-.959 6.02-.766a3.555 3.555 0 0 0 .862-7.057c-2.991-.366-6.083.258-8.696.948-1.156.305-2.31.649-3.376.967l-.484.145c-1.23.366-2.322.682-3.32.913a3.555 3.555 0 0 0 1.601 6.927c1.24-.286 2.525-.662 3.747-1.026l.502-.149a99.375 99.375 0 0 1 3.144-.902Z" clip-rule="evenodd" style="fill:#700a4b;fill:color(display-p3 .4392 .0392 .2941);fill-opacity:1"/><path fill="#700A4B" fill-rule="evenodd" d="M94.693 106.613a5.83 5.83 0 0 0-.942 1.174 3.555 3.555 0 0 0 .801 4.664c.045.499.078.993.114 1.529.024.361.05.74.08 1.151.092 1.203.227 2.561.554 3.973a3.555 3.555 0 0 0 6.927-1.602c-.204-.881-.308-1.812-.391-2.906-.021-.28-.041-.585-.063-.906-.056-.839-.119-1.789-.223-2.692l-.037-.377-.002-.015a23.164 23.164 0 0 0-.06-.584c-.041-.363-.123-1.011-.322-1.627a4.521 4.521 0 0 0-.741-1.42c-.487-.616-1.513-1.496-3.07-1.463-1.354.029-2.252.752-2.625 1.101Zm5.107 4.913Z" clip-rule="evenodd" style="fill:#700a4b;fill:color(display-p3 .4392 .0392 .2941);fill-opacity:1"/><path fill="#700A4B" fill-rule="evenodd" d="M98.068 115.293a3.556 3.556 0 0 0-2.663 4.265l.42 1.817a3.555 3.555 0 0 0 6.928-1.602l-.421-1.817a3.555 3.555 0 0 0-4.264-2.663Zm-8.158-4.076c2.37-.578 4.135-.725 5.42-.383a3.555 3.555 0 0 0 1.825-6.872c-3.088-.821-6.32-.29-8.931.348-1.311.32-2.606.706-3.765 1.051l-.094.028c-1.223.365-2.271.675-3.219.894a3.554 3.554 0 1 0 1.602 6.927c1.201-.278 2.466-.655 3.643-1.005l.026-.008c1.21-.36 2.358-.703 3.494-.98Z" clip-rule="evenodd" style="fill:#700a4b;fill:color(display-p3 .4392 .0392 .2941);fill-opacity:1"/><path fill="#700A4B" fill-rule="evenodd" d="M98.97 102.641a3.555 3.555 0 0 0-2.663 4.264c1.002 4.33 1.628 8.849 1.699 13.203a3.555 3.555 0 1 0 7.109-.115c-.08-4.934-.786-9.956-1.88-14.69a3.555 3.555 0 0 0-4.265-2.662Z" clip-rule="evenodd" style="fill:#700a4b;fill:color(display-p3 .4392 .0392 .2941);fill-opacity:1"/><path fill="#700A4B" fill-rule="evenodd" d="M83.471 125.845a3.555 3.555 0 0 0 4.029 3.007 738.266 738.266 0 0 1 14.783-1.989 3.556 3.556 0 0 0-.878-7.056 742.24 742.24 0 0 0-14.926 2.009 3.555 3.555 0 0 0-3.008 4.029Z" clip-rule="evenodd" style="fill:#700a4b;fill:color(display-p3 .4392 .0392 .2941);fill-opacity:1"/><path fill="#700A4B" fill-rule="evenodd" d="M77.065 112.356c-.171.872-.067 1.747.018 2.32.359 2.416.942 5.206 2.073 7.774a3.605 3.605 0 0 0 .872 2.491 3.62 3.62 0 0 0 2.94 1.244c.49-.027.948-.151 1.358-.344.158.008.356.025.6.055.688.084 1.426.223 2.292.386l.991.184c1.163.211 2.643.46 3.968.434 1.007-.019 3.779-.215 5.028-2.819.4-.832.48-1.669.504-2.161a11.477 11.477 0 0 0-.057-1.666c-.104-1.049-.32-2.189-.546-3.19a37.17 37.17 0 0 0-.715-2.698 13.823 13.823 0 0 0-.347-1.004 4.958 4.958 0 0 0-.333-.686 3.697 3.697 0 0 0-.855-.987 3.585 3.585 0 0 0-1.622-.735 3.55 3.55 0 0 0-2.892-1.445c-.712.006-1.387.021-2.035.035-2.02.043-3.772.08-5.522-.158a2.311 2.311 0 0 1-.265-.056l-.26-.061-.02-.005c-.163-.042-1.135-.291-2.161-.062a3.893 3.893 0 0 0-2.125 1.279 4.1 4.1 0 0 0-.89 1.875Zm12.583 4.274a31.068 31.068 0 0 1 .729 2.994c-.271-.043-.57-.094-.896-.153l-.766-.143c-.925-.174-1.99-.375-2.926-.489a17.874 17.874 0 0 0-.448-.05 19.657 19.657 0 0 1-.643-2.129c1.437.048 2.851.017 4.121-.012l.83-.018Zm-5.566-3.288v.004-.004Zm8.221 6.427a.46.46 0 0 0-.114.016c.084-.006.118-.013.114-.016Zm-1.697 1.817Zm-6.68 4.256.02-.002a.27.27 0 0 0-.02.002Zm-4.445-2.687-.008-.02.008.02Z" clip-rule="evenodd" style="fill:#700a4b;fill:color(display-p3 .4392 .0392 .2941);fill-opacity:1"/><path fill="#700A4B" fill-rule="evenodd" d="M92.107 112.205c-.315-.034-.994-.089-1.71.076a3.557 3.557 0 0 0-2.724 2.998 3.53 3.53 0 0 0-.067.153c-.155.469-.258 1.561-.17 2.16.188.574.76 1.499 1.101 1.846.696.617 1.434.777 1.594.812l.008.001a3.552 3.552 0 0 0 1.002.074c.132-.009.234-.024.263-.028l.103-.016c.075-.013.143-.027.174-.033.08-.016.178-.038.277-.06.199-.045.466-.108.722-.174l.01-.003a7.51 7.51 0 0 0 .955-.302 4.54 4.54 0 0 0 1.32-.817c.508-.461 1.43-1.585 1.21-3.251-.197-1.476-1.17-2.276-1.526-2.535a4.426 4.426 0 0 0-1.102-.578 6.26 6.26 0 0 0-1.44-.323Z" clip-rule="evenodd" style="fill:#700a4b;fill:color(display-p3 .4392 .0392 .2941);fill-opacity:1"/><path fill="#700A4B" fill-rule="evenodd" d="M89.185 112.881c-.315-.034-.994-.09-1.71.076a3.556 3.556 0 0 0-2.724 2.998c-.023.05-.045.1-.067.153-.155.469-.258 1.561-.17 2.16.188.574.76 1.498 1.102 1.845.695.618 1.433.778 1.593.813l.008.001c.265.058.478.072.577.077.209.011.371 0 .425-.003.132-.009.235-.024.263-.028l.103-.016c.075-.013.143-.027.174-.033l.277-.06c.2-.045.467-.108.722-.174l.01-.003c.17-.044.598-.154.956-.303.294-.121.82-.364 1.319-.816.508-.461 1.43-1.585 1.21-3.252-.197-1.475-1.17-2.276-1.526-2.535a4.415 4.415 0 0 0-1.102-.577 6.26 6.26 0 0 0-1.44-.323Z" clip-rule="evenodd" style="fill:#700a4b;fill:color(display-p3 .4392 .0392 .2941);fill-opacity:1"/><path fill="#FF9CE8" d="M82.218 117.917c-.068-.296-1.011-2.941-.886-2.987.125-.197.052-.21.019-.341-.066-.287-.159-.578-.198-.869a8.575 8.575 0 0 1-.099-1.06c-.001-.293-.024-.68.067-.956.047-.141.045-.304.073-.45.032-.168.121-.273.187-.426.1-.232.235-.457.309-.697.176-.57.699-.773 1.078-1.169.264-.276.613-.382.966-.512.683-.252 1.383-.452 2.074-.693.71-.248 1.424-.472 2.13-.728.8-.29 1.688-.321 2.514-.512 1.024-.237 2.049-.215 3.087-.26.689-.029 1.392-.073 2.08.003.307.034.62.093.92.17.214.055.35.26.563.319.444.122 1 .427 1.231.833.206.362.419.8.518 1.227.07.308.187.598.257.903.066.282.218.518.283.801.149.642.492 1.197.748 1.8.264.621.334 1.397.486 2.053l.38 1.645c.141.606.036 1.214.178 1.825.126.547-.079 1.139.047 1.686.134.577.183 1.281.064 1.862a3.475 3.475 0 0 1-.661 1.375c-.267.324-.756.468-1.078.731-.165.134-.467.231-.673.278-.24.055-.402.16-.627.239-.251.088-.531.125-.791.185-.305.071-.59.233-.905.306l-3.896.901c-.333.077-.665.057-1.002.135-.334.077-.605.29-.966.309-.74.04-1.468.364-2.213.282-.56-.061-1.127.017-1.695-.089a1.83 1.83 0 0 1-.66-.27c-.2-.122-.448-.152-.627-.309-.497-.439-.991-.895-1.293-1.482-.22-.424-.342-.881-.547-1.306-.22-.455-.247-.977-.475-1.42-.243-.471-.26-1.047-.419-1.55-.187-.594-.407-1.173-.548-1.782Z" style="fill:#ff9ce8;fill:color(display-p3 1 .6118 .9098);fill-opacity:1"/><path fill="#700A4B" fill-rule="evenodd" d="M89.327 105.463c.314-.048.577-.088.844-.15.947-.219 1.919-.247 2.749-.271l.564-.019.206-.01c.61-.028 1.341-.061 2.064.019l-.137 1.228.137-1.228c.367.041.738.11 1.09.201.204.052.366.134.48.204.102.061.19.127.23.157.3.095.615.238.905.422.32.204.695.513.946.954l-1.074.611 1.074-.611c.228.4.509.96.648 1.561.023.1.055.205.104.361l.005.015c.044.14.102.327.149.527a1.392 1.392 0 0 0 .084.218c.051.121.141.335.199.582.045.198.127.407.25.674l.122.255c.099.205.217.451.309.667.183.432.286.884.36 1.258.034.172.06.316.083.448.036.198.066.366.109.552l.38 1.644c.098.424.111.833.119 1.117l.001.035c.01.322.019.506.058.673.106.458.074.906.055 1.165a4.142 4.142 0 0 1-.003.042c-.022.32-.019.417-.005.48.161.694.235 1.585.071 2.388l-1.211-.248 1.211.248a4.7 4.7 0 0 1-.919 1.914c-.295.357-.671.569-.869.68l-.168.093a1.503 1.503 0 0 0-.213.128 2.39 2.39 0 0 1-.658.367c-.186.072-.37.124-.517.158a.525.525 0 0 0-.105.04l-.035.015a4.556 4.556 0 0 1-.358.146c-.263.092-.632.165-.819.202l-.102.021c-.048.011-.11.033-.275.098l-.018.007a4.285 4.285 0 0 1-.612.201l-3.896.901a4.589 4.589 0 0 1-.648.092l-.023.002a2.61 2.61 0 0 0-.33.041s-.016.004-.063.022l-.096.041-.113.048c-.18.076-.502.206-.906.228a4.48 4.48 0 0 0-.683.113l-.24.05c-.381.079-.913.177-1.492.113a5.827 5.827 0 0 0-.588-.02h-.127a5.808 5.808 0 0 1-1.072-.083 3.037 3.037 0 0 1-1.06-.419l-.004-.001a.99.99 0 0 0-.055-.022l-.083-.032a2.19 2.19 0 0 1-.675-.393l.818-.927-.818.927c-.485-.428-1.152-1.022-1.575-1.841l1.099-.567-1.099.567a7.41 7.41 0 0 1-.335-.781l-.011-.029c-.084-.221-.144-.379-.215-.527-.162-.334-.25-.679-.307-.898l-.01-.043c-.068-.259-.102-.369-.143-.448-.205-.396-.296-.8-.354-1.083l-.047-.239a3.803 3.803 0 0 0-.098-.423 31.492 31.492 0 0 0-.145-.441 16.048 16.048 0 0 1-.428-1.435l.001.008-.038-.123a45.851 45.851 0 0 0-.197-.598l-.254-.771c-.115-.354-.23-.72-.31-1.006a5.03 5.03 0 0 1-.102-.426 1.776 1.776 0 0 1-.03-.308c0-.044 0-.138.023-.256-.054-.212-.142-.553-.18-.828l-.001-.01a9.569 9.569 0 0 1-.108-1.211l-.001-.09a9.825 9.825 0 0 1 0-.441c.006-.194.026-.483.117-.778l.002-.017.005-.049a2.706 2.706 0 0 1 .038-.272 1.997 1.997 0 0 1 .236-.623l.022-.042.009-.017a7.553 7.553 0 0 1 .185-.391 1.41 1.41 0 0 0 .077-.179c.186-.605.56-.984.84-1.224a7.466 7.466 0 0 1 .346-.278 1.82 1.82 0 0 0 .18-.157c.455-.476 1.053-.685 1.344-.786l.087-.031a26.98 26.98 0 0 1 1.083-.368l.137-.044c.303-.098.59-.19.874-.289.342-.12.652-.223.952-.323.388-.129.76-.253 1.166-.401.515-.186 1.034-.281 1.473-.351l.338-.052Zm-9.083 4.877Zm-.01 4.798.004.01-.002-.005-.002-.005Zm17.03-6.932a.8.8 0 0 0-.133-.105 1.424 1.424 0 0 0-.359-.161 1.815 1.815 0 0 1-.468-.206 2.873 2.873 0 0 1-.2-.138 5.504 5.504 0 0 0-.623-.108c-.518-.057-1.052-.033-1.692-.005l-.198.009c-.253.011-.49.018-.717.025-.8.025-1.462.046-2.146.204-.367.085-.758.144-1.091.195l-.259.04c-.411.066-.736.132-1.02.234-.407.148-.857.298-1.288.443a81.74 81.74 0 0 0-.857.29c-.316.111-.634.213-.935.31a24.632 24.632 0 0 0-1.118.376l-.127.047a3.747 3.747 0 0 0-.292.114.411.411 0 0 0-.082.046 4.17 4.17 0 0 1-.427.383l-.124.098c-.06.047-.103.08-.153.123a.684.684 0 0 0-.09.086 3.81 3.81 0 0 1-.209.513c-.025.054-.046.096-.064.132a4.285 4.285 0 0 0-.078.165l-1.135-.488 1.135.488a2.424 2.424 0 0 1-.097.2.307.307 0 0 1-.02.036v.009l-.007.061a2.33 2.33 0 0 1-.095.47 1.285 1.285 0 0 0-.009.123 4.566 4.566 0 0 0 0 .196v.077l.002.166a7.5 7.5 0 0 0 .087.9c.018.13.042.221.08.361.021.083.048.184.08.32a1.379 1.379 0 0 1 .067.827c.064.23.163.544.274.886.083.255.168.512.247.748l.082.247.005.016c.082.248.178.537.21.679.086.372.197.702.326 1.089.062.183.128.38.197.6.086.271.144.574.185.783l.025.128c.05.25.09.369.128.445l-1.098.566 1.098-.566c.181.351.274.712.333.94l.006.022c.07.269.104.389.15.487.121.248.217.502.292.7l.02.051c.084.224.148.383.221.526l-.749.386.749-.386c.175.338.476.644.949 1.064a.689.689 0 0 1 .04.015l.036.014.114.045c.085.035.203.088.328.165l-.64 1.044.64-1.044c.08.049.123.07.152.083.025.01.05.018.09.026l-.227 1.215.227-1.215c.166.031.353.039.63.04l.104.001c.239 0 .556 0 .869.034.165.019.37-.004.724-.077l.156-.033c.295-.063.705-.152 1.11-.176a1.05 1.05 0 0 0 .102-.039l.044-.019c.056-.024.144-.062.21-.088.11-.044.253-.095.42-.134a4.54 4.54 0 0 1 .653-.093l.02-.002c.18-.016.26-.025.328-.04l3.896-.901a2.379 2.379 0 0 0 .306-.109c.135-.054.357-.141.6-.197a7.83 7.83 0 0 1 .394-.082c.11-.021.172-.033.268-.066.038-.014.062-.024.12-.05l.103-.045a3.05 3.05 0 0 1 .533-.181 1.553 1.553 0 0 0 .214-.068c.137-.107.273-.191.382-.254.074-.044.17-.096.24-.135.03-.015.054-.029.072-.039.126-.07.171-.104.18-.11a2.26 2.26 0 0 0 .391-.822c.074-.359.049-.877-.057-1.335-.106-.459-.074-.907-.055-1.165 0-.015.002-.029.003-.043.022-.319.02-.416.005-.479a5.634 5.634 0 0 1-.12-1.123v-.032c-.01-.324-.02-.505-.058-.67l-.38-1.645c-.054-.233-.105-.516-.15-.761l-.06-.319a3.985 3.985 0 0 0-.21-.768 8.856 8.856 0 0 0-.217-.471 21.109 21.109 0 0 1-.18-.378 5.898 5.898 0 0 1-.416-1.156 1.55 1.55 0 0 0-.078-.201l-.008-.019c-.05-.12-.14-.335-.198-.581a4.92 4.92 0 0 0-.103-.359l-.005-.014c-.044-.141-.103-.329-.15-.529-.057-.251-.198-.562-.38-.882Zm-14.718 6.633a.1.1 0 0 1 0 .003Zm-.032-.654.002.004-.002-.004Zm.346-3.671s0-.002.004-.006l-.004.006Z" clip-rule="evenodd" style="fill:#700a4b;fill:color(display-p3 .4392 .0392 .2941);fill-opacity:1"/><path fill="#FF9CE8" d="M256.1 77.376c-.078-.293-.489-3.072-.62-3.053-.203-.115-.145-.162-.178-.292-.076-.284-.131-.585-.233-.86a8.555 8.555 0 0 0-.411-.982c-.136-.26-.298-.612-.508-.813-.107-.102-.182-.247-.276-.363-.108-.133-.235-.184-.365-.288-.197-.158-.422-.293-.6-.47-.423-.42-.98-.354-1.501-.526-.362-.12-.72-.049-1.093.002-.721.099-1.434.25-2.157.362-.743.115-1.479.252-2.223.359-.842.12-1.64.51-2.459.729-1.015.272-1.909.773-2.847 1.221-.622.297-1.263.589-1.835.98a6.637 6.637 0 0 0-.732.581c-.164.15-.187.395-.348.547-.334.316-.681.846-.695 1.313-.012.417.006.904.12 1.327.082.305.115.615.197.918.074.28.051.56.126.84.171.637.128 1.288.185 1.94.059.672.362 1.39.536 2.041l.437 1.63c.161.602.539 1.09.701 1.695.145.543.605.968.75 1.511.153.572.441 1.217.819 1.674.294.356.792.723 1.229.903.388.16.887.057 1.295.138.208.041.521-.015.724-.07.238-.064.431-.048.666-.084.264-.04.528-.139.786-.208.302-.08.63-.072.943-.155l3.862-1.035c.331-.089.614-.262.948-.351.331-.089.67-.029.999-.182.672-.312 1.466-.368 2.085-.79.465-.317 1.003-.515 1.455-.875.201-.161.326-.328.456-.549.118-.201.323-.344.407-.567.233-.621.455-1.256.446-1.916-.006-.477-.112-.938-.131-1.41-.02-.504-.241-.978-.247-1.476-.007-.53-.263-1.046-.359-1.565-.114-.613-.192-1.227-.354-1.83Z" style="fill:#ff9ce8;fill:color(display-p3 1 .6118 .9098);fill-opacity:1"/><path fill="#700A4B" fill-rule="evenodd" d="M243.97 69.724c-.3.105-.551.194-.816.265-.938.251-1.81.683-2.554 1.052l-.507.248-.187.089c-.551.261-1.212.575-1.812.985l.697 1.02-.697-1.02a8 8 0 0 0-.869.69c-.155.142-.259.29-.328.406-.06.102-.107.2-.128.246a3.867 3.867 0 0 0-.601.798c-.186.33-.372.78-.387 1.286l1.235.036-1.235-.036c-.013.46.002 1.087.161 1.683.027.1.048.207.078.368l.003.015c.027.144.063.337.116.535.006.021.012.056.026.212l.002.02c.012.13.033.363.098.608.053.196.079.418.095.712.005.078.009.175.013.282.009.227.02.5.041.734.041.468.162.915.273 1.28.051.167.096.308.137.435.061.191.113.354.163.538l.437 1.63c.112.42.294.787.42 1.042l.015.031c.143.289.221.456.265.621.122.455.361.835.499 1.055l.022.036c.17.272.213.358.23.42.184.689.537 1.51 1.06 2.142l.952-.787-.952.787a4.688 4.688 0 0 0 1.71 1.258c.428.177.859.188 1.087.192l.191.003c.152.003.2.004.249.013.293.058.574.037.753.016.198-.025.385-.065.531-.104a.61.61 0 0 1 .111-.014l.038-.003c.082-.006.236-.017.385-.04a6.79 6.79 0 0 0 .818-.206l.099-.03a2.23 2.23 0 0 1 .289-.042l.02-.002c.147-.017.387-.044.634-.11l3.862-1.036c.251-.067.474-.162.616-.223l.021-.008a2.61 2.61 0 0 1 .311-.12s.015-.004.066-.01l.104-.009.122-.01c.195-.018.541-.055.908-.225.181-.084.368-.138.655-.221l.235-.068c.374-.11.889-.273 1.37-.601.142-.097.292-.177.51-.294.036-.02.073-.04.113-.06.254-.137.587-.322.907-.577a3.037 3.037 0 0 0 .741-.871l.039-.045a3.23 3.23 0 0 0 .058-.067c.087-.1.287-.333.411-.664l-1.157-.434 1.157.434c.228-.606.537-1.444.525-2.366l-1.235.016 1.235-.016a7.486 7.486 0 0 0-.07-.847l-.004-.03a6.875 6.875 0 0 1-.058-.566c-.014-.371-.098-.717-.151-.938l-.011-.042c-.062-.26-.083-.373-.084-.463-.006-.446-.115-.845-.197-1.121l-.07-.234a3.744 3.744 0 0 1-.113-.42 21.48 21.48 0 0 1-.079-.457 15.93 15.93 0 0 0-.294-1.46l-.024-.126a133.474 133.474 0 0 1-.107-.621l-.138-.8a27.67 27.67 0 0 0-.199-1.034 5.013 5.013 0 0 0-.11-.424 1.798 1.798 0 0 0-.118-.286 1.39 1.39 0 0 0-.141-.215 7.937 7.937 0 0 0-.23-.816l-.003-.008a9.644 9.644 0 0 0-.474-1.12l-.041-.08a9.176 9.176 0 0 0-.208-.39 2.986 2.986 0 0 0-.468-.632l-.01-.014-.028-.04-.04-.059a2 2 0 0 0-.622-.604l-.039-.025-.016-.012a7.665 7.665 0 0 0-.291-.217l-.056-.04a1.46 1.46 0 0 1-.152-.123c-.449-.446-.956-.605-1.317-.686a8.379 8.379 0 0 0-.436-.083 1.793 1.793 0 0 1-.232-.053c-.626-.207-1.252-.11-1.556-.063l-.092.013a27.497 27.497 0 0 0-1.27.21c-.314.056-.61.11-.908.156-.358.055-.68.11-.992.162a45.99 45.99 0 0 1-1.217.194c-.543.077-1.045.237-1.465.382l-.323.112Zm10.309.038Zm2.263 4.232a.197.197 0 0 1 .001.01v-.005l-.001-.005Zm-18.291 1.88a.884.884 0 0 1 .068-.155c.068-.119.161-.233.242-.31.15-.142.25-.29.316-.401.049-.085.09-.168.113-.217.16-.14.329-.271.499-.387.43-.294.912-.524 1.491-.8l.179-.085c.228-.11.441-.214.645-.315.718-.354 1.311-.646 1.989-.828.365-.098.738-.229 1.056-.34l.247-.087c.394-.135.712-.23 1.011-.272.428-.061.896-.14 1.345-.215.313-.052.618-.103.892-.146.331-.05.66-.11.971-.166l.138-.025c.357-.064.693-.122 1.026-.168l.134-.018.135-.02c.077-.009.132-.014.176-.017a.417.417 0 0 1 .095.003c.21.07.408.11.556.137l.156.028c.075.013.129.023.193.037a.784.784 0 0 1 .119.034c.154.152.313.272.425.355l.119.086c.06.043.1.072.147.11l.773-.965-.773.964a2.442 2.442 0 0 0 .213.154l.002.003.003.004.035.05a2.3 2.3 0 0 0 .296.36.775.775 0 0 1 .074.116c.029.05.059.105.093.172l.036.069.076.147c.114.217.222.502.345.835.046.123.068.215.1.356.02.084.044.185.079.321a1.367 1.367 0 0 0 .33.76c.051.234.112.558.174.912.047.264.092.531.134.776l.044.257.003.016c.044.258.095.557.133.699.098.368.156.711.224 1.114.032.19.066.395.108.622.051.28.142.574.205.778l.038.125c.072.244.094.368.095.453l1.236-.016-1.236.016c.005.395.093.757.148.986a.165.165 0 0 0 .005.022c.065.27.091.393.096.5a8.588 8.588 0 0 0 .079.81 5.1 5.1 0 0 1 .051.568l.843-.01-.843.01c.005.38-.118.793-.338 1.385l-.028.032a2.426 2.426 0 0 0-.317.423l1.055.621-1.055-.62a1.151 1.151 0 0 1-.095.143.456.456 0 0 1-.067.066l.771.965-.771-.965c-.132.105-.293.2-.537.331l-.092.05a8.11 8.11 0 0 0-.751.438c-.137.094-.329.17-.675.272l-.154.045c-.29.082-.693.197-1.062.366a1.384 1.384 0 0 1-.108.013l-.049.004-.226.02a2.9 2.9 0 0 0-.434.08c-.253.068-.476.163-.62.224l-.019.008c-.166.071-.241.1-.308.119l-3.863 1.035a2.203 2.203 0 0 1-.297.045l-.024.002c-.144.017-.381.044-.622.108-.187.05-.302.086-.387.113a1.335 1.335 0 0 1-.396.08 16.08 16.08 0 0 0-.112.009 3 3 0 0 0-.556.09 1.467 1.467 0 0 1-.221.041c-.171-.03-.33-.04-.456-.045a11.565 11.565 0 0 0-.276-.006l-.082-.001a1.588 1.588 0 0 1-.21-.013 2.28 2.28 0 0 1-.732-.54c-.233-.284-.455-.752-.577-1.207-.122-.454-.36-.835-.498-1.054l-.023-.036c-.169-.272-.212-.359-.229-.421-.114-.423-.296-.791-.422-1.047l-.015-.03c-.143-.29-.22-.454-.264-.618l-.437-1.63a16.786 16.786 0 0 0-.225-.742l-.097-.31a3.999 3.999 0 0 1-.176-.777c-.017-.184-.022-.338-.029-.517-.005-.122-.01-.255-.019-.419a5.87 5.87 0 0 0-.175-1.216 1.493 1.493 0 0 1-.028-.235c-.012-.13-.033-.361-.098-.605-.027-.098-.047-.205-.078-.366l-.002-.015c-.028-.144-.064-.338-.117-.537-.067-.248-.088-.589-.079-.957Zm16.11-1.058a.04.04 0 0 1 .001.003Zm-.28-.593.001.005-.001-.005Zm-2.029-3.078-.006-.003.006.003Z" clip-rule="evenodd" style="fill:#700a4b;fill:color(display-p3 .4392 .0392 .2941);fill-opacity:1"/></svg>