<svg xmlns="http://www.w3.org/2000/svg" width="354" height="383" fill="none"><path fill="#BDFF38" d="M107.071 187.253c5.281 18.126 9.766 36.578 15.761 54.431 5.408-.195 14.431-1.852 19.34-4.078 10.47-4.748 20.642-10.224 31.377-14.154 10.526-3.855 21.317-6.857 32.158-9.571 8.465-2.119 17.102-2.73 25.942-3.049 5.236-.188 10.385-.846 15.373-2.153 1.906-.5 3.75-1.181 5.612-1.835.616-.216 1.335-.605 2.058-.279.796.36-.891-5.453-.911-5.539-1.313-5.706-2.976-11.385-4.579-17.019-6.702-23.55-14.183-46.739-21.476-70.059-3.78-12.086-7.305-24.32-10.406-36.626-2.274-9.021-3.959-18.161-6.215-27.157-1.273-5.078-5.909-2.832-7.651-1.769-2.351 1.434-4.948 2.097-7.359 3.36-3.244 1.697-6.347 3.276-9.841 4.191-10.885 2.852-21.574 6.409-32.528 9.017-10.638 2.532-21.232 6.238-32.076 7.909-9.436 4.44-19.711 6.1-29.72 8.723-2.98.78-5.927 1.553-9.013 1.893-.986.109-2.743-1.065-2.461 1.087.94 7.18 2.988 14.625 4.63 21.742 1.921 8.324 4.188 16.589 6.25 24.884 4.679 18.826 10.317 37.454 15.735 56.051Z" style="fill:#bdff38;fill:color(display-p3 .7412 1 .2196);fill-opacity:1"/><path fill="#005840" d="m206.774 191.436-24.501-52.42 15.094-4.045 6.375 14.393 6.919 16.994-2.719-18.119-1.818-15.614 13.812-3.701 5.349 57.552-18.511 4.96Zm-25.165-52.248 3.339 12.46-13.029 3.491 2.384 8.899 11.942-3.276 3.339 12.459-11.961 3.205 2.365 8.828 13.029-3.491 3.338 12.46-27.054 7.249-14.746-55.034 27.054-7.25ZM131.2 211.683l-14.747-55.035 13.527-3.624c14.809-3.968 26.047 4.085 30.721 21.528 4.579 17.087-1.166 29.538-15.974 33.506l-13.527 3.625Zm10.544-16.179.855-.229c4.841-1.298 6.096-7.433 3.578-16.831-2.613-9.754-6.807-14.582-11.648-13.285l-.854.229 8.069 30.116Z" style="fill:#005840;fill:color(display-p3 0 .3451 .251);fill-opacity:1"/><path fill="#005840" fill-rule="evenodd" d="M225.454 4.83a7 7 0 0 1-3.677 9.192c-6.905 2.96-14.266 4.782-21.245 6.292-2.048.443-4.042.856-5.992 1.26-4.907 1.015-9.536 1.973-14.056 3.216-5.705 1.569-11.291 3.493-17.126 5.504l-1.46.503c-6.285 2.162-12.854 4.384-19.687 6.092-6.65 1.663-13.835 4.012-20.005 6.687-2.949 1.279-6.209 2.182-8.878 2.92-.923.256-1.775.492-2.518.717a1830.414 1830.414 0 0 0-16.24 5.027c-8.455 2.645-16.998 5.319-25.47 7.766a7 7 0 1 1-3.885-13.45c8.39-2.424 16.6-4.994 24.893-7.59 5.486-1.717 11.009-3.446 16.646-5.152a154.78 154.78 0 0 1 3.81-1.09c2.272-.627 4.066-1.123 6.072-1.992 6.976-3.025 14.903-5.606 22.179-7.425 6.178-1.544 12.227-3.58 18.528-5.749l1.521-.523c5.756-1.984 11.753-4.051 17.908-5.744 4.986-1.371 10.29-2.469 15.358-3.518 1.855-.383 3.677-.76 5.441-1.142 6.805-1.472 13.077-3.071 18.691-5.477a7 7 0 0 1 9.192 3.676Zm-108.39 372.43a7 7 0 0 1 3.677-9.192c6.849-2.935 15.965-5.401 24.629-7.529 3.356-.824 6.628-1.595 9.748-2.329 5.222-1.23 10.017-2.359 14.062-3.471 5.705-1.569 11.291-3.494 17.126-5.504l1.46-.503c6.285-2.162 12.854-4.384 19.687-6.092 6.651-1.663 13.836-4.012 20.005-6.687 2.949-1.279 6.209-2.182 8.878-2.921.923-.256 1.775-.492 2.519-.717 5.347-1.618 10.775-3.316 16.239-5.026 8.455-2.646 16.998-5.319 25.469-7.766a7 7 0 0 1 3.886 13.45c-8.391 2.424-16.6 4.994-24.893 7.59-5.486 1.717-11.009 3.446-16.646 5.152-1.443.437-2.685.78-3.81 1.09-2.272.627-4.066 1.122-6.072 1.992-6.976 3.025-14.903 5.605-22.179 7.425-6.178 1.544-12.227 3.58-18.528 5.748l-1.521.524c-5.756 1.984-11.753 4.051-17.908 5.744-4.263 1.172-9.535 2.415-14.976 3.697-3.066.723-6.185 1.458-9.207 2.2-8.693 2.135-16.783 4.371-22.453 6.801a7 7 0 0 1-9.192-3.676Z" clip-rule="evenodd" style="fill:#005840;fill:color(display-p3 0 .3451 .251);fill-opacity:1"/><path fill="#005840" fill-rule="evenodd" d="M225.188 14.09c-.231-.077-1.189-.329-3.45.624a7 7 0 0 1-5.433-12.903c4.47-1.882 8.984-2.42 13.24-1.027 4.199 1.375 7.087 4.286 9.038 7.213 3.611 5.416 5.206 12.794 6.197 17.381l.047.22c.566 2.615 1.15 5.252 1.738 7.907 1.935 8.734 3.914 17.667 5.418 26.69a1642.052 1642.052 0 0 0 6.989 38.958c.497 2.596.888 4.974 1.261 7.241.644 3.917 1.234 7.504 2.223 11.32.588 2.267 1.314 4.558 2.108 7.062l.285.9c.877 2.771 1.815 5.795 2.51 8.856.618 2.719 1.252 5.457 1.888 8.211 1.668 7.211 3.36 14.525 4.864 21.876 1.078 5.27 2.874 10.405 4.876 16.033l.194.546c1.898 5.332 3.965 11.14 5.29 17.234 1.585 7.292 3.698 14.564 5.865 22.024a832.746 832.746 0 0 1 2.775 9.694l.698 2.519c1.649 5.961 4.549 16.446 7.625 26.87 3.67 12.434 7.317 23.81 9.328 27.832a7 7 0 0 1-12.522 6.261c-2.699-5.397-6.715-18.208-10.234-30.131-3.113-10.55-6.05-21.167-7.695-27.116l-.689-2.488a819.403 819.403 0 0 0-2.586-9.029c-2.224-7.657-4.553-15.676-6.245-23.462-1.132-5.205-2.936-10.275-4.922-15.858l-.072-.203c-1.963-5.517-4.098-11.545-5.402-17.92-1.466-7.164-3.096-14.212-4.749-21.359-.645-2.791-1.295-5.597-1.939-8.432-.552-2.43-1.326-4.953-2.206-7.736l-.285-.899c-.778-2.453-1.624-5.118-2.312-7.772-1.132-4.368-1.92-9.112-2.643-13.464-.351-2.115-.687-4.137-1.04-5.977a1663.506 1663.506 0 0 1-7.047-39.289c-1.438-8.622-3.306-17.059-5.224-25.717-.601-2.715-1.207-5.452-1.806-8.224-1.125-5.2-2.289-9.914-4.209-12.793-.842-1.263-1.458-1.58-1.747-1.674Zm-100.71 367.75a6.999 6.999 0 0 1-8.321-5.362c-1.027-4.75-5.416-19.136-10.287-35.107l-1.81-5.937c-2.735-8.976-5.466-18.004-7.637-25.518-2.12-7.34-3.845-13.704-4.407-17.075a1647.968 1647.968 0 0 0-6.988-38.957c-.497-2.596-.888-4.974-1.261-7.241-.644-3.917-1.234-7.504-2.224-11.32-.587-2.267-1.314-4.558-2.108-7.062l-.285-.9c-.876-2.771-1.814-5.795-2.51-8.856a2231.27 2231.27 0 0 0-1.888-8.211c-1.668-7.211-3.36-14.525-4.863-21.877-1.078-5.269-2.874-10.404-4.876-16.032l-.195-.547c-1.897-5.331-3.965-11.139-5.29-17.233-1.585-7.292-3.697-14.565-5.865-22.024-.927-3.192-1.864-6.418-2.774-9.694-2.825-10.17-5.755-20.253-10.119-28.98a7 7 0 1 1 12.522-6.262c5.055 10.11 8.296 21.453 11.086 31.495.813 2.925 1.69 5.948 2.585 9.029 2.224 7.657 4.553 15.676 6.246 23.462 1.132 5.205 2.935 10.274 4.922 15.858l.072.203c1.962 5.517 4.098 11.544 5.402 17.92 1.465 7.164 3.095 14.211 4.748 21.359a2301.98 2301.98 0 0 1 1.94 8.432c.552 2.43 1.325 4.953 2.205 7.736.094.296.19.596.285.899.779 2.453 1.624 5.118 2.312 7.771 1.133 4.368 1.92 9.113 2.644 13.464.35 2.115.687 4.138 1.04 5.978a1659.56 1659.56 0 0 1 7.047 39.288c.4 2.403 1.858 7.913 4.047 15.492 2.139 7.405 4.844 16.343 7.579 25.324l1.887 6.185c4.765 15.615 9.34 30.606 10.501 35.979a6.999 6.999 0 0 1-5.362 8.321Z" clip-rule="evenodd" style="fill:#005840;fill:color(display-p3 0 .3451 .251);fill-opacity:1"/><path fill="#005840" fill-rule="evenodd" d="M72.72 51.74c.086.61.096 1.177.096 1.543 0 1.772-.658 3.39-1.744 4.624l-.066.211-.128.417a137.725 137.725 0 0 1-1.413 4.41c-.522 1.51-1.27 3.525-2.214 5.085-1.896 3.135-4.012 6.227-5.998 9.13a561.54 561.54 0 0 0-1.563 2.29c-2.476 3.652-4.68 7.066-6.427 10.56a7 7 0 1 1-12.523-6.26c2.185-4.37 4.83-8.422 7.362-12.156.585-.863 1.16-1.704 1.725-2.529 1.95-2.852 3.773-5.516 5.446-8.281.004-.009.115-.207.317-.692.192-.461.407-1.039.642-1.72.433-1.251.856-2.624 1.27-3.971l.125-.406.053-.172c.366-1.189.866-2.813 1.336-3.853l.003-.008a8.483 8.483 0 0 1 1.078-1.794 7.202 7.202 0 0 1 2.678-2.089 7.061 7.061 0 0 1 7.27.898 7.164 7.164 0 0 1 2.324 3.286c.22.637.31 1.183.352 1.477Zm-13.903 1.5Zm218.13 274.547a11.24 11.24 0 0 1-.095-1.542 6.97 6.97 0 0 1 1.744-4.624l.066-.212.128-.416c.403-1.312.897-2.918 1.413-4.411.522-1.509 1.27-3.525 2.214-5.085 1.896-3.135 4.012-6.227 5.998-9.129a560.89 560.89 0 0 0 1.563-2.291c2.476-3.652 4.68-7.066 6.427-10.561a7.001 7.001 0 0 1 12.522 6.261c-2.184 4.37-4.829 8.422-7.361 12.156-.585.863-1.16 1.704-1.725 2.529-1.951 2.852-3.773 5.516-5.446 8.281v.001c-.004.008-.115.206-.317.691a31.435 31.435 0 0 0-.643 1.72 124.989 124.989 0 0 0-1.269 3.972l-.125.405-.053.173c-.366 1.188-.866 2.813-1.336 3.853l-.003.007a8.483 8.483 0 0 1-1.078 1.794 7.2 7.2 0 0 1-2.678 2.089 7.06 7.06 0 0 1-7.27-.897 7.163 7.163 0 0 1-2.324-3.287 7.945 7.945 0 0 1-.352-1.477Zm13.905-1.498v-.027.027ZM205.763 54.81a40.88 40.88 0 0 1-2.867 1.256l-.504.202c-1.135.456-1.889.758-2.625 1.141-3.244 1.69-7.033 3.641-11.43 4.793-4.594 1.204-9.15 2.532-13.814 3.892l-2.444.712c-5.478 1.592-11.098 3.193-16.823 4.557-3.745.892-7.427 1.916-11.26 2.982-1.532.426-3.088.859-4.682 1.293-5.157 1.403-10.555 2.77-16.097 3.687-7.88 3.552-15.815 5.39-23.067 7.07-2.49.576-4.899 1.134-7.197 1.736l-.274.072c-1.61.422-3.377.885-5.251 1.283.629 3.131 1.398 6.319 2.195 9.623.432 1.793.873 3.62 1.304 5.492 1.194 5.181 2.497 10.228 3.826 15.375.8 3.097 1.608 6.23 2.408 9.45 3.843 15.472 8.342 30.795 12.877 46.242.944 3.215 1.889 6.435 2.83 9.663 1.901 6.516 3.666 12.948 5.414 19.317 2.748 10.012 5.454 19.87 8.575 29.658 4.296-.641 9.062-1.773 11.768-2.995 3.139-1.417 6.387-2.969 9.711-4.558 7.261-3.47 14.889-7.115 22.548-9.911 10.991-4.013 22.183-7.119 33.26-9.893 9.306-2.331 18.645-2.981 27.691-3.327 4.884-.187 9.576-.802 14.046-1.973a31.24 31.24 0 0 0 1.53-.447c-1.068-4.489-2.35-8.976-3.675-13.612l-.563-1.975c-5.324-18.691-11.139-37.137-16.995-55.71-1.502-4.765-3.007-9.538-4.507-14.326-3.827-12.214-7.401-24.605-10.546-37.093-1.172-4.651-2.186-9.314-3.17-13.845l-.02-.09c-.718-3.307-1.421-6.544-2.172-9.741Zm8.673-13.446c2.269 1.707 3.496 4.109 4.09 6.478 1.145 4.57 2.142 9.16 3.113 13.629l.041.188c.991 4.565 1.958 9.005 3.064 13.396 3.069 12.182 6.566 24.313 10.329 36.325 1.483 4.732 2.976 9.468 4.471 14.209 5.863 18.595 11.754 37.279 17.137 56.179l.558 1.957c1.424 4.981 2.917 10.203 4.122 15.453.035.152.395 1.693.69 3.186.141.713.304 1.595.396 2.354.035.29.118.996.079 1.768l-.001.024a7.393 7.393 0 0 1-.739 2.871 7.086 7.086 0 0 1-3.434 3.324 6.96 6.96 0 0 1-3.015.626l-.432.152c-1.594.563-3.507 1.239-5.465 1.752-5.63 1.475-11.358 2.204-17.069 2.422-8.842.338-16.981.954-24.815 2.916-10.872 2.723-21.528 5.692-31.855 9.462-7.034 2.568-13.599 5.71-20.507 9.016-3.475 1.663-7.037 3.367-10.79 5.061-6.046 2.73-16.14 4.523-22.198 4.755l-5.248.2-1.676-4.978c-3.996-11.875-7.381-24.198-10.702-36.289-1.723-6.273-3.429-12.484-5.195-18.537a5347.37 5347.37 0 0 0-2.798-9.551c-4.537-15.453-9.136-31.114-13.057-46.9-.732-2.948-1.512-5.971-2.3-9.029-1.368-5.301-2.763-10.71-3.989-16.029-.354-1.539-.744-3.149-1.145-4.81-1.352-5.595-2.841-11.758-3.607-17.657-.13-.998-.37-3.657 1.424-6.112 2.136-2.926 5.254-3.15 6.432-3.13a9.82 9.82 0 0 1 1.591.165c2.306-.322 4.63-.924 7.457-1.665 3.1-.813 5.988-1.482 8.743-2.121 7.096-1.646 13.315-3.089 20.043-6.24l.91-.426.993-.154c5.087-.79 10.206-2.066 15.544-3.518 1.426-.388 2.883-.794 4.36-1.204 3.927-1.092 7.997-2.224 12.014-3.181 5.363-1.278 10.699-2.795 16.159-4.382l2.4-.7c4.657-1.357 9.422-2.746 14.219-4.003 2.677-.702 5.176-1.932 8.504-3.664 1.402-.73 2.857-1.311 3.933-1.74l.436-.175c1.236-.497 2.024-.847 2.685-1.248 1.053-.639 3.966-2.304 7.406-2.445 1.928-.079 4.42.31 6.694 2.02ZM82.616 76.34a1.044 1.044 0 0 1-.132-.022c.082.011.129.02.132.022Z" clip-rule="evenodd" style="fill:#005840;fill:color(display-p3 0 .3451 .251);fill-opacity:1"/><path fill="#005840" d="m104.094 100.367 28.477-7.02 3.917 15.889-17.274 3.361-14.123-8.185-.997-4.045Zm2.765 17.969 12.774-3.149 10.376 3.286 8.063 7.578-13.57 2.229 1.546 12.928-15.866-9.397-2.325-9.431-.998-4.044Z" style="fill:#005840;fill:color(display-p3 0 .3451 .251);fill-opacity:1"/><path fill="#005840" fill-rule="evenodd" d="m103.405 103.468.138-.031c.074-.017.201-.043.349-.073.261-.053.587-.12.8-.171.704-.167 1.403-.335 2.099-.502 2.455-.59 4.874-1.172 7.316-1.669a640.81 640.81 0 0 0 7.245-1.517c3.459-.747 7.086-1.554 10.56-2.7a1.912 1.912 0 1 0-1.198-3.633c-3.258 1.074-6.701 1.845-10.169 2.594a629.41 629.41 0 0 1-7.203 1.507c-2.513.513-5.018 1.115-7.483 1.707-.687.165-1.371.33-2.051.491-.215.051-.357.08-.522.112-.148.03-.316.062-.571.119a7.678 7.678 0 0 0-1.443.45 1.936 1.936 0 0 0-1.163 1.809c.007.459.177.795.217.875a2.287 2.287 0 0 0 .143.245l.001.002.014.022a1.914 1.914 0 0 0 2.921.363Z" clip-rule="evenodd" style="fill:#005840;fill:color(display-p3 0 .3451 .251);fill-opacity:1"/><path fill="#005840" fill-rule="evenodd" d="M134.335 93.593a3.22 3.22 0 0 1 .506 1.008c.077.25.099.502.075.747l.042.129c.173.536.382 1.187.477 1.575.576 2.334.97 4.67 1.353 6.946l.086.508c.146.866.531 2.323.888 3.67.172.651.337 1.276.465 1.796a1.913 1.913 0 0 1-3.714.916c-.091-.369-.226-.878-.377-1.452-.377-1.426-.858-3.25-1.034-4.293l-.081-.479c-.389-2.305-.76-4.507-1.3-6.696-.062-.25-.197-.67-.35-1.148-.071-.22-.146-.453-.219-.687a9.24 9.24 0 0 1-.265-.966l-.001-.004c-.01-.059-.048-.264-.037-.507v-.004c.004-.09.021-.477.259-.89a1.925 1.925 0 0 1 2.054-.92c.533.11.859.416.929.481l.004.004c.117.11.199.212.24.266Zm-29.921 9.491v-.003l.004.046-.004-.043Zm-2.107 2.09.06.047.033.027.015.012c.15.121.383.308.594.446 1.214.794 2.438 1.438 3.636 2.052.714.365 1.45.75 2.195 1.14 1.115.583 2.251 1.178 3.361 1.732.477.237.944.464 1.401.685 1.393.676 2.696 1.307 3.891 2.077.971.626 1.968 1.253 3.314 1.694a1.912 1.912 0 0 0 1.192-3.635c-.84-.276-1.48-.66-2.434-1.275-1.409-.908-3.006-1.681-4.443-2.377-.421-.203-.828-.401-1.213-.593a184.56 184.56 0 0 1-3.23-1.663 303.64 303.64 0 0 0-2.29-1.191c-1.184-.605-2.254-1.173-3.287-1.848l-.703 1.076.703-1.076c-.001-.001-.027-.018-.089-.066a12.603 12.603 0 0 1-.215-.171l-.047-.037a13.736 13.736 0 0 0-.55-.428 4.707 4.707 0 0 0-.393-.26 2.66 2.66 0 0 0-.687-.287c-.246-.061-1.158-.236-1.915.501-.686.668-.619 1.504-.599 1.706a1.915 1.915 0 0 0 1.7 1.712Z" clip-rule="evenodd" style="fill:#005840;fill:color(display-p3 0 .3451 .251);fill-opacity:1"/><path fill="#005840" fill-rule="evenodd" d="M124.46 114.9c-1.99.359-3.78.717-4.843 1.086a1.912 1.912 0 1 1-1.257-3.613c1.4-.487 3.502-.892 5.421-1.238l1.306-.233c1.5-.265 2.833-.502 3.759-.73.213-.052.447-.113.694-.178.704-.184 1.519-.396 2.299-.528.551-.093 1.181-.23 1.887-.385l.02-.004c.68-.149 1.425-.312 2.138-.436a1.912 1.912 0 0 1 .654 3.769c-.623.108-1.291.254-1.994.408l-.028.006c-.674.148-1.39.305-2.041.414-.602.102-1.163.248-1.805.416-.284.074-.583.152-.909.233-1.062.262-2.577.53-4.1.799-.402.071-.805.142-1.201.214Zm-19.401 1.924a2.13 2.13 0 0 1 1.421-.108 1.914 1.914 0 0 1 1.335 2.441c.286.763.47 1.508.622 2.169l.092.404c.124.543.231 1.017.376 1.502.727 2.424 1.473 5.12 2.063 7.515a1.912 1.912 0 1 1-3.714.916 160.495 160.495 0 0 0-2.013-7.333c-.187-.622-.329-1.251-.454-1.802a23.244 23.244 0 0 0-.078-.343c-.151-.656-.294-1.212-.497-1.739l-.007-.019c-.05-.128-.234-.6-.319-1.061l-.001-.005c-.032-.169-.14-.753.085-1.364.145-.39.468-.894 1.089-1.173Z" clip-rule="evenodd" style="fill:#005840;fill:color(display-p3 0 .3451 .251);fill-opacity:1"/><path fill="#005840" fill-rule="evenodd" d="M107.857 129.877a1.912 1.912 0 0 1 2.704.084c.323.343 1.578 1.42 2.004 1.726l.532.385c.761.552 1.45 1.052 2.15 1.444 1.188.666 2.289 1.407 3.333 2.111l.682.458c.896.597 1.692 1.025 2.571 1.478l.447.228c.741.379 1.566.8 2.502 1.34.2.092.468.208.787.346.322.14.696.303 1.105.485.738.329 1.703.77 2.232 1.131a1.913 1.913 0 1 1-2.155 3.16c-.182-.124-.784-.419-1.634-.797-.314-.14-.662-.291-.988-.433-.422-.184-.807-.351-1.036-.458l-.078-.036-.075-.044a47.497 47.497 0 0 0-2.378-1.275l-.478-.245c-.924-.475-1.869-.98-2.944-1.698l-.745-.499c-1.036-.697-1.979-1.332-3.018-1.914-.917-.514-1.83-1.178-2.595-1.735l-.449-.325c-.585-.42-2.037-1.657-2.56-2.214a1.912 1.912 0 0 1 .084-2.703Zm11.009-14.47c.266.13.647.337 1.066.573a74.694 74.694 0 0 1 1.554.905l.237.14.667.369c.711.396 1.468.817 2.235 1.197 1.695.84 3.351 1.725 5.039 2.627l1.317.703c.74.393 1.454.809 2.209 1.248l.416.242c.539.312 1.097.571 1.566.788l.115.053c.522.242.938.441 1.311.672.616.382 1.297.664 1.807.876l.219.092c.597.251.964.433 1.236.651a1.913 1.913 0 1 0 2.39-2.987c-.726-.581-1.535-.934-2.139-1.189l-.264-.111c-.532-.223-.9-.377-1.236-.585-.593-.367-1.204-.653-1.714-.889l-.08-.037c-.505-.234-.911-.423-1.291-.643l-.399-.232a70.302 70.302 0 0 0-2.349-1.327l-1.286-.685c-1.693-.906-3.415-1.826-5.168-2.695-.678-.336-1.322-.694-2.011-1.077-.243-.135-.491-.273-.748-.414a83.032 83.032 0 0 0-1.753-1.024 25.94 25.94 0 0 0-1.303-.697 5.094 5.094 0 0 0-.64-.267l-.007-.002a2.202 2.202 0 0 0-.764-.107 1.932 1.932 0 0 0-1.832 2.254 1.914 1.914 0 0 0 1.6 1.578Z" clip-rule="evenodd" style="fill:#005840;fill:color(display-p3 0 .3451 .251);fill-opacity:1"/><path fill="#005840" fill-rule="evenodd" d="M125.749 128.997a1.913 1.913 0 0 0-2.493-2.317c.128-.046-.089.03-.167.062-.05.021-.183.076-.33.165-.067.04-.227.142-.393.311a1.932 1.932 0 0 0-.551 1.456c.034.617.184 1.162.321 1.584.063.195.132.387.189.548l.014.04c.065.18.116.327.16.467.272.863.548 1.699.819 2.52.696 2.106 1.358 4.112 1.823 6.208.023.099.045.203.069.311.185.852.422 1.947.878 2.957a1.913 1.913 0 1 0 3.487-1.575c-.28-.619-.43-1.302-.63-2.21a51.777 51.777 0 0 0-.069-.312c-.51-2.299-1.264-4.581-1.98-6.749-.258-.783-.512-1.55-.747-2.298a17.093 17.093 0 0 0-.216-.631 17.906 17.906 0 0 1-.158-.457l-.026-.08Z" clip-rule="evenodd" style="fill:#005840;fill:color(display-p3 0 .3451 .251);fill-opacity:1"/><path fill="#005840" fill-rule="evenodd" d="M125.145 130.415a59.608 59.608 0 0 0 3.275-.593c1.835-.376 3.689-.688 5.58-1.005.431-.072.947-.147 1.495-.226.845-.122 1.764-.254 2.557-.406 1.425-.272 2.952-.678 4.374-1.451a1.913 1.913 0 0 0-1.827-3.362c-.922.502-2.01.816-3.264 1.055-.777.149-1.466.246-2.19.349-.553.078-1.127.159-1.777.268-1.882.316-3.802.638-5.716 1.03a51.903 51.903 0 0 1-3.418.605l-.107.015h-.002a2.346 2.346 0 0 0-.16.028l-.002.001a1.907 1.907 0 0 0-1.097.677 1.908 1.908 0 0 0 .034 2.433c.316.374.692.518.755.542l.005.002c.118.046.215.071.256.08.084.021.153.031.171.034h.001l.056.008h.006c.345.063.686.028.995-.084Zm-.473.066.004-.001c-.009.001-.012.002-.004.001Zm-2.408-14.871-16.436 4.053a1.912 1.912 0 1 1-.916-3.715l16.436-4.052a1.912 1.912 0 1 1 .916 3.714Z" clip-rule="evenodd" style="fill:#005840;fill:color(display-p3 0 .3451 .251);fill-opacity:1"/><path fill="#005840" d="m143.324 89.465 16.426-4.05 4.06 16.467-16.426 4.05-4.06-16.467Zm44.907-10.942 13.64-3.363 5.363-.622-7.579 43.13-21.543 5.312 10.119-44.457Z" style="fill:#005840;fill:color(display-p3 0 .3451 .251);fill-opacity:1"/><path fill="#005840" fill-rule="evenodd" d="M153.335 87.468c-.979.317-1.979.641-2.973.892-1.005.254-2.013.5-3.019.746l-1.502.369c-.283.07-.638.098-.932.122l-.246.02c-.39.039-.615.094-.732.17a.637.637 0 1 1-.697-1.067c.409-.267.928-.335 1.305-.371.135-.014.256-.023.367-.032.257-.021.455-.037.63-.08.504-.124 1.007-.248 1.51-.37a438.71 438.71 0 0 0 3.004-.743c.949-.24 1.893-.546 2.864-.86.298-.097.599-.195.903-.291 1.278-.407 2.6-.791 3.951-.985l.069-.01c.237-.034.78-.114 1.306-.15.29-.021.605-.031.872-.007.133.013.283.035.424.084a.894.894 0 0 1 .498.388c.199.35.245.735.268 1.012.009.1.014.186.019.263.012.175.02.3.049.424l.1.434c.17.726.343 1.47.462 2.239.056.362.146.725.248 1.114l.036.14c.09.34.186.704.258 1.073.083.424.078.837.069 1.19l-.004.14a6.31 6.31 0 0 0 .011.833 25.94 25.94 0 0 0 .633 3.635c.105.427.238.849.377 1.292l.004.012c.137.433.28.886.394 1.35a7.172 7.172 0 0 0 .061.184c.029.088.072.22.097.356a1.02 1.02 0 0 1-.056.595.83.83 0 0 1-.695.483c-.145.015-.328.072-.584.168l-.122.045c-.207.079-.458.175-.695.234-1.966.484-3.809 1.079-5.736 1.748l-.019.006c-1.412.49-2.947 1.023-4.578 1.083-.213.007-.53.099-.98.257l-.259.092a12.97 12.97 0 0 1-1.139.37c-.471.122-1.035.21-1.557.053-.586-.177-.999-.622-1.199-1.299-.189-.64-.395-1.292-.604-1.955-.579-1.832-1.182-3.738-1.504-5.645l-.052-.309c-.185-1.1-.352-2.101-.771-3.035-.277-.618-.295-1.184-.292-1.661l.002-.196c.005-.4.009-.716-.078-1.068a.638.638 0 0 1 1.238-.306c.129.523.122 1.014.116 1.408l-.003.17c-.003.435.02.773.18 1.13.49 1.093.684 2.256.863 3.33l.054.325c.307 1.812.869 3.59 1.439 5.395.215.68.431 1.364.635 2.056.098.332.233.406.344.439.174.052.454.041.87-.066.32-.083.648-.2.997-.325l.297-.106c.423-.149.919-.313 1.357-.329 1.415-.051 2.777-.516 4.225-1.019 1.942-.674 3.828-1.283 5.849-1.782.154-.038.314-.098.519-.176l.156-.059a6.4 6.4 0 0 1 .427-.145 2.19 2.19 0 0 1-.041-.141c-.104-.422-.236-.84-.376-1.284l-.001-.005a21.669 21.669 0 0 1-.398-1.364 27.263 27.263 0 0 1-.664-3.81 7.681 7.681 0 0 1-.017-1.008l.004-.13c.009-.348.008-.637-.046-.911a15.928 15.928 0 0 0-.239-.993l-.037-.142a12.42 12.42 0 0 1-.275-1.243c-.11-.715-.271-1.405-.44-2.13l-.104-.451c-.054-.233-.071-.508-.085-.715l-.011-.153a2.332 2.332 0 0 0-.044-.32 4.577 4.577 0 0 0-.658.01c-.474.033-.967.105-1.209.14l-.075.01c-1.24.178-2.478.535-3.745.938-.287.091-.577.185-.868.28Zm29.12 13.313a.637.637 0 0 1 .543.72c-.111.799-.409 1.547-.727 2.232-.14.3-.276.574-.407.838-.187.376-.364.732-.526 1.115-.327.77-.72 1.51-1.109 2.226l-.186.34a38.718 38.718 0 0 0-.935 1.782c-.695 1.446-1.823 2.809-2.886 3.91-.168.174-.353.35-.526.516-.08.077-.158.151-.23.222a6.324 6.324 0 0 0-.635.693c-.199.26-.361.544-.548.871l-.054.093c-.202.353-.435.75-.748 1.116-1.243 1.453-2.712 2.72-4.129 3.943-.424.366-.844.729-1.251 1.091l-.404.361c-.761.683-1.525 1.37-2.459 1.969-1.023.657-2.071 1.242-3.11 1.822l-.37.207c-1.175.657-2.304 1.234-3.683 1.592-.877.228-1.651.578-2.435 1.055-.258.157-.79.381-1.303.491-.256.054-.563.094-.854.051-.295-.043-.69-.195-.878-.624-.206-.469-.291-.96-.351-1.391a50.902 50.902 0 0 1-.042-.317 7.755 7.755 0 0 0-.144-.867l-1.425-5.782c-.2-.808-.451-1.604-.71-2.419l-.032-.099a43.21 43.21 0 0 1-.711-2.389 24.774 24.774 0 0 1-.14-.588c-.099-.434-.185-.81-.347-1.181a3.43 3.43 0 0 1-.18-.641 1.509 1.509 0 0 1-.022-.229.824.824 0 0 1 .082-.383.681.681 0 0 1 .732-.368.846.846 0 0 1 .409.21.638.638 0 0 1 .12.814.951.951 0 0 0 .026.08c.002.008.003.01.001.006.215.489.341 1.044.449 1.518.037.159.071.31.106.445a41.719 41.719 0 0 0 .722 2.418c.258.812.522 1.645.733 2.5l1.425 5.782c.086.35.135.725.177 1.056l.034.259c.05.358.107.663.207.933.078.002.193-.009.345-.041a3.63 3.63 0 0 0 .908-.333c.872-.531 1.76-.936 2.777-1.201 1.216-.315 2.23-.826 3.381-1.47l.37-.207c1.043-.582 2.056-1.148 3.045-1.782.839-.54 1.519-1.149 2.281-1.833l.423-.378c.438-.389.878-.769 1.314-1.145 1.402-1.211 2.77-2.392 3.944-3.764.227-.265.409-.568.611-.921l.057-.099a9.01 9.01 0 0 1 .636-1.004c.236-.31.505-.585.76-.834.091-.089.179-.172.263-.253.163-.156.315-.301.465-.457 1.027-1.063 2.047-2.311 2.655-3.576.302-.629.64-1.247.969-1.849l.18-.331c.388-.712.755-1.406 1.056-2.114.171-.402.384-.834.589-1.248.128-.259.253-.512.362-.745.302-.649.535-1.26.62-1.871a.637.637 0 0 1 .72-.543Z" clip-rule="evenodd" style="fill:#005840;fill:color(display-p3 0 .3451 .251);fill-opacity:1"/><path fill="#005840" fill-rule="evenodd" d="M168.584 83.194c.014.042.027.09.037.132a.63.63 0 0 1 .005.283c.004.036.008.08.008.112.006.457-.072.88-.157 1.265a19.123 19.123 0 0 0-.42 4.004c-.01 1.917-.379 3.552-.918 5.322-.075.248-.148.495-.221.742-.407 1.379-.809 2.743-1.617 4.109-1.819 3.074-3.718 6.049-6.293 8.66-2.387 2.42-5.474 4.168-8.679 5.174a.636.636 0 1 1-.382-1.216c3.035-.953 5.932-2.602 8.153-4.853 2.459-2.494 4.293-5.356 6.104-8.415.72-1.218 1.074-2.414 1.482-3.792.075-.253.152-.513.233-.78.521-1.712.854-3.214.862-4.957.007-1.424.142-2.867.451-4.272.078-.353.129-.659.127-.962l-.007-.064-.002-.017a6.007 6.007 0 0 1-.022-.25c0-.016-.001-.05.003-.09a.6.6 0 0 1 .062-.23.636.636 0 0 1 .98-.219c.098.08.147.17.158.19v.002c.031.055.048.106.053.12v.002Z" clip-rule="evenodd" style="fill:#005840;fill:color(display-p3 0 .3451 .251);fill-opacity:1"/><path fill="#005840" fill-rule="evenodd" d="M168.854 82.96c.039-.006.087-.012.146-.017.135-.012.282-.017.425-.022l.036-.001c.114-.004.26-.008.357-.022.917-.13 1.85-.282 2.775-.433.675-.11 1.345-.22 2-.32.301-.045.618-.089.945-.135a42.82 42.82 0 0 0 2.511-.402c1.191-.24 2.402-.587 3.45-1.187a.637.637 0 1 0-.634-1.107c-.875.501-1.933.816-3.067 1.044a40.56 40.56 0 0 1-2.395.383c-.336.047-.67.094-1 .144-.694.105-1.372.216-2.046.326-.904.148-1.801.295-2.717.424l-.074.005-.16.006h-.022a8.97 8.97 0 0 0-.497.027 2.425 2.425 0 0 0-.558.104.984.984 0 0 0-.351.203.746.746 0 0 0-.237.63.637.637 0 0 0 1.113.35Zm-.109.023.001-.001Z" clip-rule="evenodd" style="fill:#005840;fill:color(display-p3 0 .3451 .251);fill-opacity:1"/><path fill="#005840" fill-rule="evenodd" d="M181.491 79.563a.87.87 0 0 1 .458.121c.275.154.392.48.291.768l.027.051.041.073c.037.067.078.14.099.184.572 1.161.736 2.511.875 3.656l.03.242c.117.949.194 1.904.27 2.84.035.442.071.88.11 1.31.123 1.36.285 2.686.609 4a.637.637 0 1 1-1.238.305c-.347-1.408-.516-2.81-.641-4.19-.042-.457-.078-.908-.114-1.356-.075-.921-.148-1.83-.262-2.753l-.023-.187c-.147-1.2-.287-2.344-.76-3.304l-.002-.004-.008-.015-.026-.047-.019-.035a4.01 4.01 0 0 1-.058-.105 4.81 4.81 0 0 1-.189-.372 1.85 1.85 0 0 1-.083-.223.878.878 0 0 1-.031-.383.679.679 0 0 1 .644-.576Zm-.164 1.235.004.002-.004-.002Z" clip-rule="evenodd" style="fill:#005840;fill:color(display-p3 0 .3451 .251);fill-opacity:1"/><path fill="#005840" fill-rule="evenodd" d="M188.526 78.605a.637.637 0 0 1 .367.824c-.729 1.901-1.168 3.862-1.619 5.873-.218.972-.438 1.956-.696 2.951l-.12.475c-.212.84-.434 1.722-.797 2.577-.061.144-.137.299-.207.442l-.032.067a7.22 7.22 0 0 0-.222.487c-.134.336-.16.547-.128.676a.638.638 0 0 1-1.238.305c-.132-.535.027-1.066.182-1.454.081-.204.176-.401.259-.572l.035-.072c.071-.146.13-.267.177-.378.321-.755.516-1.527.728-2.366l.129-.506c.235-.908.445-1.846.658-2.796.463-2.06.938-4.178 1.7-6.166a.638.638 0 0 1 .824-.367Z" clip-rule="evenodd" style="fill:#005840;fill:color(display-p3 0 .3451 .251);fill-opacity:1"/><path fill="#005840" fill-rule="evenodd" d="M190.666 78.386c-.788.154-1.508.346-2.128.668a.638.638 0 0 1-.589-1.131c.785-.408 1.647-.628 2.473-.788.377-.074.727-.132 1.064-.189a24.67 24.67 0 0 0 1.313-.244c2.029-.451 4.039-.883 6.12-1.196l.607-.09c2.493-.374 5.003-.75 7.404-1.342a.638.638 0 0 1 .306 1.238c-2.462.607-5.03.992-7.51 1.363l-.617.092c-2.033.306-4.006.729-6.033 1.18-.449.1-.955.186-1.447.269-.336.056-.665.112-.963.17Zm16.493-2.811a.638.638 0 0 1 .41.803c-.744 2.292-1.201 4.688-1.663 7.107-.177.931-.356 1.866-.552 2.8-.538 2.57-.982 5.148-1.429 7.749l-.061.354c-.137.8-.259 1.615-.382 2.438-.248 1.66-.5 3.348-.896 4.999-.223.928-.387 1.869-.546 2.829l-.074.447a63.521 63.521 0 0 1-.437 2.458l-.065.316c-.255 1.241-.493 2.402-.547 3.614l-.012.279c-.085 1.957-.17 3.9-1.035 5.869a.638.638 0 1 1-1.167-.513c.767-1.745.843-3.47.931-5.484l.009-.207c.059-1.319.317-2.577.569-3.8l.068-.329c.162-.795.293-1.593.427-2.404l.075-.455c.159-.963.33-1.942.564-2.917.383-1.6.62-3.19.863-4.815.124-.835.25-1.68.398-2.541l.063-.362c.446-2.595.893-5.194 1.436-7.787.186-.883.358-1.788.533-2.702.467-2.447.947-4.963 1.717-7.337a.638.638 0 0 1 .803-.41Zm-9.123 42.401a19.396 19.396 0 0 0-3.791.935c-1.174.418-2.357.804-3.533 1.185l-.353.114c-1.059.343-2.112.684-3.158 1.045-1.227.423-2.459.841-3.689 1.258-.825.28-1.648.559-2.469.84a5.228 5.228 0 0 1-.808.204.634.634 0 0 1-.647.236l-.011-.002c-.05-.01-.245-.05-.366-.091-.032-.011-.111-.038-.191-.089a.653.653 0 0 1 .047-1.138.754.754 0 0 1 .16-.061 1.47 1.47 0 0 1 .209-.035c.449-.045.816-.102 1.195-.231a726.22 726.22 0 0 1 2.478-.842c1.226-.416 2.45-.832 3.676-1.255 1.058-.365 2.123-.71 3.181-1.052l.353-.114a130.45 130.45 0 0 0 3.499-1.173 20.571 20.571 0 0 1 4.037-.996.636.636 0 0 1 .721.541.636.636 0 0 1-.54.721Z" clip-rule="evenodd" style="fill:#005840;fill:color(display-p3 0 .3451 .251);fill-opacity:1"/><path fill="#005840" fill-rule="evenodd" d="M183.185 101.256a.638.638 0 0 1 .167.886c-.073.108-.091.196-.145.52-.178 1.084-.401 2.152-.621 3.211-.261 1.251-.542 2.473-.821 3.688-.375 1.634-.747 3.254-1.064 4.915-.147.773-.304 1.532-.46 2.287-.28 1.359-.558 2.7-.768 4.067l-.039.257c-.116.736-.221 1.412-.158 2.045a.637.637 0 1 1-1.269.127c-.081-.808.053-1.655.166-2.366l.04-.257c.214-1.395.504-2.798.789-4.181.155-.746.308-1.487.447-2.218.316-1.661.702-3.343 1.085-5.012.279-1.216.556-2.424.803-3.612.222-1.063.439-2.105.612-3.159l.01-.061c.042-.261.099-.617.34-.97a.638.638 0 0 1 .886-.167Z" clip-rule="evenodd" style="fill:#005840;fill:color(display-p3 0 .3451 .251);fill-opacity:1"/><path fill="#005840" d="m168.351 81.24 12.423-3.063 7.383 23.2-18.704 19.934-7.84 4.516-7.852 3.665-5.003-16.563 8.613-4.575 6.534-7.149 3.677-10.122.769-9.843Z" style="fill:#005840;fill:color(display-p3 0 .3451 .251);fill-opacity:1"/><path fill="#005840" fill-rule="evenodd" d="M156.5 277a7 7 0 0 1 7 7c0 .255.058.686.446 1.612.2.479.443.988.775 1.671l.082.168c.294.604.659 1.355.999 2.132.475 1.087.873 2.506 1.133 3.433l.018.064.158.564c.264.946.51 1.826.781 2.673.154.482.288.861.4 1.152a7 7 0 0 1-5.11 12.483c-2.353-.277-3.982-1.503-4.894-2.4-.915-.9-1.536-1.879-1.939-2.606-.806-1.453-1.386-3.095-1.792-4.363-.358-1.121-.686-2.298-.948-3.238l-.135-.483c-.15-.534-.271-.953-.375-1.288-.09-.29-.134-.403-.134-.404l.011.025a45.782 45.782 0 0 0-.787-1.669l-.06-.124c-.324-.667-.727-1.5-1.097-2.385-.754-1.799-1.532-4.173-1.532-7.017a7 7 0 0 1 7-7Zm12.092 21.156-.001-.003c.018.029.018.033.001.003Z" clip-rule="evenodd" style="fill:#005840;fill:color(display-p3 0 .3451 .251);fill-opacity:1"/><path fill="#005840" fill-rule="evenodd" d="M190.081 289.528a7 7 0 0 1-2.605 9.551c-4.343 2.482-11.138 5.344-15.857 6.98a51.372 51.372 0 0 1-3.406 1.068c-.778.209-2.243.586-3.671.575a7.855 7.855 0 0 1-2.057-.282 7.21 7.21 0 0 1-3.924-2.723c-1.551-2.151-1.511-4.497-1.099-6.033a7.515 7.515 0 0 1 1.321-2.644c.66-.855 1.415-1.465 1.819-1.778a22.771 22.771 0 0 1 1.616-1.129 6.988 6.988 0 0 1 6.069-.729c4.077-1.494 9.217-3.731 12.243-5.461a7.001 7.001 0 0 1 9.551 2.605Zm-20.884 15.765Z" clip-rule="evenodd" style="fill:#005840;fill:color(display-p3 0 .3451 .251);fill-opacity:1"/><path fill="#005840" fill-rule="evenodd" d="M165.165 303.36a7 7 0 0 1-4.522 8.806c-1.675.538-3.126 1.149-4.845 1.872-.854.359-1.773.745-2.817 1.165-2.871 1.151-6.32 2.368-10.284 2.764a7 7 0 1 1-1.393-13.93c1.984-.199 3.976-.83 6.464-1.828.593-.238 1.262-.519 1.984-.822 1.969-.826 4.33-1.817 6.606-2.549a7 7 0 0 1 8.807 4.522Z" clip-rule="evenodd" style="fill:#005840;fill:color(display-p3 0 .3451 .251);fill-opacity:1"/><path fill="#005840" fill-rule="evenodd" d="M170.248 307.381a6.999 6.999 0 0 0-7.303-8.858c-1.076.086-2.62.369-4.136 1.327a7.909 7.909 0 0 0-3.428 4.647c-.458 1.704-.26 3.194-.057 4.102.211.945.54 1.748.803 2.316.49 1.055 1.124 2.063 1.48 2.629l.041.067c.324.515.44.714.46.74.534 1.294 1.016 2.656 1.554 4.197l.127.365c.506 1.454 1.072 3.078 1.715 4.687a7 7 0 1 0 12.999-5.199c-.52-1.301-.986-2.637-1.514-4.153l-.108-.309c-.552-1.585-1.176-3.36-1.918-5.136a12.563 12.563 0 0 0-.715-1.422Zm-1.419-2.356-.003-.004c-.007-.016-.005-.014.003.004Zm92.331-54.346c1.297.722 5.324 3.435 4.62 8.6-.481 3.527-2.743 5.76-4.456 6.916a12.485 12.485 0 0 1-5.646 2.045 8.45 8.45 0 0 1-2.59-.16 11.9 11.9 0 0 1-1.43-.403 15.826 15.826 0 0 1-2.356-1.04 11.921 11.921 0 0 1-1.271-.794 8.428 8.428 0 0 1-1.883-1.843 8.001 8.001 0 0 1-1.124-2.3 6.96 6.96 0 0 1-1.024-3.647c0-4.52 3.109-7.127 5.563-8.157 2.192-.92 4.465-.984 6.12-.833 1.701.155 3.695.626 5.477 1.616Zm-14 28c1.297.722 5.324 3.435 4.62 8.6-.481 3.527-2.743 5.76-4.456 6.916a12.485 12.485 0 0 1-5.646 2.045 8.45 8.45 0 0 1-2.59-.16 11.9 11.9 0 0 1-1.43-.403 15.826 15.826 0 0 1-2.356-1.04 11.921 11.921 0 0 1-1.271-.794 8.428 8.428 0 0 1-1.883-1.843 8.001 8.001 0 0 1-1.124-2.3 6.96 6.96 0 0 1-1.024-3.647c0-4.52 3.109-7.127 5.563-8.157 2.192-.92 4.465-.984 6.12-.833 1.701.155 3.695.626 5.477 1.616ZM35.682 216.676c-2.072.549-4.18 1.108-6.37 1.641-2.7.658-5.41 1.265-8.088 1.865l-.37.083c-2.809.63-5.583 1.254-8.335 1.935a30.33 30.33 0 0 1-1.591.332l-.02.004c-.531.101-1.013.193-1.479.301-1.014.237-1.511.461-1.705.609a3.016 3.016 0 0 1-3.656-4.798c1.278-.974 2.86-1.422 3.994-1.685.586-.137 1.172-.248 1.668-.343l.052-.01c.538-.102.948-.182 1.289-.266 2.825-.699 5.661-1.337 8.464-1.965l.353-.079a443.114 443.114 0 0 0 7.997-1.843c1.936-.472 3.916-.996 5.928-1.528 4.264-1.129 8.667-2.294 13.078-3.073a3.016 3.016 0 1 1 1.05 5.94c-4.167.736-8.14 1.789-12.259 2.88Z" clip-rule="evenodd" style="fill:#005840;fill:color(display-p3 0 .3451 .251);fill-opacity:1"/><path fill="#005840" fill-rule="evenodd" d="M45.568 210.29a3.017 3.017 0 0 1 3.677-2.162c1.566.407 2.96 1.148 4.099 1.815.51.299.94.564 1.336.807a29.25 29.25 0 0 0 1.725 1.007l1.81.954c2.231 1.176 4.471 2.356 6.702 3.549a3.016 3.016 0 1 1-2.845 5.319 1155.91 1155.91 0 0 0-6.66-3.526l-1.82-.96c-.746-.393-1.592-.91-2.328-1.36-.357-.218-.688-.42-.97-.585-1.015-.596-1.827-.99-2.564-1.181a3.016 3.016 0 0 1-2.162-3.677Z" clip-rule="evenodd" style="fill:#005840;fill:color(display-p3 0 .3451 .251);fill-opacity:1"/><path fill="#005840" fill-rule="evenodd" d="M28.893 230.779c-4.054.927-8.117 1.857-12.198 2.766a3.015 3.015 0 1 1-1.312-5.887c4.006-.893 8.021-1.812 12.047-2.733 11.97-2.739 24.029-5.498 36.183-7.645a3.016 3.016 0 1 1 1.05 5.94c-11.992 2.118-23.84 4.829-35.77 7.559ZM5.647 218.505a3.015 3.015 0 0 1 2.933 3.096c-.078 2.861.446 5.731 1.02 8.879.168.917.34 1.857.502 2.828.47 2.812.97 5.61 1.473 8.427.207 1.158.414 2.319.62 3.485.536 3.037.969 6.08 1.393 9.064l.003.022c.428 3.007.848 5.955 1.364 8.88a3.015 3.015 0 1 1-5.94 1.049c-.535-3.032-.968-6.071-1.392-9.053l-.004-.027c-.427-3.007-.847-5.957-1.364-8.886-.202-1.142-.407-2.29-.612-3.44-.505-2.831-1.014-5.68-1.49-8.526-.126-.756-.273-1.552-.425-2.379-.594-3.233-1.274-6.93-1.178-10.487a3.015 3.015 0 0 1 3.097-2.932Z" clip-rule="evenodd" style="fill:#005840;fill:color(display-p3 0 .3451 .251);fill-opacity:1"/><path fill="#005840" fill-rule="evenodd" d="M19.652 233.104a3.016 3.016 0 0 0-5.485-2.506c-.735 1.539-.58 3.291-.463 4.255.067.555.16 1.1.235 1.535l.005.028c.083.483.134.792.158 1.023.595 5.818 1.486 11.555 2.512 17.257.659 3.658 1.55 7.243 2.413 10.717l.042.169c.884 3.559 1.736 7.005 2.352 10.49a3.016 3.016 0 1 0 5.94-1.049c-.657-3.721-1.56-7.365-2.438-10.896l-.02-.082c-.879-3.534-1.73-6.956-2.352-10.418-1.01-5.611-1.875-11.186-2.449-16.802a20.392 20.392 0 0 0-.204-1.376l-.009-.051c-.079-.463-.149-.873-.196-1.268a5.595 5.595 0 0 1-.052-.896c.003-.062.008-.104.011-.13Z" clip-rule="evenodd" style="fill:#005840;fill:color(display-p3 0 .3451 .251);fill-opacity:1"/><path fill="#005840" fill-rule="evenodd" d="M73.93 266.571a3.016 3.016 0 0 1-2.181 3.666c-3.766.956-7.498 2.054-11.293 3.171l-1.237.363c-4.2 1.234-8.478 2.471-12.83 3.492-2.991.703-5.995 1.216-8.913 1.699l-.887.146c-2.632.434-5.185.855-7.715 1.389a3.015 3.015 0 1 1-1.246-5.901c2.67-.564 5.36-1.008 7.972-1.438l.892-.147c2.918-.483 5.744-.968 8.518-1.62 4.173-.98 8.307-2.173 12.509-3.407l1.242-.365c3.779-1.112 7.62-2.243 11.503-3.229a3.017 3.017 0 0 1 3.665 2.181Z" clip-rule="evenodd" style="fill:#005840;fill:color(display-p3 0 .3451 .251);fill-opacity:1"/><path fill="#005840" fill-rule="evenodd" d="M61.192 219.739c.408-.799 1.406-1.931 3.102-1.905a3.016 3.016 0 0 1 2.417 4.756c.011.285.04.654.094 1.1.14 1.173.364 2.32.509 3.062.047.241.086.44.11.582 1.113 6.403 2.577 12.769 4.205 19.12.254.993.53 2.011.809 3.049.78 2.892 1.6 5.935 2.14 8.996.415 2.347.74 3.882 1.615 5.442a3.016 3.016 0 0 1-5.26 2.953c-1.432-2.552-1.884-5.021-2.294-7.346-.49-2.777-1.206-5.432-1.963-8.237-.294-1.092-.594-2.206-.89-3.359-1.652-6.442-3.156-12.973-4.304-19.585a14.217 14.217 0 0 0-.044-.226c-.12-.61-.447-2.261-.623-3.737-.103-.867-.19-1.926-.108-2.846.037-.424.132-1.13.485-1.819Zm5.53 2.292ZM9.904 263.476a3.018 3.018 0 0 1 5.479.2l.04.062c.153.227.32.462.343.493l.003.004c.635.869 1.439 1.471 2.667 2.39.244.183.506.379.786.592a229.066 229.066 0 0 1 3.819 2.984c2.014 1.596 3.948 3.131 6.07 4.616a3.016 3.016 0 1 1-3.458 4.942c-2.238-1.566-4.457-3.324-6.592-5.014-1.193-.944-2.36-1.868-3.489-2.725-.178-.136-.373-.28-.58-.433-1.224-.905-2.873-2.123-4.093-3.792-.037-.051-.27-.376-.488-.702a10.398 10.398 0 0 1-.358-.568 4.077 4.077 0 0 1-.26-.531c0-.002 0-.005-.002-.007a3.147 3.147 0 0 1-.211-.955 3.038 3.038 0 0 1 .324-1.556ZM4.732 223.7l.024.024.225.226c.193.194.455.46.731.742a51.724 51.724 0 0 1 1.274 1.33c.089.103.185.215.287.336.624.733 1.495 1.757 2.509 2.563 1.222.972 2.565 1.612 3.75 2.094.595.243 1.191.462 1.729.659l.03.011c.542.198 1.022.374 1.48.559a3.017 3.017 0 0 0 2.258-5.593c-.551-.223-1.114-.429-1.627-.617l-.067-.024a48.125 48.125 0 0 1-1.527-.58c-.967-.395-1.703-.778-2.271-1.23-.519-.412-.96-.925-1.601-1.673a92.85 92.85 0 0 0-.388-.451c-.298-.345-.996-1.063-1.527-1.606a200.54 200.54 0 0 0-1.002-1.013l-.079-.079-.045-.044-.065-.06v-.001a3.14 3.14 0 0 0-.27-.218 5.414 5.414 0 0 0-.325-.203c-.232-.113-1.227-.356-1.995-.311-1.533.793-2.453 3.091-2.314 3.876.161.508.444.943.806 1.283Z" clip-rule="evenodd" style="fill:#005840;fill:color(display-p3 0 .3451 .251);fill-opacity:1"/><path fill="#005840" fill-rule="evenodd" d="M6.969 230.439a3.016 3.016 0 0 1 2.573-3.402c2.076-.288 3.953.532 5.234 1.983.808.915 1.246 2.205.86 3.575-.309 1.09-1.03 1.792-1.42 2.128l-.027.024c.417.34.94.822 1.355 1.434.449.662 1.034 1.883.634 3.371-.06.223-.134.43-.216.62a3.944 3.944 0 0 1 1.673 2.053c.356.982.264 1.913.094 2.592-.17.678-.464 1.296-.76 1.818-.14.249-.325.495-.408.607l-.003.004a32.92 32.92 0 0 1-.206.271c.762.599 1.274 1.408 1.547 2.332.284.96.205 1.837.027 2.532.221.131.466.306.702.539.915.901 1.16 2.016 1.131 2.888a4.638 4.638 0 0 1-.14.975c.373.255.732.598 1.023 1.06.65 1.03.605 2.083.486 2.714-.015.08-.032.158-.05.235.65.646.961 1.479 1.027 2.253.084.995-.134 1.889-.266 2.397-.07.268-.12.453-.159.591-.06.218-.089.321-.109.457a3.016 3.016 0 0 1-5.978-.802 3.198 3.198 0 0 1-1.83-2.594c-.062-.63.072-1.14.155-1.405a4.45 4.45 0 0 1 .209-.529 3.47 3.47 0 0 1-1.192-1.526c-.404-1.004-.258-1.934-.037-2.592-.605-.359-1.445-1.073-1.674-2.37-.17-.963.01-1.786.209-2.364l.008-.024a4.335 4.335 0 0 1-.225-.059c-.281-.082-1.16-.353-1.823-1.198a3.194 3.194 0 0 1-.675-1.98c.001-.455.096-.826.163-1.045.135-.441.336-.823.475-1.069.298-.526.695-1.089 1.035-1.55l.222-.298a3.565 3.565 0 0 1-1.401-.843 3.347 3.347 0 0 1-.987-2.088c-.118-1.284.516-2.303.795-2.728a6.75 6.75 0 0 1 .467-.623l-.23-.144-.143-.09c-.1-.062-.225-.141-.349-.224a60.48 60.48 0 0 0-.194-.107 7.47 7.47 0 0 1-.836-.528c-.26-.193-.882-.679-1.274-1.489a3.398 3.398 0 0 1-.326-1.831 3.42 3.42 0 0 1 .765-1.819 5.33 5.33 0 0 1 .682-.686 3.006 3.006 0 0 1-.613-1.446Zm3.293-.272c.025-.023.031-.026.011-.008l-.01.008Zm.217 7.507-.005.008.005-.008Zm4.755 20.07Zm-1.454-2.473a.106.106 0 0 1 .007-.019l-.007.019Zm1.478 3.96-.004.009a.082.082 0 0 1 .004-.009Zm4.325 4.498.003-.006-.003.006Zm-6.83-17.331.008.002-.008-.002Zm1.828 3.551a.056.056 0 0 1-.005.01l.005-.01Zm-.54-7.179.003-.005-.003.005Zm20.046-8.698c.525.301.88.7 1.036.882.737.858.907 2.01.546 3.002.185 1.048.367 2.091.549 3.132.383 2.194.765 4.377 1.164 6.566.776 4.261 1.772 8.498 2.786 12.808.12.513.242 1.027.362 1.543a3.015 3.015 0 0 1-5.872 1.377l-.363-1.543c-1.01-4.29-2.043-8.683-2.848-13.105-.402-2.208-.79-4.429-1.176-6.637-.192-1.098-.383-2.193-.576-3.282.006.034.014.081-.077-.308a9.961 9.961 0 0 1-.189-.991 4.632 4.632 0 0 1-.037-.819c.01-.17.034-.443.122-.757a3.16 3.16 0 0 1 .776-1.356 3.09 3.09 0 0 1 2.249-.937 3.192 3.192 0 0 1 1.548.425Zm1.325 2.68a.145.145 0 0 1 .001.005v-.005Z" clip-rule="evenodd" style="fill:#005840;fill:color(display-p3 0 .3451 .251);fill-opacity:1"/><path fill="#005840" fill-rule="evenodd" d="M40.35 266.888c-2.361.379-4.565.732-6.767 1.32l-.217.055a2.987 2.987 0 0 1-.78.235c-.26.046-.631.112-.88.128-.04.002-.11.006-.195.006-.06 0-.25 0-.488-.039a3.018 3.018 0 0 1-.791-5.715l.004-.002a3.106 3.106 0 0 1 .425-.161 6.37 6.37 0 0 1 .312-.083c.171-.042.339-.081.494-.117.216-.05.41-.095.56-.135 2.519-.672 5.195-1.102 7.672-1.499.92-.147 1.81-.29 2.657-.44a3.016 3.016 0 1 1 1.049 5.94c-1.054.186-2.068.349-3.055.507Zm12.963-31.331c-1.375.251-2.045.631-2.336.963a3.016 3.016 0 0 1-4.53-3.983c1.649-1.876 3.977-2.584 5.781-2.913 1.454-.266 3.017-.352 4.17-.415.285-.015.546-.03.773-.045a3.016 3.016 0 1 1 .405 6.018 74.41 74.41 0 0 1-1.066.064c-1.111.063-2.157.121-3.197.311Z" clip-rule="evenodd" style="fill:#005840;fill:color(display-p3 0 .3451 .251);fill-opacity:1"/><path fill="#005840" fill-rule="evenodd" d="M55.373 231.036a3.016 3.016 0 0 1 2.645 3.346c-.054.456-.02 1.061.105 1.89.061.403.136.815.219 1.267l.01.057c.077.419.162.883.23 1.336.507 3.336 1.086 6.591 1.909 9.752.242.929.503 1.878.769 2.845.728 2.65 1.494 5.433 1.997 8.281a3.015 3.015 0 1 1-5.94 1.049c-.45-2.55-1.103-4.923-1.805-7.474a238.765 238.765 0 0 1-.858-3.181c-.9-3.456-1.516-6.947-2.035-10.366-.054-.36-.125-.744-.208-1.196l-.003-.017c-.08-.441-.172-.943-.25-1.454-.15-1.002-.278-2.235-.131-3.491a3.016 3.016 0 0 1 3.346-2.644Zm-30.785 6.889a3.017 3.017 0 0 1 2.49-3.464c3.445-.564 6.695-.745 10.107-.699a3.015 3.015 0 1 1-.08 6.031c-3.132-.042-6.021.125-9.053.621a3.016 3.016 0 0 1-3.463-2.489Z" clip-rule="evenodd" style="fill:#005840;fill:color(display-p3 0 .3451 .251);fill-opacity:1"/><path fill="#005840" fill-rule="evenodd" d="M36.518 235.919a3.016 3.016 0 0 1 4.214-.661c1.712 1.248 3.25 2.853 4.544 4.202.361.378.704.735 1.026 1.059.888.894 1.8 1.801 2.719 2.715a389.25 389.25 0 0 1 4.63 4.656c1.882 1.936 3.648 4.014 5.34 6.006a278.15 278.15 0 0 0 1.945 2.274 3.015 3.015 0 1 1-4.553 3.955 278.773 278.773 0 0 1-2.125-2.482c-1.639-1.929-3.2-3.766-4.932-5.548-1.49-1.534-2.983-3.017-4.495-4.521-.927-.922-1.862-1.851-2.809-2.804-.489-.492-.937-.959-1.362-1.402-1.215-1.264-2.241-2.332-3.48-3.235a3.016 3.016 0 0 1-.662-4.214Z" clip-rule="evenodd" style="fill:#005840;fill:color(display-p3 0 .3451 .251);fill-opacity:1"/><path fill="#005840" fill-rule="evenodd" d="M32.981 242.479c1.258 1.116 2.521 2.225 3.778 3.329l1.142 1.003 1.95 1.719a550.781 550.781 0 0 0 6.431 5.613c1.532 1.31 3.144 2.54 4.676 3.71.368.281.732.558 1.088.832 1.882 1.447 3.628 2.843 5.198 4.383a3.016 3.016 0 0 0 4.224-4.307c-1.845-1.809-3.835-3.389-5.746-4.858l-1.164-.891c-1.52-1.16-2.964-2.263-4.355-3.453a556.154 556.154 0 0 1-6.338-5.532l-1.982-1.746-1.151-1.012a794.923 794.923 0 0 1-4.454-3.931l-.094-.084a19.004 19.004 0 0 0-.242-.214 3.717 3.717 0 0 0-.38-.29 3.034 3.034 0 0 0-3.093-.17c-1.222.639-1.515 1.776-1.583 2.181a3.081 3.081 0 0 0 .03 1.184c.012.058.024.107.03.13l.018.077m5.843-1.5a.543.543 0 0 0-.003-.011l.002.006.001.005Z" clip-rule="evenodd" style="fill:#005840;fill:color(display-p3 0 .3451 .251);fill-opacity:1"/><path fill="#005840" d="M296.309 114.948c-6.467 4.706-10.838 10.24-13.905 17.761-1.528 3.748-2.585 7.708-2.378 11.792.21 4.156 1.313 8.432 2.783 12.305 3.515 9.262 11.338 17.63 20.837 20.579-1.191-3.12-2.554-6.178-3.981-9.383l-.004-.008-.16-.358-.303-.681c-1.76-3.955-3.586-8.133-5.047-12.551-1.671-5.055-3.004-10.201-4.246-15.224-.114-.461-.219-.901-.32-1.323l-.041-.167c-.458-1.904-.829-3.438-1.405-4.925a5.087 5.087 0 0 1-.211-3.013 2.842 2.842 0 0 1-.663-5.052c1.528-1.018 3.207-1.176 4.409-1.193a26.59 26.59 0 0 1 1.556.036h.013l.133.006c.517.022.889.033 1.206.018.177-.008.46-.044.968-.118l.089-.015.008-.001c.435-.064.985-.145 1.541-.195.591-.053 1.314-.084 2.044.006.713.087 1.675.318 2.534.986a2.84 2.84 0 0 1-3.251 4.647 4.424 4.424 0 0 0-.815.018l-.098.009.058.145.009.022c.849 2.192 1.415 4.551 1.879 6.496l.031.128c.086.36.168.706.249 1.032 1.231 4.977 2.487 9.806 4.028 14.468 1.008 3.049 2.237 6.028 3.57 9.083 2.256-6.2 4.582-12.484 7.239-18.51-.87-3.543-1.709-6.92-2.743-10.204a5.08 5.08 0 0 1-.176-2.315l-.158-.015-.045-.005c-.838-.084-1.569-.313-2.092-.49l-.408-.141a3.042 3.042 0 0 0-.07-.025l-.017-.005a8.923 8.923 0 0 0-.743-.238 2.839 2.839 0 1 1 1.409-5.5c.495.126 1.017.309 1.386.438l.014.005.096.034.152.053c.434.147.666.202.838.22 1.579.157 3.258-.027 5.128-.389.932-.181 1.871-.398 2.86-.626l.052-.013a88.052 88.052 0 0 1 2.966-.649 2.84 2.84 0 0 1 3.331 2.245 2.84 2.84 0 0 1-2.247 3.329c-.865.168-1.744.371-2.682.588.058.139.11.282.156.429 1.186 3.767 2.126 7.601 3.021 11.253l.15.608c.955 3.893 1.875 7.581 3.049 11.141.925 2.808 2.099 5.502 3.399 8.343l.797 1.73a212.285 212.285 0 0 1 2.332 5.167c.626-1.58 1.39-3.068 2.13-4.5l.051-.098.031-.06c1.131-2.189 2.192-4.271 2.8-6.588 1.22-4.647.337-9.674-.543-14.684l-.072-.411a57.485 57.485 0 0 1-.071-.406c-.559-3.207-1.507-5.864-2.564-8.828-.222-.622-.448-1.257-.678-1.914a4.122 4.122 0 0 1-.197-.763 2.357 2.357 0 0 1-.015-.326 5.896 5.896 0 0 1-2.118-2.795c-.549-1.546-.381-3.044-.025-4.13.343-1.046 1.182-2.658 3.016-3.597a6.23 6.23 0 0 1 .545-.246l-.334-.247c-5.395-3.953-11.764-5.972-18.409-6.132-7.478-.18-14.562 1.872-21.658 3.937Z" style="fill:#005840;fill:color(display-p3 0 .3451 .251);fill-opacity:1"/><path fill="#005840" d="m346.308 127.377.003.405c.007 1.416.047 2.883.086 4.378l.001.037c.118 4.385.241 9.009-.41 13.292-.399 2.621-1.304 5.18-2.297 7.622-.398.975-.8 1.917-1.196 2.838l-.044.104c-.601 1.401-1.183 2.758-1.69 4.127-.839 2.269-1.885 4.361-2.939 6.383l-.596 1.137a134.477 134.477 0 0 0-1.596 3.107 5.11 5.11 0 0 1-9.848 1.765c-.896-2.22-1.876-4.343-2.917-6.595l-.002-.002c-.284-.616-.573-1.242-.866-1.881-1.333-2.911-2.703-6.028-3.813-9.398-.195-.589-.374-1.18-.553-1.771a29.642 29.642 0 0 0-.085-.279c-1.478 3.803-2.884 7.662-4.3 11.559-.494 1.359-.998 2.728-1.502 4.096l-.359.977a119.772 119.772 0 0 1 2.331 5.862 5.09 5.09 0 0 1-.137 3.837c8.345.257 16.997-1.912 24.183-5.529 4.951-2.492 9.628-6.011 12.61-10.818 2.805-4.523 3.691-10.026 3.34-15.289-.471-7.045-3.25-14.028-7.404-19.964Z" style="fill:#005840;fill:color(display-p3 0 .3451 .251);fill-opacity:1"/><path fill="#005840" fill-rule="evenodd" d="M305.536 29.248a2.77 2.77 0 0 1-2.174 3.26c-6.126 1.226-12.147 2.839-18.274 4.48-.986.264-1.975.53-2.967.793a108.65 108.65 0 0 0-3.568 1.038l-.74.224c-1.471.443-3.012.896-4.586 1.26a6.388 6.388 0 0 0-.744.244l-.09.033c-.307.114-.75.28-1.22.404a2.77 2.77 0 0 1-1.428-5.355c.205-.054.409-.13.779-.267l.036-.013c.349-.13.85-.313 1.416-.445 1.384-.32 2.777-.727 4.236-1.167l.709-.215a115.57 115.57 0 0 1 3.774-1.096c.977-.26 1.955-.523 2.936-.786 6.117-1.639 12.328-3.303 18.644-4.566a2.771 2.771 0 0 1 3.261 2.174Z" clip-rule="evenodd" style="fill:#005840;fill:color(display-p3 0 .3451 .251);fill-opacity:1"/><path fill="#005840" fill-rule="evenodd" d="M270.724 36.438a2.77 2.77 0 0 1 1.239 3.718c-.288.575-.393 1.182-.565 2.178-.053.302-.111.64-.183 1.025-.564 3.016-.938 6.037-1.326 9.158-.108.875-.217 1.757-.332 2.649-.509 3.953-1.196 7.866-1.88 11.712l-.104.588c-.652 3.663-1.292 7.263-1.791 10.88a2.771 2.771 0 0 1-5.49-.758c.514-3.727 1.172-7.426 1.819-11.063l.11-.617c.685-3.855 1.349-7.646 1.839-11.45.107-.833.212-1.677.317-2.528.39-3.146.792-6.39 1.39-9.59.03-.16.061-.347.096-.557.177-1.072.448-2.715 1.143-4.106a2.771 2.771 0 0 1 3.718-1.24Z" clip-rule="evenodd" style="fill:#005840;fill:color(display-p3 0 .3451 .251);fill-opacity:1"/><path fill="#005840" fill-rule="evenodd" d="M260.635 78.942a2.772 2.772 0 0 1 2.887-2.65c1.09.046 2.078.331 2.749.525l.134.04c4.896 1.404 9.864 2.476 14.957 3.575l1.01.218c1.578.34 3.185.674 4.806 1.01 3.06.635 6.167 1.28 9.212 2.003a31.763 31.763 0 0 1 5.602 1.864 2.77 2.77 0 1 1-2.238 5.07 26.206 26.206 0 0 0-4.644-1.541c-2.977-.707-5.937-1.321-8.941-1.944-1.64-.34-3.292-.683-4.967-1.045l-1.051-.227c-5.053-1.09-10.193-2.198-15.274-3.657-.817-.234-1.207-.338-1.591-.354a2.771 2.771 0 0 1-2.651-2.887Z" clip-rule="evenodd" style="fill:#005840;fill:color(display-p3 0 .3451 .251);fill-opacity:1"/><path fill="#005840" fill-rule="evenodd" d="m305.904 28.822.002.004c.505.819.531 1.797.158 2.61a82.09 82.09 0 0 0-.23 2.164c-.043.447-.088.909-.14 1.397-.335 3.16-.337 6.232-.339 9.468 0 1.544-.001 3.126-.038 4.772-.084 3.715-.395 7.545-.697 11.275-.184 2.27-.365 4.504-.49 6.653-.233 3.998-.148 8.012-.061 12.136.021.975.042 1.955.058 2.943.008.451.009.843.01 1.19.004 1.243.006 1.916.293 2.661a2.772 2.772 0 0 1-5.173 1.99c-.693-1.802-.68-3.725-.671-5.056.002-.253.003-.485 0-.69-.016-.935-.036-1.879-.056-2.83-.089-4.14-.18-8.427.067-12.667.142-2.434.333-4.772.521-7.073.292-3.569.576-7.048.658-10.657.031-1.383.032-2.823.034-4.297.003-3.386.006-6.95.373-10.403.041-.387.081-.798.122-1.222.085-.872.176-1.798.291-2.686l.002-.04a5.19 5.19 0 0 1 .048-.511 3.47 3.47 0 0 1 .122-.525l.002-.006a2.89 2.89 0 0 1 .789-1.246 2.805 2.805 0 0 1 3.29-.38c.65.367.974.894 1.055 1.026Zm.231 1.887v.003Zm-4.879 1.13a2.262 2.262 0 0 1-.066-.103l-.004-.006c.023.037.046.073.07.108Z" clip-rule="evenodd" style="fill:#005840;fill:color(display-p3 0 .3451 .251);fill-opacity:1"/><path fill="#005840" fill-rule="evenodd" d="m304.726 29.127.095.025c.337.086.785.164 1.384.265l.085.014a24.63 24.63 0 0 1 1.732.335c.303.075.66.176 1.01.319.31.126.847.374 1.321.85 1.177 1.176 2.433 2.244 3.807 3.343a2.77 2.77 0 1 1-3.462 4.328c-1.341-1.073-2.667-2.19-3.954-3.447l-.044-.01a21.449 21.449 0 0 0-1.415-.267l-.024-.004c-.538-.09-1.217-.204-1.811-.356a7.015 7.015 0 0 1-1.027-.34 3.878 3.878 0 0 1-1.34-.918 2.77 2.77 0 0 1 3.643-4.137Z" clip-rule="evenodd" style="fill:#005840;fill:color(display-p3 0 .3451 .251);fill-opacity:1"/><path fill="#005840" fill-rule="evenodd" d="M319.047 26.49a3.31 3.31 0 0 1 1.154 1.226 2.77 2.77 0 0 1-1.623 4c-1.529 2.052-3.297 3.564-5.002 4.962a2.771 2.771 0 0 1-3.516-4.284c1.669-1.37 2.975-2.517 4.068-3.98-.014.017-.007.002.157-.258.118-.189.336-.53.612-.852l.005-.006c.175-.203.849-.988 1.978-1.204a3.04 3.04 0 0 1 2.167.395Z" clip-rule="evenodd" style="fill:#005840;fill:color(display-p3 0 .3451 .251);fill-opacity:1"/><path fill="#005840" fill-rule="evenodd" d="M318.309 26.29a2.77 2.77 0 0 1 2.849 2.691c.07 2.455.719 4.94 1.532 7.64 1.221 4.045 2.124 8.206 2.996 12.225.169.777.336 1.549.504 2.313.324 1.468.578 3.006.818 4.456.113.678.221 1.336.333 1.958.316 1.772.8 3.43 1.33 5.251.198.677.401 1.377.606 2.113.245.882.461 1.782.664 2.626l.165.684c.259 1.061.512 2.041.826 2.982.343 1.03.722 2.123 1.106 3.233.517 1.493 1.046 3.02 1.517 4.473a2.772 2.772 0 0 1-5.273 1.708c-.475-1.467-.952-2.841-1.439-4.246-.382-1.1-.77-2.22-1.169-3.416-.389-1.168-.687-2.333-.953-3.423l-.182-.755a69.344 69.344 0 0 0-.603-2.384c-.161-.582-.337-1.186-.519-1.808-.555-1.904-1.159-3.974-1.532-6.063-.139-.776-.26-1.511-.378-2.225-.225-1.361-.436-2.643-.729-3.972-.176-.8-.349-1.594-.521-2.385-.872-4.019-1.722-7.929-2.873-11.745-.824-2.733-1.673-5.83-1.766-9.082a2.772 2.772 0 0 1 2.691-2.849Z" clip-rule="evenodd" style="fill:#005840;fill:color(display-p3 0 .3451 .251);fill-opacity:1"/><path fill="#005840" fill-rule="evenodd" d="M333.553 80.84a2.77 2.77 0 0 1-2.465 3.046c-1.462.154-2.917.43-4.513.731l-.631.12c-3.514.663-6.947 1.311-10.308 2.162-1.383.35-2.747.763-4.184 1.198l-.532.161c-1.606.486-3.299.987-5.046 1.381a12.31 12.31 0 0 1-.353.074l-.02.003-.253.052a2.771 2.771 0 0 1-4.876-2.375c.462-1.847 2.054-2.534 2.683-2.76.597-.214 1.432-.369 1.577-.396l.022-.004c1.533-.346 3.058-.795 4.663-1.28l.53-.16c1.421-.43 2.914-.883 4.429-1.267 3.532-.894 7.122-1.571 10.597-2.228l.672-.127.1-.018c1.527-.289 3.173-.6 4.863-.778a2.77 2.77 0 0 1 3.045 2.466Zm-28.644 9.016Zm-12.69-73.436a1.262 1.262 0 0 0-.167.021c-1.213.234-2.572.87-3.892 1.712-4.667 2.975-9.134 7.985-11.466 13.286-.414.94-.645 1.547-.713 2.041-.05.363.005.5.128.66a2.77 2.77 0 1 1-4.412 3.356c-1.195-1.572-1.413-3.276-1.206-4.774.189-1.366.745-2.64 1.13-3.516 2.797-6.356 8.019-12.194 13.559-15.727 1.621-1.033 3.654-2.061 5.823-2.48 1.455-.28 2.888-.08 4.149.7 1.181.73 1.962 1.815 2.504 2.85 1.366 2.606 1.961 5.393 2.26 8.04.218 1.921.29 3.923.357 5.761.023.641.045 1.262.073 1.852a2.771 2.771 0 1 1-5.536.26c-.034-.719-.059-1.418-.084-2.104-.064-1.77-.125-3.452-.317-5.146-.26-2.296-.739-4.33-1.662-6.091-.261-.498-.446-.662-.497-.7h-.031Z" clip-rule="evenodd" style="fill:#005840;fill:color(display-p3 0 .3451 .251);fill-opacity:1"/><path fill="#005840" fill-rule="evenodd" d="M302.512 19.747c-.744.023-1.627.248-2.47.543-4.479 1.569-8.415 5.39-9.756 10.668a2.772 2.772 0 0 1-5.372-1.365c1.832-7.207 7.193-12.396 13.296-14.534 1.049-.367 2.555-.803 4.133-.852 1.581-.048 3.624.292 5.19 1.931 1.79 1.874 2.372 4.26 2.596 6.256.147 1.31.159 2.822.169 4.057.005.533.009 1.015.023 1.406a2.77 2.77 0 1 1-5.539.201 62.485 62.485 0 0 1-.033-1.996c-.006-1.055-.011-2.01-.128-3.05-.171-1.529-.542-2.466-1.095-3.046-.059-.061-.271-.242-1.014-.219ZM300.133 32l-31.037 6.65L263 78l37.133 8.313V32Zm-8.912 9.003c-.271-.035-.56-.072-.876-.106-.889-.095-1.945-.15-2.956.18-3.278 1.067-6.635 2.496-9.421 4.8-.761.63-1.128 1.552-1.364 2.146l-.074.183c-.145.354-.341.684-.584 1.067l-.113.177c-.209.327-.452.707-.661 1.114-.783 1.524-1.126 3.419-.673 5.186.387 1.508 1.2 2.902 2.009 4.06.517.742 1.285 1.127 1.789 1.38l.062.03c.592.298.877.464 1.055.71.307.428.73.834 1.088 1.174l.116.11c.342.324.649.615.912.919.598.687.647 1.053.475 1.414-.482 1.014-.885 1.37-1.232 1.518-.381.163-.954.193-2.049-.034-1.157-.24-2.04-.603-2.622-1.314a1.836 1.836 0 0 1-.086-.112 7.732 7.732 0 0 0-.076-.101 2.106 2.106 0 0 0-.154-.183 1.318 1.318 0 0 0-.396-.285 1.193 1.193 0 0 0-.833-.063 1.262 1.262 0 0 0-.537.32 2.264 2.264 0 0 0-.367.515c-.438.787-.506 1.641-.553 2.242l-.002.016c-.055.687-.091 1.083-.25 1.412-.156.324-.331.623-.53.963a35.61 35.61 0 0 0-.135.233 10.34 10.34 0 0 0-.73 1.46 5.75 5.75 0 0 0-.169.477c-.048.163-.11.415-.099.695.012.304.12.73.506 1.048.351.29.759.343 1.043.343 1.274 0 2.138.272 3.475.783.521.2 1.068.437 1.577.68.488.235.99.33 1.369.396l.196.033c.315.053.536.09.749.16.113.037.21.09.4.191l.07.038.082.044c.251.133.635.33 1.109.4.71.104 1.619.212 2.444.163.567-.033 1.347-.088 2.114-.235.739-.14 1.617-.392 2.284-.911.321-.25.596-.533.814-.757l.017-.017a6.19 6.19 0 0 1 .605-.574c.116-.091.244-.184.378-.281.562-.409 1.246-.907 1.768-1.749.073-.117.164-.254.265-.405h.001c.272-.41.615-.924.847-1.43.235-.516.341-1.047.407-1.502.031-.21.055-.421.076-.612h.001l.005-.048c.024-.21.046-.395.073-.571.206-1.31.331-3.435-.034-4.896-.223-.891-.726-1.587-1.116-2.111l-.087-.117c-.382-.513-.644-.865-.796-1.267-.483-1.28-1.667-2.573-2.583-3.306a5.996 5.996 0 0 0-.756-.502l-.209-.12h-.001a8.965 8.965 0 0 1-.39-.23 2.561 2.561 0 0 0-.668-.287l-.008-.002-.043-.013c-.055-.016-.086-.025-.119-.037-.018-.005-.028-.01-.033-.012l-.004-.001a2.63 2.63 0 0 1-.392-.282l-.049-.04a5.609 5.609 0 0 0-.635-.465c-.281-.17-.487-.415-.781-.83l-.095-.135c-.244-.35-.575-.824-1.034-1.23.076-.268.106-.514.126-.678l.006-.046c.034-.276.054-.355.08-.408.19-.396.557-.715 1.116-.973.564-.259 1.236-.413 1.897-.52.754-.124 1.307-.106 1.771.027.454.13.913.396 1.437.92a1.11 1.11 0 0 0 1.19.248 1.109 1.109 0 0 0 1.534-.235c.272-.362.399-.764.472-.995l.003-.012c.091-.287.122-.38.166-.45a6.327 6.327 0 0 0 .853-2.274c.064-.384.119-.754.173-1.111.166-1.112.316-2.11.658-3.087.084-.241.138-.573.021-.93a1.363 1.363 0 0 0-.595-.74c-.38-.232-.818-.26-1.039-.267a6.525 6.525 0 0 0-.752.028l-.148.014a17.74 17.74 0 0 1-.207.017h-.025c-.49 0-.977-.062-1.543-.135ZM29.713 296.273a5.612 5.612 0 0 1 1.933-.324 4.051 4.051 0 0 1 1.64 7.757c-1.456 1.914-3.102 3.627-4.833 5.166-3.866 3.436-7.713 7.41-10.727 11.448-.43.577-.804 1.225-1.291 2.103l-.11.198c-.434.785-.982 1.776-1.652 2.732-.072.105-.145.208-.217.311-1.437 2.052-2.696 3.849-3.638 5.732-.44.882-.746 2.288-.766 4.029-.02 1.702.238 3.39.628 4.651.59 1.909 1.934 3.042 3.904 3.584 2.103.58 4.734.389 7-.486.877-.339 1.854-1.003 3.058-2.045.59-.51 1.174-1.055 1.812-1.652l.033-.032c.607-.567 1.275-1.192 1.95-1.773 1.06-.912 2.316-1.913 3.475-2.837.779-.622 1.515-1.209 2.118-1.71 1.713-1.423 3.202-2.809 4.48-4.428 1.403-1.777 2.875-3.463 4.287-5.069l.356-.405c1.303-1.481 2.547-2.896 3.736-4.355 1.353-1.661 3.698-3.885 6.485-4.814a4.05 4.05 0 1 1 2.563 7.686c-.685.228-1.84 1.108-2.767 2.246-1.291 1.584-2.635 3.112-3.92 4.573l-.367.418c-1.416 1.61-2.758 3.15-4.014 4.741-1.78 2.255-3.755 4.054-5.661 5.638-.938.78-1.747 1.421-2.522 2.036-.977.775-1.902 1.508-2.968 2.424a58.01 58.01 0 0 0-1.728 1.576l-.022.02a68.418 68.418 0 0 1-2.026 1.845c-1.436 1.242-3.255 2.632-5.441 3.476-3.657 1.411-8.073 1.84-12.07.738-4.132-1.139-7.942-3.99-9.492-9.003-.655-2.121-1.017-4.652-.988-7.137.028-2.446.438-5.193 1.62-7.558 1.221-2.441 2.807-4.701 4.162-6.634l.303-.432c.415-.593.768-1.23 1.25-2.1l.063-.113c.479-.863 1.088-1.954 1.884-3.021 3.43-4.593 7.687-8.968 11.837-12.657 1.45-1.288 2.751-2.66 3.854-4.13a2.34 2.34 0 0 0 .092-.134l.096-.145.01-.014c.1-.15.365-.548.75-.937a4.96 4.96 0 0 1 1.84-1.183Zm4.17 6.586-.015.02.014-.02Zm47.613 24.486c-2.743-1.41-4.927-2.016-7.068-1.642-1.704.299-3.521 1.228-5.541 2.701-1.516 1.104-2.899 2.318-4.348 3.589-.522.459-1.054.926-1.603 1.397-4.416 3.791-8.391 8.034-12.522 12.443-1.15 1.226-2.31 2.466-3.496 3.712-.445.467-1.035 1.017-1.565 1.512l-.295.275a37.596 37.596 0 0 0-1.86 1.836c-.579.625-.97 1.132-1.193 1.512-.046.079-.078.14-.1.185a4.052 4.052 0 0 1-8.094.147c-.101-1.821.586-3.373 1.205-4.429.646-1.103 1.479-2.1 2.239-2.921a45.095 45.095 0 0 1 2.264-2.242l.364-.341c.534-.499.903-.843 1.166-1.12a559.9 559.9 0 0 0 3.284-3.488c4.172-4.455 8.54-9.121 13.326-13.228.408-.351.849-.738 1.315-1.148 1.513-1.328 3.3-2.897 5.141-4.239 2.452-1.787 5.45-3.527 8.916-4.133 4.735-.829 8.86.715 12.169 2.416 1.594.82 3.236 2.008 4.647 3.384 1.388 1.353 2.767 3.097 3.559 5.103 1.243 3.15.471 6.185-.458 8.35-.857 1.996-2.11 3.843-2.961 5.096l-.2.293c-2.886 4.27-6.807 7.755-10.275 10.836a135.008 135.008 0 0 0-3.159 2.864c-3.75 3.552-7.303 7.3-10.942 11.139l-1.609 1.696a4.05 4.05 0 0 1-5.874-5.581c.529-.556 1.059-1.115 1.59-1.676 3.627-3.827 7.342-7.747 11.264-11.461 1.384-1.311 2.712-2.492 3.975-3.616 3.236-2.879 6.05-5.382 8.319-8.738l.107-.159c.937-1.385 1.78-2.633 2.32-3.888.556-1.296.475-1.905.367-2.18-.232-.588-.785-1.406-1.68-2.278-.87-.849-1.862-1.55-2.694-1.978Zm-39.63 27.613.004-.011a.085.085 0 0 1-.003.011Z" clip-rule="evenodd" style="fill:#005840;fill:color(display-p3 0 .3451 .251);fill-opacity:1"/><path fill="#005840" fill-rule="evenodd" d="M80.462 329.61a4.051 4.051 0 0 1-.633 5.694c-5.496 4.397-10.394 9.581-15.466 15.03l-.786.845c-4.767 5.125-9.727 10.459-15.28 15.144-2.256 1.904-4.66 3.2-7.403 3.657-2.71.452-5.346.016-7.948-.832-1.226-.399-2.185-.993-2.84-1.417a53.161 53.161 0 0 1-.498-.326c-.406-.267-.628-.413-.912-.555-.204-.102-.503-.21-1.035-.356l-.436-.114a34.666 34.666 0 0 1-1.53-.421 4.05 4.05 0 1 1 2.401-7.738c.31.096.55.158.864.238.223.057.484.124.835.219.692.189 1.6.463 2.524.925.763.382 1.494.866 1.953 1.171l.242.159c.514.333.752.45.942.512 1.873.61 3.122.707 4.106.543.95-.158 2.052-.627 3.51-1.858 5.167-4.359 9.82-9.361 14.673-14.577l.687-.738c5.037-5.413 10.312-11.018 16.336-15.837a4.05 4.05 0 0 1 5.694.632Zm-16.971-23.357c-1.192-.733-2.145-1.018-3.04-.984-4.121.155-8.15 2.44-12.233 5.576-3.501 2.689-6.639 6.074-9.945 9.64l-1.123 1.209c-1.963 2.11-4.109 4.288-6.203 6.415-1.547 1.571-3.066 3.113-4.463 4.578-1.555 1.631-3.202 3.099-4.815 4.467a4.053 4.053 0 0 1-3.508 2.741l-.09.015-.013.002c-.06.01-.187.032-.316.049v.001c-.105.014-.43.058-.82.046a4.28 4.28 0 0 1-1.028-.156 4.112 4.112 0 0 1-1.994-1.265c-1.846-2.132-.616-4.439-.457-4.72.305-.539.672-.905.795-1.027a7.81 7.81 0 0 1 .518-.465c2.163-1.795 4.11-3.44 5.864-5.279a385.283 385.283 0 0 1 4.74-4.861c1.962-1.99 3.88-3.934 5.86-6.06l1.13-1.219c3.233-3.493 6.852-7.402 10.933-10.536 4.335-3.33 10.082-6.992 16.863-7.247 3.03-.115 5.571.939 7.586 2.176 1.738 1.068 3.317 2.43 4.546 3.489l.417.359a4.05 4.05 0 0 1-5.272 6.152l-.4-.344c-1.308-1.123-2.383-2.047-3.532-2.752Zm-46.919 25.691.06-.008a.429.429 0 0 1-.06.008Z" clip-rule="evenodd" style="fill:#005840;fill:color(display-p3 0 .3451 .251);fill-opacity:1"/></svg>